<svg viewBox="0 0 24 24" fill="none" xmlns="http://www.w3.org/2000/svg">
<g clip-path="url(#clip0_304_2001)">
<path d="M19.1875 11.7844V11.2556L19.2728 11.2131C20.7622 10.4684 21.6875 8.97125 21.6875 7.30594C21.6875 5.60563 20.7122 4.08063 19.1875 3.35938V2.9375C19.1875 2.59281 18.9072 2.3125 18.5625 2.3125H17.9375C17.5928 2.3125 17.3125 2.59281 17.3125 2.9375H15.125C14.4381 2.9375 13.825 3.25625 13.4237 3.75281C13.2059 3.63188 12.9619 3.5625 12.7081 3.5625H3.79188C2.97625 3.5625 2.3125 4.22625 2.3125 5.04188C2.3125 5.11188 2.3175 5.18187 2.3275 5.25125L2.7975 8.54187C2.90094 9.26625 3.53062 9.8125 4.26219 9.8125H7.9375V10.27C7.9375 10.3275 7.94438 10.3834 7.95625 10.4375H7.07438L6.85 11.2578C6.77844 11.2847 6.70687 11.3144 6.63594 11.3472L5.89656 10.9253L4.67531 12.1466L5.09719 12.8859C5.06469 12.9569 5.03469 13.0281 5.00781 13.1L4.1875 13.3241V14.3169C3.81844 14.5063 3.5625 14.8866 3.5625 15.3291C3.5625 15.4278 3.57563 15.5266 3.60094 15.6231L4.8125 20.1656V20.4375C4.8125 21.1269 5.37313 21.6875 6.0625 21.6875H11.0625C11.4072 21.6875 11.6875 21.4072 11.6875 21.0625V20.4375H17C19.24 20.4375 21.0625 18.615 21.0625 16.375V14.6016C21.0625 13.3612 20.3178 12.2566 19.1875 11.7844ZM14.7028 11.5694C14.8991 11.6444 15.1112 11.6875 15.3337 11.6875C15.4175 11.6875 15.5013 11.6816 15.5844 11.6697L16.8303 11.4916C16.4291 11.9913 15.8144 12.3125 15.125 12.3125H14.7591C14.7934 12.2147 14.8125 12.1097 14.8125 12C14.8125 11.8438 14.7706 11.6987 14.7028 11.5694ZM14.1875 12C14.1875 12.1722 14.0472 12.3125 13.875 12.3125H13.25C13.0778 12.3125 12.9375 12.1722 12.9375 12C12.9375 11.8278 13.0778 11.6875 13.25 11.6875H13.875C14.0472 11.6875 14.1875 11.8278 14.1875 12ZM13.8422 8.82188L13.7647 8.78312C13.64 8.72062 13.5625 8.595 13.5625 8.45563C13.5625 8.38313 13.5837 8.31281 13.6241 8.2525L14.03 7.64375C14.1331 7.48906 14.1875 7.30938 14.1875 7.12344V6.0625H16.7219C16.3156 6.46 16.0625 7.01312 16.0625 7.625C16.0625 8.49531 16.5747 9.24656 17.3125 9.59844V10.125C17.3125 10.3634 17.2728 10.5925 17.2022 10.8075L15.4959 11.0513C15.4422 11.0588 15.3881 11.0625 15.3337 11.0625C14.7019 11.0625 14.1875 10.5481 14.1875 9.91625V9.38094C14.1875 9.14219 14.055 8.92812 13.8422 8.82188ZM19.8125 7.625C19.8125 8.48656 19.1116 9.1875 18.25 9.1875C17.3884 9.1875 16.6875 8.48656 16.6875 7.625C16.6875 6.76344 17.3884 6.0625 18.25 6.0625C19.1116 6.0625 19.8125 6.76344 19.8125 7.625ZM17.9375 10.125V9.7875C18.04 9.80219 18.1438 9.8125 18.25 9.8125C18.3563 9.8125 18.46 9.80219 18.5625 9.7875V11.8003C17.8516 12.1241 17.22 12.5653 16.6875 13.0975V12.4622C17.4406 11.9566 17.9375 11.0978 17.9375 10.125ZM21.0625 7.30594C21.0625 8.65875 20.3491 9.88125 19.1875 10.5484V9.59844C19.9253 9.24656 20.4375 8.49531 20.4375 7.625C20.4375 6.75469 19.9253 6.00344 19.1875 5.65156V4.06313C20.3394 4.72531 21.0625 5.95062 21.0625 7.30594ZM18.5625 2.9375V5.4625C18.46 5.44781 18.3563 5.4375 18.25 5.4375C18.1438 5.4375 18.04 5.44781 17.9375 5.4625V2.9375H18.5625ZM15.125 3.5625H17.3125V5.4375H13.875C13.7028 5.4375 13.5625 5.29719 13.5625 5.125C13.5625 4.26344 14.2634 3.5625 15.125 3.5625ZM3.41625 8.45375L2.94625 5.16313C2.94031 5.12312 2.9375 5.0825 2.9375 5.04188C2.9375 4.57094 3.32094 4.1875 3.79188 4.1875H12.7078C12.8481 4.1875 12.9825 4.22469 13.1041 4.28875C12.9972 4.54656 12.9375 4.82875 12.9375 5.125C12.9375 5.53188 13.1997 5.87562 13.5625 6.005V7.12344C13.5625 7.18531 13.5444 7.24531 13.51 7.29688L13.1041 7.90594C12.995 8.06906 12.9375 8.25938 12.9375 8.45563C12.9375 8.5575 12.9541 8.65625 12.9828 8.75C12.8453 8.99719 12.5962 9.1575 12.3125 9.18188V8.875C12.3125 7.99969 11.7944 7.245 11.05 6.89563C11.2497 6.67406 11.375 6.38375 11.375 6.0625C11.375 5.37313 10.8144 4.8125 10.125 4.8125C9.43563 4.8125 8.875 5.37313 8.875 6.0625C8.875 6.38375 9.00031 6.67406 9.2 6.89563C8.80438 7.08125 8.47375 7.38156 8.25 7.75406C8.02625 7.38156 7.69594 7.08125 7.3 6.89563C7.49969 6.67406 7.625 6.38375 7.625 6.0625C7.625 5.37313 7.06437 4.8125 6.375 4.8125C5.68563 4.8125 5.125 5.37313 5.125 6.0625C5.125 6.38375 5.25031 6.67406 5.45 6.89563C4.70563 7.245 4.1875 7.99969 4.1875 8.875V9.18062C3.79781 9.14563 3.4725 8.84688 3.41625 8.45375ZM8.5625 9.5V8.875C8.5625 8.01344 9.26344 7.3125 10.125 7.3125C10.9866 7.3125 11.6875 8.01344 11.6875 8.875V9.1875H10.6553L8.8225 10.4094C8.71813 10.4788 8.56219 10.3956 8.56219 10.27L8.5625 9.5ZM9.5 6.0625C9.5 5.71781 9.78031 5.4375 10.125 5.4375C10.4697 5.4375 10.75 5.71781 10.75 6.0625C10.75 6.40719 10.4697 6.6875 10.125 6.6875C9.78031 6.6875 9.5 6.40719 9.5 6.0625ZM5.75 6.0625C5.75 5.71781 6.03031 5.4375 6.375 5.4375C6.71969 5.4375 7 5.71781 7 6.0625C7 6.40719 6.71969 6.6875 6.375 6.6875C6.03031 6.6875 5.75 6.40719 5.75 6.0625ZM4.8125 9.1875V8.875C4.8125 8.01344 5.51344 7.3125 6.375 7.3125C7.23656 7.3125 7.9375 8.01344 7.9375 8.875V9.1875H4.8125ZM5.49781 13.6138L5.54844 13.4497C5.59281 13.3059 5.65281 13.1616 5.72719 13.0213L5.80719 12.8694L5.45438 12.2509L6.00125 11.7041L6.61969 12.0569L6.77156 11.9769C6.91188 11.9028 7.05594 11.8425 7.2 11.7981L7.36406 11.7475L7.55156 11.0622H8.32469L8.51219 11.7475L8.67625 11.7981C8.82 11.8425 8.96438 11.9025 9.10469 11.9769L9.25656 12.0569L9.875 11.7041L10.4219 12.2509L10.0691 12.8694L10.1491 13.0213C10.2231 13.1616 10.2834 13.3056 10.3278 13.4497L10.3784 13.6138L11.0638 13.8013V14.5744L10.3784 14.7619L10.3278 14.9259C10.2834 15.0697 10.2234 15.2141 10.1491 15.3544L10.0691 15.5063L10.4219 16.1247L9.875 16.6716L9.25656 16.3188L9.10469 16.3988C8.96438 16.4728 8.82031 16.5331 8.67625 16.5775L8.51219 16.6281L8.32406 17.3125H7.55094L7.36344 16.6272L7.19938 16.5766C7.05562 16.5322 6.91125 16.4722 6.77094 16.3978L6.61937 16.3178L6.045 16.645L5.3625 14.1875H4.8125V13.8009L5.49781 13.6138ZM4.1875 15.3288C4.1875 15.0441 4.41906 14.8125 4.70375 14.8125H4.8875L6.27656 19.8125H5.365L4.205 15.4625C4.19344 15.4184 4.1875 15.3734 4.1875 15.3288ZM11.0625 21.0625H6.0625C5.71781 21.0625 5.4375 20.7822 5.4375 20.4375H7.09844H11.0625V21.0625ZM11.0625 19.8125H9.5575C9.68687 19.4497 10.0306 19.1875 10.4375 19.1875H11.0625V19.8125ZM11.12 18.5625H10.4375C9.68313 18.5625 9.05188 19.1003 8.90656 19.8125H6.925L6.21781 17.2659L6.63594 17.0281C6.70687 17.0606 6.77813 17.0906 6.85 17.1175L7.07406 17.9375H8.80094L9.02531 17.1172C9.09688 17.0903 9.16844 17.0606 9.23938 17.0278L9.97875 17.4497L11.2 16.2284L10.7781 15.4891C10.8106 15.4181 10.8406 15.3469 10.8675 15.275L11.6875 15.0509V13.3241L10.8672 13.0997C10.8403 13.0281 10.8106 12.9566 10.7778 12.8856L11.1997 12.1462L9.97844 10.925L9.23906 11.3469C9.16813 11.3144 9.09687 11.2844 9.025 11.2575L8.96187 11.0269C9.03469 11.0044 9.10438 10.9719 9.16875 10.9291L10.8447 9.8125H12.2378C12.6894 9.8125 13.1009 9.61125 13.3762 9.27781C13.4109 9.30094 13.4469 9.32281 13.4853 9.34188L13.5625 9.38062V9.91594C13.5625 10.3591 13.7272 10.7638 13.9972 11.0747C13.9569 11.0694 13.9169 11.0625 13.875 11.0625H13.25C12.7331 11.0625 12.3125 11.4831 12.3125 12C12.3125 12.5169 12.7331 12.9375 13.25 12.9375H15.125C15.4541 12.9375 15.7688 12.8778 16.0625 12.7734V13.8241C15.2681 14.9013 14.8125 16.2219 14.8125 17.625V17.9375H12C11.5931 17.9375 11.2494 18.1997 11.12 18.5625ZM20.4375 16.375C20.4375 18.2703 18.8953 19.8125 17 19.8125H11.6875V18.875C11.6875 18.7028 11.8278 18.5625 12 18.5625H16.375C17.9256 18.5625 19.1875 17.3006 19.1875 15.75V14.8125H18.5625V15.75C18.5625 16.9563 17.5813 17.9375 16.375 17.9375H15.4375V17.625C15.4375 15.3238 16.7866 13.2606 18.885 12.3356C19.8184 12.6966 20.4375 13.5928 20.4375 14.6016V16.375Z" fill="currentColor"/>
<path d="M7.9375 16.0625C8.97156 16.0625 9.8125 15.2216 9.8125 14.1875C9.8125 13.1534 8.97156 12.3125 7.9375 12.3125C6.90344 12.3125 6.0625 13.1534 6.0625 14.1875C6.0625 15.2216 6.90344 16.0625 7.9375 16.0625ZM7.9375 12.9375C8.62687 12.9375 9.1875 13.4981 9.1875 14.1875C9.1875 14.8769 8.62687 15.4375 7.9375 15.4375C7.24812 15.4375 6.6875 14.8769 6.6875 14.1875C6.6875 13.4981 7.24812 12.9375 7.9375 12.9375Z" fill="currentColor"/>
<path d="M17.3125 7.625C17.3125 8.14188 17.7331 8.5625 18.25 8.5625V7.9375C18.0778 7.9375 17.9375 7.79719 17.9375 7.625C17.9375 7.45281 18.0778 7.3125 18.25 7.3125C18.4222 7.3125 18.5625 7.45281 18.5625 7.625H19.1875C19.1875 7.10812 18.7669 6.6875 18.25 6.6875C17.7331 6.6875 17.3125 7.10812 17.3125 7.625Z" fill="currentColor"/>
</g>
<defs>
<clipPath id="clip0_304_2001">
<rect width="20" height="20" fill="white" transform="translate(2 2)"/>
</clipPath>
</defs>
</svg>
