<svg viewBox="0 0 24 24" fill="none" xmlns="http://www.w3.org/2000/svg">
<path d="M21.3737 14.1346V13.6854C21.7373 13.5625 22 13.2182 22 12.8134C22 12.4086 21.7373 12.0642 21.3737 11.9413V6.86223L21.6517 6.64173C21.6533 6.64048 21.6547 6.63919 21.6562 6.63793C21.6627 6.63272 21.669 6.62736 21.6753 6.62195C21.6815 6.61671 21.6877 6.61146 21.6937 6.60609C21.6977 6.60249 21.7016 6.59873 21.7056 6.59505C21.7134 6.58784 21.7211 6.5806 21.7286 6.57316C21.7293 6.57253 21.7299 6.5719 21.7306 6.57128C21.7312 6.57065 21.7317 6.56998 21.7323 6.56936C22.0565 6.24351 22.0932 5.71762 21.8008 5.34846C21.6483 5.156 21.4299 5.03444 21.1858 5.0062C20.9888 4.98345 20.7942 5.02371 20.6254 5.12025L9.42748 10.0159C8.95178 10.0507 8.57534 10.4488 8.57534 10.9335C8.57534 11.3383 8.83796 11.6826 9.20157 11.8055V12.2063H7.90998V11.8769C7.90998 11.7134 7.84611 11.5601 7.7301 11.4452C7.61429 11.3305 7.46047 11.2696 7.29761 11.2699C6.41476 11.2791 5.89757 11.2795 5.64728 11.2759C5.54521 11.0841 5.34348 10.9531 5.11155 10.9531H4.48532C4.1508 10.9531 3.87867 11.2254 3.87867 11.5601V12.2546C3.51507 12.3775 3.25245 12.7219 3.25245 13.1267C3.25245 13.5315 3.51507 13.8758 3.87867 13.9987V15.6332C3.87867 15.9679 4.1508 16.2402 4.48532 16.2402H7.61644C7.95096 16.2402 8.22309 15.9679 8.22309 15.6332V14.047H10.0909L9.4809 17.9129L2.88685 19.4125H2.29354C2.13143 19.4125 2 19.544 2 19.7062C2 19.8684 2.13143 20 2.29354 20H2.91883C2.91906 20 2.91926 20 2.91949 20C2.91984 20 2.9202 20 2.92051 20H9.49495C9.49511 20 9.49526 20 9.49542 20C9.49569 20 9.49597 20 9.49624 20H13.2512C13.2514 20 13.2517 20 13.252 20C13.2521 20 13.2523 20 13.2524 20H14.1918C14.3539 20 14.4853 19.8684 14.4853 19.7062C14.4853 19.544 14.3539 19.4125 14.1918 19.4125H13.5033L12.6188 13.807C12.619 13.8068 12.6193 13.8066 12.6195 13.8064L20.7867 7.32793V11.9414C20.4231 12.0643 20.1605 12.4086 20.1605 12.8134C20.1605 13.2182 20.4231 13.5625 20.7867 13.6854V14.3799C20.7867 14.5421 20.9181 14.6736 21.0802 14.6736C21.2637 14.6736 21.4129 14.823 21.4129 15.0065C21.4129 15.1901 21.2637 15.3394 21.0802 15.3394C20.8968 15.3394 20.7476 15.1901 20.7476 15.0065C20.7476 14.8443 20.6161 14.7128 20.454 14.7128C20.2919 14.7128 20.1605 14.8443 20.1605 15.0065C20.1605 15.514 20.5731 15.9269 21.0802 15.9269C21.5874 15.9269 22 15.514 22 15.0065C22 14.6018 21.7373 14.2575 21.3737 14.1346ZM12.4557 12.3277L20.2018 6.19162C20.2444 6.33061 20.3201 6.46154 20.4298 6.57128C20.4859 6.62744 20.5481 6.6753 20.6147 6.71458L12.8778 12.8518C12.8079 12.6286 12.655 12.442 12.4557 12.3277ZM21.1183 5.58979C21.2067 5.60001 21.2857 5.64395 21.3407 5.71347C21.447 5.84756 21.4332 6.03876 21.3147 6.15653C21.3097 6.16154 21.3043 6.16612 21.299 6.17078C21.2957 6.17364 21.2926 6.17666 21.2892 6.1794C21.2303 6.22726 21.1573 6.25334 21.0804 6.25338C21.0803 6.25338 21.0802 6.25338 21.0802 6.25338C21.0801 6.25338 21.08 6.25338 21.08 6.25338C20.9912 6.25334 20.9077 6.21872 20.8449 6.15586C20.7152 6.02607 20.7152 5.81486 20.8449 5.68507C20.8483 5.68174 20.8512 5.67818 20.8543 5.67473L20.8735 5.6595C20.8826 5.65233 20.8919 5.64571 20.9015 5.6396C20.91 5.63522 20.9182 5.63052 20.9261 5.62543C20.9847 5.59464 21.0511 5.58203 21.1183 5.58979ZM9.49456 10.6006C9.49479 10.6006 9.49503 10.6007 9.49526 10.6007C9.4955 10.6007 9.49573 10.6006 9.49593 10.6006C9.67898 10.6011 9.82779 10.7502 9.82779 10.9335C9.82779 11.117 9.67855 11.2664 9.49511 11.2664C9.31166 11.2664 9.16243 11.117 9.16243 10.9335C9.16243 10.7501 9.31135 10.6009 9.49456 10.6006ZM9.78865 11.8055C10.1523 11.6826 10.4149 11.3383 10.4149 10.9335C10.4149 10.7007 10.3279 10.488 10.185 10.3258L18.7814 6.56752L11.663 12.2063H9.78865V11.8055ZM7.30368 11.8574C7.30587 11.8573 7.31159 11.8573 7.3171 11.8627C7.3229 11.8684 7.3229 11.8749 7.3229 11.8769V12.2063H5.7182V11.864C5.98274 11.867 6.45256 11.8662 7.30368 11.8574ZM4.48532 11.5405H5.11155C5.12235 11.5405 5.13112 11.5493 5.13112 11.5601V12.2063H4.46575V11.5601C4.46575 11.5493 4.47452 11.5405 4.48532 11.5405ZM4.17221 12.7938H12C12.1834 12.7938 12.3327 12.9431 12.3327 13.1267C12.3327 13.2178 12.2959 13.3003 12.2364 13.3605L12.2341 13.3624C12.2247 13.3698 12.216 13.3779 12.2078 13.3862C12.1508 13.432 12.0786 13.4596 12 13.4596H4.17221C3.98877 13.4596 3.83953 13.3102 3.83953 13.1267C3.83953 12.9431 3.98877 12.7938 4.17221 12.7938ZM7.63601 15.6332C7.63601 15.6439 7.62724 15.6528 7.61644 15.6528H4.48532C4.47452 15.6528 4.46575 15.644 4.46575 15.6332V14.047H7.63601V15.6332ZM11.0802 14.047V15.0261H10.5308L10.6852 14.047H11.0802ZM12.6617 17.8459H11.6673V15.6136H12.3095L12.6617 17.8459ZM11.0802 17.8459H10.0858L10.4381 15.6136H11.0802V17.8459ZM11.0802 18.4334V19.4125H9.83863L9.99315 18.4334H11.0802ZM9.38227 18.5377L9.24427 19.4125H5.53585L9.38227 18.5377ZM11.6673 19.4125V18.4334H12.7544L12.9089 19.4125H11.6673ZM12.2168 15.0261H11.6673V14.047H12C12.0208 14.047 12.0414 14.0461 12.0619 14.0447L12.2168 15.0261ZM21.0802 12.4805C21.2636 12.4805 21.4129 12.6298 21.4129 12.8134C21.4129 12.9969 21.2636 13.1463 21.0802 13.1463C20.8968 13.1463 20.7475 12.9969 20.7475 12.8134C20.7475 12.6298 20.8968 12.4805 21.0802 12.4805Z" fill="currentColor"/>
</svg>
