<svg viewBox="0 0 24 24" fill="none" xmlns="http://www.w3.org/2000/svg">
<g clip-path="url(#clip0_304_2000)">
<path d="M22 14.1145V9.8855H19.695C19.5192 9.24582 19.2643 8.63206 18.935 8.05533L20.5662 6.4241L17.5759 3.43376L15.9447 5.06499C15.3679 4.73569 14.7542 4.48084 14.1145 4.305V2H9.8855V4.305C9.24582 4.48084 8.63206 4.73569 8.05533 5.06499L6.4241 3.43376L3.43376 6.4241L5.06499 8.05537C4.96928 8.22309 4.87937 8.39482 4.79653 8.56812L5.3274 8.82183C5.43488 8.59691 5.5553 8.37482 5.68533 8.16171L5.80587 7.96413L4.26581 6.42406L6.42406 4.26581L7.96413 5.80587L8.16171 5.68533C8.81006 5.28975 9.51243 4.99807 10.2493 4.81842L10.4738 4.76366V2.58838H13.5261V4.7637L13.7506 4.81846C14.4875 4.99811 15.1899 5.28979 15.8382 5.68537L16.0358 5.80591L17.5759 4.26585L19.7341 6.4241L18.194 7.96417L18.3146 8.16175C18.7102 8.8101 19.0019 9.51247 19.1815 10.2494L19.2363 10.4739H21.4116V13.5261H19.2363L19.1815 13.7506C19.0019 14.4875 18.7102 15.1899 18.3146 15.8383L18.194 16.0358L19.7341 17.5759L17.5759 19.7341L16.0358 18.1941L15.8382 18.3146C15.1899 18.7102 14.4875 19.0019 13.7506 19.1815L13.5261 19.2363V21.4116H10.4738V19.2363L10.2493 19.1815C9.51243 19.0019 8.81006 18.7102 8.16171 18.3146L7.96413 18.1941L6.42406 19.7341L4.26581 17.5759L5.80587 16.0358L5.68533 15.8383C5.28975 15.1899 4.99807 14.4875 4.81842 13.7506L4.76366 13.5261H2.58838V10.4739H4.7637L4.81846 10.2494C4.89361 9.94116 4.98971 9.63489 5.10413 9.33913L4.55541 9.12681C4.45962 9.37436 4.37572 9.62865 4.30507 9.88546H2V14.1145H4.305C4.48084 14.7541 4.73569 15.3679 5.06499 15.9446L3.43376 17.5759L6.4241 20.5662L8.05533 18.935C8.63206 19.2643 9.24582 19.5191 9.8855 19.695V22H14.1145V19.695C14.7542 19.5191 15.3679 19.2643 15.9447 18.935L17.5759 20.5662L20.5662 17.5759L18.935 15.9446C19.2643 15.3679 19.5192 14.7541 19.695 14.1145H22V14.1145Z" fill="currentColor"/>
<path d="M8.34228 15.6232L8.76027 15.2091C7.9088 14.3496 7.4399 13.2099 7.4399 12C7.4399 9.48562 9.4855 7.44003 11.9999 7.44003C14.5143 7.44003 16.5599 9.48562 16.5599 12C16.5599 14.5144 14.5143 16.56 11.9999 16.56C10.9633 16.56 9.98653 16.2211 9.17515 15.5799L8.81036 16.0416C9.72666 16.7656 10.8296 17.1484 11.9999 17.1484C14.8387 17.1484 17.1482 14.8388 17.1482 12C17.1482 9.16119 14.8387 6.85168 11.9999 6.85168C9.16111 6.85168 6.85156 9.16123 6.85156 12C6.85156 13.3661 7.38099 14.6528 8.34228 15.6232Z" fill="currentColor"/>
<path d="M10.6611 11.6515L10.1841 11.996L11.4395 13.7341L13.8027 10.9333L13.3529 10.5538L11.4755 12.779L10.6611 11.6515Z" fill="currentColor"/>
<path d="M15.4527 12.7395C15.5042 12.4979 15.5303 12.2491 15.5303 12C15.5303 10.0534 13.9466 8.46973 12 8.46973C10.0534 8.46973 8.46973 10.0534 8.46973 12C8.46973 13.9466 10.0534 15.5303 12 15.5303C13.4326 15.5303 14.7131 14.6752 15.2621 13.352L14.7186 13.1266C14.2611 14.2293 13.1939 14.9419 12 14.9419C10.3778 14.9419 9.05811 13.6222 9.05811 12C9.05811 10.3778 10.3778 9.05811 12 9.05811C13.6222 9.05811 14.9419 10.3778 14.9419 12C14.9419 12.2079 14.9201 12.4154 14.8772 12.6168L15.4527 12.7395Z" fill="currentColor"/>
<path d="M9.5911 6.15149C9.40192 6.2297 9.21423 6.31828 9.0332 6.41477L9.31002 6.93396C9.47417 6.84644 9.64437 6.76611 9.81591 6.69523L9.5911 6.15149Z" fill="currentColor"/>
<path d="M10.7711 5.7948C10.57 5.83457 10.3685 5.88478 10.1724 5.94409L10.3427 6.50729C10.5204 6.45351 10.703 6.40801 10.8853 6.37196L10.7711 5.7948Z" fill="currentColor"/>
<path d="M8.82998 7.22097L8.50393 6.7312C8.3335 6.84468 8.16656 6.96789 8.00781 7.09741L8.37975 7.55329C8.52382 7.43577 8.67527 7.32394 8.82998 7.22097Z" fill="currentColor"/>
</g>
<defs>
<clipPath id="clip0_304_2000">
<rect width="20" height="20" fill="white" transform="translate(2 2)"/>
</clipPath>
</defs>
</svg>
