<svg viewBox="0 0 24 24" fill="none" xmlns="http://www.w3.org/2000/svg">
<g clip-path="url(#clip0_304_1999)">
<path d="M13.9355 18.7742C13.402 18.7742 12.9678 19.2084 12.9678 19.7419C12.9678 20.2755 13.402 20.7097 13.9355 20.7097C14.4691 20.7097 14.9033 20.2755 14.9033 19.7419C14.9033 19.2084 14.4691 18.7742 13.9355 18.7742ZM13.9355 20.0645C13.7578 20.0645 13.6129 19.92 13.6129 19.7419C13.6129 19.5638 13.7578 19.4193 13.9355 19.4193C14.1133 19.4193 14.2581 19.5638 14.2581 19.7419C14.2581 19.92 14.1133 20.0645 13.9355 20.0645Z" fill="currentColor"/>
<path d="M6.19333 18.7742C5.65978 18.7742 5.22559 19.2084 5.22559 19.7419C5.22559 20.2755 5.65978 20.7097 6.19333 20.7097C6.72688 20.7097 7.16107 20.2755 7.16107 19.7419C7.16107 19.2084 6.72688 18.7742 6.19333 18.7742ZM6.19333 20.0645C6.01559 20.0645 5.87075 19.92 5.87075 19.7419C5.87075 19.5638 6.01559 19.4193 6.19333 19.4193C6.37107 19.4193 6.51591 19.5638 6.51591 19.7419C6.51591 19.92 6.37107 20.0645 6.19333 20.0645Z" fill="currentColor"/>
<path d="M6.83884 7.16131C7.37238 7.16131 7.80658 6.72712 7.80658 6.19357C7.80658 5.66002 7.37238 5.22583 6.83884 5.22583C6.30529 5.22583 5.87109 5.66002 5.87109 6.19357C5.87109 6.72712 6.30529 7.16131 6.83884 7.16131ZM6.83884 5.87099C7.01658 5.87099 7.16142 6.01551 7.16142 6.19357C7.16142 6.37164 7.01658 6.51615 6.83884 6.51615C6.66109 6.51615 6.51626 6.37164 6.51626 6.19357C6.51626 6.01551 6.66109 5.87099 6.83884 5.87099Z" fill="currentColor"/>
<path d="M19.7422 13.6129C19.2086 13.6129 18.7744 14.0471 18.7744 14.5807C18.7744 15.1142 19.2086 15.5484 19.7422 15.5484C20.2757 15.5484 20.7099 15.1142 20.7099 14.5807C20.7099 14.0471 20.2757 13.6129 19.7422 13.6129ZM19.7422 14.9032C19.5644 14.9032 19.4196 14.7587 19.4196 14.5807C19.4196 14.4026 19.5644 14.2581 19.7422 14.2581C19.9199 14.2581 20.0647 14.4026 20.0647 14.5807C20.0647 14.7587 19.9199 14.9032 19.7422 14.9032Z" fill="currentColor"/>
<path d="M20.0503 12.3461C20.0552 12.2306 20.0645 12.1152 20.0645 12C20.0645 10.5297 19.6632 9.10032 18.9097 7.84839C19.2397 7.26774 19.4194 6.60548 19.4194 5.93419V5.87097C19.4194 3.73645 17.6829 2 15.5484 2C14.1168 2 12.8668 2.78323 12.1971 3.94194C10.9465 3.91323 9.67677 4.18 8.54323 4.7171C8.12871 4.23935 7.51903 3.93548 6.83871 3.93548C5.59355 3.93548 4.58065 4.94871 4.58065 6.19355C4.58065 6.67935 4.74129 7.16032 5.03226 7.54806L5.16581 7.72613C4.42032 8.91613 4.0029 10.2706 3.94742 11.6774H3.29032C2.93452 11.6774 2.64516 11.9668 2.64516 12.3226V18.7742C2.28935 18.7742 2 19.0635 2 19.4194V20.0645C2 20.4203 2.28935 20.7097 2.64516 20.7097H4.15645C4.51968 21.4713 5.29516 22 6.19355 22C7.09194 22 7.86742 21.4713 8.23065 20.7097H11.8984C12.2616 21.4713 13.0371 22 13.9355 22C14.8339 22 15.6094 21.4713 15.9726 20.7097H16.8387C17.1945 20.7097 17.4839 20.4203 17.4839 20.0645V19.1761C17.4839 19.0974 17.4742 19.0187 17.4552 18.9413L17.2487 18.1155C17.7294 17.7029 18.1581 17.2377 18.5287 16.7261L19.7419 18.3442L21.5484 15.9355C21.8397 15.5474 22 15.0661 22 14.5806C22 13.4406 21.1497 12.4974 20.0503 12.3461ZM15.5484 2.64516C17.3271 2.64516 18.7742 4.09226 18.7742 5.87097V5.93387C18.7742 6.65323 18.5294 7.36129 18.0848 7.92677L15.5484 11.1555L13.0119 7.92677C12.5674 7.36129 12.3226 6.65355 12.3226 5.93387V5.87097C12.3226 4.09226 13.7697 2.64516 15.5484 2.64516ZM6.83871 4.58065C7.72806 4.58065 8.45161 5.30419 8.45161 6.19355C8.45161 6.54032 8.3371 6.88419 8.12903 7.16097L6.83871 8.88161L5.54839 7.16097C5.34032 6.88419 5.22581 6.54032 5.22581 6.19355C5.22581 5.30419 5.94935 4.58065 6.83871 4.58065ZM3.29032 12.3226H5.87097V14.78L7.48387 13.9735L9.09677 14.78V12.3226H11.6774V18.7742H8.23065C7.86742 18.0126 7.09194 17.4839 6.19355 17.4839C5.29516 17.4839 4.51968 18.0126 4.15645 18.7742H3.29032V12.3226ZM6.51613 12.3226H8.45161V13.7361L7.48387 13.2523L6.51613 13.7361V12.3226ZM12.3226 14.2581H15.3671C15.5152 14.2581 15.6442 14.3587 15.68 14.5023L15.7803 14.9032H14.2581C13.9023 14.9032 13.6129 15.1926 13.6129 15.5484V16.1935C13.6129 16.5494 13.9023 16.8387 14.2581 16.8387H16.2642L16.7481 18.7742H15.9726C15.6094 18.0126 14.8339 17.4839 13.9355 17.4839C13.3039 17.4839 12.7329 17.7452 12.3226 18.1648V14.2581ZM16.1029 16.1935H14.2581V15.5484H15.9416L16.1029 16.1935ZM2.64516 20.0645V19.4194H3.96129C3.94613 19.5252 3.93548 19.6323 3.93548 19.7419C3.93548 19.8516 3.94613 19.9587 3.96129 20.0645H2.64516ZM6.19355 21.3548C5.30419 21.3548 4.58065 20.6313 4.58065 19.7419C4.58065 18.8526 5.30419 18.129 6.19355 18.129C7.0829 18.129 7.80645 18.8526 7.80645 19.7419C7.80645 20.6313 7.0829 21.3548 6.19355 21.3548ZM8.42581 20.0645C8.44097 19.9587 8.45161 19.8516 8.45161 19.7419C8.45161 19.6323 8.44097 19.5252 8.42581 19.4194H11.7032C11.6881 19.5252 11.6774 19.6323 11.6774 19.7419C11.6774 19.8516 11.6881 19.9587 11.7032 20.0645H8.42581ZM13.9355 21.3548C13.0461 21.3548 12.3226 20.6313 12.3226 19.7419C12.3226 18.8526 13.0461 18.129 13.9355 18.129C14.8248 18.129 15.5484 18.8526 15.5484 19.7419C15.5484 20.6313 14.8248 21.3548 13.9355 21.3548ZM16.1677 20.0645C16.1829 19.9587 16.1935 19.8516 16.1935 19.7419C16.1935 19.6323 16.1829 19.5252 16.1677 19.4194H16.8387V20.0645H16.1677ZM17.0726 17.4113L16.3061 14.3458C16.1981 13.9145 15.8119 13.6129 15.3671 13.6129H12.3226V12.3226C12.3226 11.9668 12.0332 11.6774 11.6774 11.6774H4.59226C4.64387 10.4755 4.98064 9.31548 5.58161 8.28097L6.83871 9.9571L8.64516 7.54839C8.93645 7.16032 9.09677 6.67903 9.09677 6.19355C9.09677 5.86161 9.0229 5.5471 8.89355 5.2629C9.83871 4.82516 10.8484 4.59677 11.9019 4.58355C11.7594 4.9871 11.6774 5.41903 11.6774 5.87097V5.93387C11.6774 6.79742 11.9713 7.6471 12.5045 8.32548L15.5484 12.1994L18.5065 8.43452C19.1042 9.52355 19.4194 10.7461 19.4194 12C19.4194 12.1165 19.4103 12.2335 19.4052 12.3506C18.3197 12.5142 17.4839 13.4503 17.4839 14.5806C17.4839 15.0665 17.6445 15.5474 17.9355 15.9352L18.1216 16.1835C17.8161 16.6297 17.4668 17.0419 17.0726 17.4113ZM21.0323 15.5481L19.7419 17.2687L18.4516 15.5481C18.2435 15.2713 18.129 14.9274 18.129 14.5806C18.129 13.6913 18.8526 12.9677 19.7419 12.9677C20.6313 12.9677 21.3548 13.6913 21.3548 14.5806C21.3548 14.9274 21.2403 15.2713 21.0323 15.5481Z" fill="currentColor"/>
<path d="M15.5484 8.45157C16.9713 8.45157 18.1291 7.29383 18.1291 5.87093C18.1291 4.44803 16.9713 3.29028 15.5484 3.29028C14.1255 3.29028 12.9678 4.44803 12.9678 5.87093C12.9678 7.29383 14.1255 8.45157 15.5484 8.45157ZM15.5484 3.93544C16.6158 3.93544 17.4839 4.80351 17.4839 5.87093C17.4839 6.93835 16.6158 7.80641 15.5484 7.80641C14.481 7.80641 13.6129 6.93835 13.6129 5.87093C13.6129 4.80351 14.481 3.93544 15.5484 3.93544Z" fill="currentColor"/>
<path d="M9.7417 10.3871H10.3869V11.0322H9.7417V10.3871Z" fill="currentColor"/>
<path d="M11.0322 10.3871H11.6774V11.0322H11.0322V10.3871Z" fill="currentColor"/>
<path d="M12.3228 10.3871H12.9679V11.0322H12.3228V10.3871Z" fill="currentColor"/>
</g>
<defs>
<clipPath id="clip0_304_1999">
<rect width="20" height="20" fill="white" transform="translate(2 2)"/>
</clipPath>
</defs>
</svg>
