<svg viewBox="0 0 24 24" fill="none" xmlns="http://www.w3.org/2000/svg">
<path d="M21.6875 4.03408H21.6869V3.09314C21.6869 2.92033 21.5472 2.78064 21.3744 2.78064C21.2016 2.78064 21.0619 2.92033 21.0619 3.09314H17.9372C17.9372 2.92033 17.7975 2.78064 17.6247 2.78064C17.4519 2.78064 17.3122 2.92033 17.3122 3.09314H14.1875C14.1875 2.92033 14.0478 2.78064 13.875 2.78064C13.7022 2.78064 13.5625 2.92033 13.5625 3.09314H10.4378C10.4378 2.92033 10.2981 2.78064 10.1253 2.78064C9.9525 2.78064 9.81281 2.92033 9.81281 3.09314H6.68813C6.68813 2.92033 6.54844 2.78064 6.37563 2.78064C6.20281 2.78064 6.06313 2.92033 6.06313 3.09314H2.93844C2.93844 2.92033 2.79875 2.78064 2.62594 2.78064C2.45312 2.78064 2.31344 2.92033 2.31344 3.09314V4.03408H2.3125C2.13969 4.03408 2 4.17376 2 4.34658V5.90908C2 6.08189 2.13969 6.22158 2.3125 6.22158H2.31281V8.09408H2.3125C2.13969 8.09408 2 8.23376 2 8.40658C2 8.57939 2.13969 8.71908 2.3125 8.71908H2.31281V9.96908H2.3125C2.13969 9.96908 2 10.1088 2 10.2816C2 10.4544 2.13969 10.5941 2.3125 10.5941H2.31281V11.8441H2.3125C2.13969 11.8441 2 11.9838 2 12.1566C2 12.3294 2.13969 12.4691 2.3125 12.4691H2.31281V13.7191H2.3125C2.13969 13.7191 2 13.8588 2 14.0316C2 14.2044 2.13969 14.3441 2.3125 14.3441H2.31281V15.5941H2.3125C2.13969 15.5941 2 15.7338 2 15.9066C2 16.0794 2.13969 16.2191 2.3125 16.2191H2.31281V17.4691H2.3125C2.13969 17.4691 2 17.6088 2 17.7816C2 17.9544 2.13969 18.0941 2.3125 18.0941H2.31281V19.3441H2.3125C2.13969 19.3441 2 19.4838 2 19.6566C2 19.8294 2.13969 19.9691 2.3125 19.9691H2.31281V20.5944H2.3125C2.13969 20.5944 2 20.7341 2 20.9069C2 21.0797 2.13969 21.2194 2.3125 21.2194H5.125H8.56219H11.9994H15.4366H18.8737H21.6872C21.86 21.2194 21.9997 21.0797 21.9997 20.9069C21.9997 20.7341 21.86 20.5944 21.6872 20.5944H21.6869V6.22158H21.6875C21.8603 6.22158 22 6.08189 22 5.90908V4.34658C22 4.17376 21.8603 4.03408 21.6875 4.03408ZM17.9372 3.71814H21.0619V4.03408H17.9372V3.71814ZM14.1875 3.71814H17.3122V4.03408H14.1875V3.71814ZM10.4378 3.71814H13.5625V4.03408H10.4378V3.71814ZM6.68813 3.71814H9.81281V4.03408H6.68813V3.71814ZM2.93844 3.71814H6.06313V4.03408H2.93844V3.71814ZM3.875 20.5944H2.93781V6.22158H3.875V20.5944ZM8.24969 20.5944H5.4375V17.4694H8.24969V20.5944ZM8.24969 14.6591V16.8444H5.4375V13.7194H8.24969V14.6591ZM8.24969 13.0944H5.125C4.95219 13.0944 4.8125 13.2341 4.8125 13.4069V17.1569V20.5944H4.5V6.22158H8.5625V8.71939V9.34439H7.9375C7.76469 9.34439 7.625 9.48408 7.625 9.65689V10.9069C7.625 11.0797 7.76469 11.2194 7.9375 11.2194H8.24969V13.0944ZM11.6869 20.5944H8.87469V17.4694H11.6869V20.5944ZM11.6869 16.8444H8.87469V14.9716H11.6869V16.8444ZM11.6869 13.4069V14.3466H8.87469V13.4069V11.2194H11.6869V13.4069ZM8.25 10.5944V9.96939H12.3125V10.5944H8.25ZM11.375 9.03189V9.34439H9.1875V9.03189H11.375ZM9.1875 8.40689V6.22158H9.5V8.40689H9.1875ZM10.125 8.40689V6.22158H10.4375V8.40689H10.125ZM11.0625 8.40689V6.22158H11.375V8.40689H11.0625ZM15.1241 20.5944H12.3119V17.4694H15.1241V20.5944ZM15.1241 16.8444H12.3119V14.6591V13.7194H15.1241V16.8444ZM18.5612 20.5944H15.7491V17.4694H18.5612V20.5944ZM18.5612 16.8444H15.7491V13.7194H18.5612V16.8444ZM19.4997 20.5944H19.1862V17.1569V13.4069C19.1862 13.2341 19.0466 13.0944 18.8737 13.0944H15.4366H12.3119V11.2194H12.625C12.7978 11.2194 12.9375 11.0797 12.9375 10.9069V9.65689C12.9375 9.48408 12.7978 9.34439 12.625 9.34439H12V8.71939V6.22158H19.4997V20.5944ZM21.0619 20.5944H20.1247V6.22158H21.0619V20.5944ZM21.375 5.59658H2.625V4.65908H21.375V5.59658Z" fill="currentColor"/>
<path d="M6.37549 20.2819C6.5483 20.2819 6.68799 20.1422 6.68799 19.9694V18.0944C6.68799 17.9215 6.5483 17.7819 6.37549 17.7819C6.20268 17.7819 6.06299 17.9215 6.06299 18.0944V19.9694C6.06299 20.1422 6.20268 20.2819 6.37549 20.2819Z" fill="currentColor"/>
<path d="M7.31299 20.2819C7.4858 20.2819 7.62549 20.1422 7.62549 19.9694V18.0944C7.62549 17.9215 7.4858 17.7819 7.31299 17.7819C7.14018 17.7819 7.00049 17.9215 7.00049 18.0944V19.9694C7.00049 20.1422 7.14018 20.2819 7.31299 20.2819Z" fill="currentColor"/>
<path d="M6.37549 16.5319C6.5483 16.5319 6.68799 16.3922 6.68799 16.2194V14.3444C6.68799 14.1715 6.5483 14.0319 6.37549 14.0319C6.20268 14.0319 6.06299 14.1715 6.06299 14.3444V16.2194C6.06299 16.3922 6.20268 16.5319 6.37549 16.5319Z" fill="currentColor"/>
<path d="M7.31299 16.5319C7.4858 16.5319 7.62549 16.3922 7.62549 16.2194V14.3444C7.62549 14.1715 7.4858 14.0319 7.31299 14.0319C7.14018 14.0319 7.00049 14.1715 7.00049 14.3444V16.2194C7.00049 16.3922 7.14018 16.5319 7.31299 16.5319Z" fill="currentColor"/>
<path d="M9.8125 14.0341C9.98531 14.0341 10.125 13.8944 10.125 13.7216V11.8466C10.125 11.6737 9.98531 11.5341 9.8125 11.5341C9.63969 11.5341 9.5 11.6737 9.5 11.8466V13.7216C9.5 13.8944 9.63969 14.0341 9.8125 14.0341Z" fill="currentColor"/>
<path d="M10.75 14.0341C10.9228 14.0341 11.0625 13.8944 11.0625 13.7216V11.8466C11.0625 11.6737 10.9228 11.5341 10.75 11.5341C10.5772 11.5341 10.4375 11.6737 10.4375 11.8466V13.7216C10.4375 13.8944 10.5772 14.0341 10.75 14.0341Z" fill="currentColor"/>
<path d="M9.81201 20.2819C9.98482 20.2819 10.1245 20.1422 10.1245 19.9694V18.0944C10.1245 17.9215 9.98482 17.7819 9.81201 17.7819C9.6392 17.7819 9.49951 17.9215 9.49951 18.0944V19.9694C9.49951 20.1422 9.6392 20.2819 9.81201 20.2819Z" fill="currentColor"/>
<path d="M10.7495 20.2819C10.9223 20.2819 11.062 20.1422 11.062 19.9694V18.0944C11.062 17.9215 10.9223 17.7819 10.7495 17.7819C10.5767 17.7819 10.437 17.9215 10.437 18.0944V19.9694C10.437 20.1422 10.5767 20.2819 10.7495 20.2819Z" fill="currentColor"/>
<path d="M13.249 20.2819C13.4218 20.2819 13.5615 20.1422 13.5615 19.9694V18.0944C13.5615 17.9215 13.4218 17.7819 13.249 17.7819C13.0762 17.7819 12.9365 17.9215 12.9365 18.0944V19.9694C12.9365 20.1422 13.0762 20.2819 13.249 20.2819Z" fill="currentColor"/>
<path d="M14.1865 20.2819C14.3593 20.2819 14.499 20.1422 14.499 19.9694V18.0944C14.499 17.9215 14.3593 17.7819 14.1865 17.7819C14.0137 17.7819 13.874 17.9215 13.874 18.0944V19.9694C13.874 20.1422 14.0137 20.2819 14.1865 20.2819Z" fill="currentColor"/>
<path d="M16.686 20.2819C16.8588 20.2819 16.9985 20.1422 16.9985 19.9694V18.0944C16.9985 17.9215 16.8588 17.7819 16.686 17.7819C16.5132 17.7819 16.3735 17.9215 16.3735 18.0944V19.9694C16.3735 20.1422 16.5132 20.2819 16.686 20.2819Z" fill="currentColor"/>
<path d="M17.6235 20.2819C17.7963 20.2819 17.936 20.1422 17.936 19.9694V18.0944C17.936 17.9215 17.7963 17.7819 17.6235 17.7819C17.4507 17.7819 17.311 17.9215 17.311 18.0944V19.9694C17.311 20.1422 17.4507 20.2819 17.6235 20.2819Z" fill="currentColor"/>
<path d="M13.249 16.5319C13.4218 16.5319 13.5615 16.3922 13.5615 16.2194V14.3444C13.5615 14.1715 13.4218 14.0319 13.249 14.0319C13.0762 14.0319 12.9365 14.1715 12.9365 14.3444V16.2194C12.9365 16.3922 13.0762 16.5319 13.249 16.5319Z" fill="currentColor"/>
<path d="M14.1865 16.5319C14.3593 16.5319 14.499 16.3922 14.499 16.2194V14.3444C14.499 14.1715 14.3593 14.0319 14.1865 14.0319C14.0137 14.0319 13.874 14.1715 13.874 14.3444V16.2194C13.874 16.3922 14.0137 16.5319 14.1865 16.5319Z" fill="currentColor"/>
<path d="M16.686 16.5319C16.8588 16.5319 16.9985 16.3922 16.9985 16.2194V14.3444C16.9985 14.1715 16.8588 14.0319 16.686 14.0319C16.5132 14.0319 16.3735 14.1715 16.3735 14.3444V16.2194C16.3735 16.3922 16.5132 16.5319 16.686 16.5319Z" fill="currentColor"/>
<path d="M17.6235 16.5319C17.7963 16.5319 17.936 16.3922 17.936 16.2194V14.3444C17.936 14.1715 17.7963 14.0319 17.6235 14.0319C17.4507 14.0319 17.311 14.1715 17.311 14.3444V16.2194C17.311 16.3922 17.4507 16.5319 17.6235 16.5319Z" fill="currentColor"/>
</svg>
