<svg viewBox="0 0 24 24" fill="none" xmlns="http://www.w3.org/2000/svg">
<path d="M21.3158 7.41238L16.2205 2.11789C16.148 2.04258 16.0479 2 15.9434 2H8.34926C7.49938 2 6.80793 2.69117 6.80793 3.5407V8.92309H3.73031C3.09445 8.92309 2.57715 9.44023 2.57715 10.0759V15.8472C2.57715 16.4829 3.09445 17 3.73031 17H6.80793V20.462C6.80793 21.31 7.49938 22 8.34926 22H19.882C20.7319 22 21.4233 21.3104 21.4233 20.4629V7.6791C21.4233 7.57965 21.3848 7.48406 21.3158 7.41238ZM16.0387 3.03832L20.2215 7.38461H16.0387V3.03832ZM3.73031 16.2308C3.51859 16.2308 3.34641 16.0587 3.34641 15.8472V10.0759C3.34641 9.86441 3.51863 9.6923 3.73031 9.6923H14.1163C14.328 9.6923 14.5002 9.86441 14.5002 10.0759V15.8472C14.5002 16.0587 14.328 16.2308 14.1163 16.2308H3.73031ZM20.6541 20.4629C20.6541 20.8863 20.3077 21.2308 19.882 21.2308H8.34926C7.92352 21.2308 7.57715 20.8859 7.57715 20.462V17H14.1163C14.7522 17 15.2695 16.4829 15.2695 15.8472V10.0759C15.2695 9.44023 14.7522 8.92309 14.1163 8.92309H7.57715V3.5407C7.57715 3.11527 7.92352 2.76922 8.34926 2.76922H15.2695V7.76922C15.2695 7.98164 15.4417 8.15383 15.6541 8.15383H20.6541V20.4629Z" fill="currentColor"/>
<path d="M7.1752 11.7615C7.0475 11.5955 6.88898 11.4877 6.69969 11.4381C6.57648 11.4051 6.31207 11.3885 5.90641 11.3885H4.83594V14.6923H5.50301V13.4461H5.93797C6.23996 13.4461 6.47059 13.4303 6.62984 13.3987C6.74703 13.3732 6.86234 13.321 6.97578 13.2421C7.08922 13.1632 7.18273 13.0547 7.25637 12.9165C7.33 12.7783 7.3668 12.6077 7.3668 12.4049C7.36676 12.142 7.30289 11.9275 7.1752 11.7615ZM6.60391 12.6709C6.55359 12.7445 6.4841 12.7985 6.39543 12.8331C6.30676 12.8677 6.13102 12.885 5.86809 12.885H5.50301V11.9475H5.82527C6.06566 11.9475 6.22566 11.955 6.30527 11.97C6.41344 11.9895 6.50285 12.0384 6.57344 12.1165C6.64406 12.1946 6.67938 12.2938 6.67938 12.4139C6.67941 12.5116 6.65422 12.5972 6.60391 12.6709Z" fill="currentColor"/>
<path d="M10.5736 12.2911C10.5015 12.08 10.3963 11.9016 10.2581 11.7559C10.1199 11.6102 9.95387 11.5087 9.76008 11.4516C9.61586 11.4096 9.40625 11.3885 9.13133 11.3885H7.91211V14.6923H9.16738C9.41379 14.6923 9.61059 14.6691 9.75781 14.6225C9.95465 14.5594 10.1109 14.4715 10.2266 14.3588C10.3798 14.21 10.4977 14.0155 10.5804 13.7751C10.648 13.5783 10.6818 13.3439 10.6818 13.072C10.6818 12.7625 10.6457 12.5022 10.5736 12.2911ZM9.92457 13.6478C9.87949 13.7958 9.82129 13.9021 9.74992 13.9667C9.67855 14.0313 9.58879 14.0771 9.48063 14.1041C9.39801 14.1252 9.26352 14.1357 9.07723 14.1357H8.57918V11.9475H8.87891C9.15082 11.9475 9.3334 11.958 9.42652 11.979C9.55121 12.0061 9.65414 12.0579 9.73527 12.1345C9.81641 12.2112 9.87949 12.3178 9.92457 12.4545C9.96965 12.5912 9.99219 12.7873 9.99219 13.0427C9.99219 13.2981 9.96965 13.4998 9.92457 13.6478Z" fill="currentColor"/>
<path d="M13.5168 11.9475V11.3885H11.252V14.6923H11.919V13.2884H13.2982V12.7294H11.919V11.9475H13.5168Z" fill="currentColor"/>
</svg>
