<svg viewBox="0 0 24 24" fill="none" xmlns="http://www.w3.org/2000/svg">
<path d="M11.2391 19.3913H9.76025V9.82609H10.1828C10.3095 9.82609 10.394 9.73913 10.394 9.6087V8.52174H17.9993V9.6087C17.9993 9.73913 18.0838 9.82609 18.2106 9.82609H18.8443V11.0217L16.1825 13.1304C16.1191 13.1957 16.0769 13.2826 16.1191 13.3696C16.1402 13.4565 16.2247 13.5217 16.3092 13.5217H21.8019C21.8864 13.5217 21.971 13.4565 21.9921 13.3696C22.0132 13.2826 21.9921 13.1739 21.9287 13.1304L19.2669 11.0217V9.82609H19.9006C20.0274 9.82609 20.1119 9.73913 20.1119 9.6087V8.52174H20.3231C20.4499 8.52174 20.5344 8.43478 20.5344 8.30435V7.21739V7.19565C20.5344 7.17391 20.5344 7.15217 20.5133 7.15217C20.5133 7.15217 20.5133 7.13043 20.4921 7.13043C20.4921 7.1087 20.471 7.1087 20.471 7.08696L20.4499 7.06522C20.4288 7.06522 20.4288 7.04348 20.4076 7.04348L7.94343 2.04348C7.94343 2.04348 7.94343 2.04348 7.92231 2.04348C7.90118 2.04348 7.90118 2.04348 7.88006 2.04348C7.85893 2 7.85893 2 7.8378 2C7.8378 2 7.8378 2 7.81668 2C7.73217 2 7.64767 2.06522 7.60542 2.15217L7.58429 2.19565L5.36609 5.13043L3.67602 7.30435L3.6549 7.32609C3.6549 7.32609 3.6549 7.34783 3.63377 7.34783C3.63377 7.3913 3.63377 7.41304 3.63377 7.43478V13.7391H3.21126C3.0845 13.7391 3 13.8261 3 13.9565V17C3 17.1304 3.0845 17.2174 3.21126 17.2174H4.4788C4.60556 17.2174 4.69006 17.1304 4.69006 17V13.9565C4.69006 13.8261 4.60556 13.7391 4.4788 13.7391H4.05629V8.06522L5.36609 9.76087C5.38721 9.78261 5.40834 9.78261 5.40834 9.80435C5.40834 9.80435 5.42946 9.80435 5.42946 9.82609C5.47172 9.82609 5.51397 9.82609 5.53509 9.82609H5.95761V19.3913H4.4788C4.35205 19.3913 4.26755 19.4783 4.26755 19.6087V21.7826C4.26755 21.913 4.35205 22 4.4788 22H11.2391C11.3658 22 11.4503 21.913 11.4503 21.7826V19.6087C11.4503 19.4783 11.3658 19.3913 11.2391 19.3913ZM16.9219 13.087L19.0556 11.413L21.1893 13.087H16.9219ZM4.26755 16.7826H3.42252V14.1739H4.26755V16.7826ZM9.33773 15.7609L8.15469 14.6087L9.33773 13.4565V15.7609ZM7.85893 14.3043L6.46463 12.9348L7.85893 11.5652L9.25323 12.9348L7.85893 14.3043ZM6.38013 13.4565L7.56317 14.6087L6.38013 15.7609V13.4565ZM7.85893 14.913L9.25323 16.2826L7.85893 17.6304L6.46463 16.2609L7.85893 14.913ZM9.33773 16.7826V19.087L8.15469 17.9348L9.33773 16.7826ZM8.15469 11.2826L9.33773 10.1304V12.4348L8.15469 11.2826ZM7.85893 10.9783L6.69701 9.82609H9.02085L7.85893 10.9783ZM7.56317 11.2826L6.38013 12.4348V10.1087L7.56317 11.2826ZM7.56317 17.9348L6.38013 19.1087V16.7826L7.56317 17.9348ZM7.85893 18.2391L9.02085 19.3913H6.69701L7.85893 18.2391ZM10.1828 5.04348H8.85184L8.15469 2.56522L18.6542 6.78261L10.394 5.71739V5.26087C10.394 5.13043 10.3095 5.04348 10.1828 5.04348ZM8.42933 5.04348H7.0984L7.81668 2.93478L8.42933 5.04348ZM7.0139 5.47826H9.97151V5.91304V8.08696H7.0139V5.47826ZM19.6894 9.3913H18.4218V8.52174H19.6894V9.3913ZM20.1119 8.08696H19.9006H18.2106H10.394V6.15217L20.1119 7.3913V8.08696ZM6.65476 5.04348H5.97874L7.20403 3.45652L6.65476 5.04348ZM5.32384 5.8913V9L4.11967 7.43478L5.32384 5.8913ZM5.74635 5.47826H6.59138V8.30435C6.59138 8.43478 6.67589 8.52174 6.80264 8.52174H9.97151V9.3913H9.54899H6.16887H5.74635V5.47826ZM11.0278 21.5652H4.69006V19.8261H6.16887H9.54899H11.0278V21.5652Z" fill="currentColor"/>
</svg>
