<svg viewBox="0 0 24 24" fill="none" xmlns="http://www.w3.org/2000/svg">
<path d="M20.125 12.625H18.9747C18.843 12.1426 18.6505 11.679 18.4019 11.2453L19.2162 10.4309C19.2748 10.3723 19.3077 10.2928 19.3077 10.21C19.3077 10.1271 19.2748 10.0476 19.2162 9.98902L17.7106 8.48371C17.6818 8.45386 17.6473 8.43005 17.6092 8.41368C17.5711 8.3973 17.5301 8.38868 17.4886 8.38832C17.4471 8.38796 17.4059 8.39586 17.3675 8.41158C17.3291 8.42729 17.2942 8.45049 17.2649 8.47984C17.2355 8.50918 17.2123 8.54407 17.1966 8.58247C17.1809 8.62088 17.173 8.66203 17.1734 8.70352C17.1737 8.74501 17.1823 8.78602 17.1987 8.82415C17.2151 8.86227 17.2389 8.89676 17.2688 8.92558L18.5534 10.21L17.7875 10.9762C17.7374 11.0263 17.7058 11.0918 17.6979 11.1621C17.6899 11.2325 17.7061 11.3034 17.7438 11.3634C18.0627 11.8684 18.2933 12.424 18.4256 13.0065C18.4413 13.0757 18.48 13.1375 18.5355 13.1817C18.5909 13.2259 18.6597 13.25 18.7306 13.25H19.8125V15.125H18.7306C18.6597 15.1249 18.5909 15.149 18.5355 15.1932C18.48 15.2375 18.4413 15.2992 18.4256 15.3684C18.2933 15.9509 18.0627 16.5065 17.7438 17.0115C17.7061 17.0715 17.6899 17.1424 17.6979 17.2128C17.7058 17.2831 17.7374 17.3487 17.7875 17.3987L18.5534 18.165L17.2275 19.4909L16.4613 18.725C16.4112 18.6748 16.3456 18.6432 16.2752 18.6352C16.2048 18.6273 16.1337 18.6435 16.0737 18.6812C15.5688 19.0003 15.0131 19.231 14.4306 19.3634C14.3615 19.3791 14.2998 19.4179 14.2556 19.4733C14.2115 19.5287 14.1874 19.5975 14.1875 19.6684V21.0625C14.1875 21.1453 14.2204 21.2248 14.279 21.2834C14.3376 21.342 14.4171 21.375 14.5 21.375C14.5829 21.375 14.6624 21.342 14.721 21.2834C14.7796 21.2248 14.8125 21.1453 14.8125 21.0625V19.9121C15.2949 19.7806 15.7585 19.5881 16.1922 19.3393L17.0066 20.1537C17.0652 20.2123 17.1446 20.2452 17.2275 20.2452C17.3104 20.2452 17.3898 20.2123 17.4484 20.1537L19.2162 18.3859C19.2748 18.3273 19.3077 18.2478 19.3077 18.165C19.3077 18.0821 19.2748 18.0026 19.2162 17.944L18.4019 17.1296C18.6505 16.6959 18.843 16.2323 18.9747 15.75H20.125C20.2079 15.75 20.2874 15.717 20.346 15.6584C20.4046 15.5998 20.4375 15.5203 20.4375 15.4375V12.9375C20.4375 12.8546 20.4046 12.7751 20.346 12.7165C20.2874 12.6579 20.2079 12.625 20.125 12.625Z" fill="currentColor"/>
<path d="M13.2502 20.75H12.3127V19.6684C12.3128 19.5976 12.2888 19.5288 12.2446 19.4734C12.2004 19.4179 12.1387 19.3792 12.0696 19.3634C11.4871 19.2311 10.9314 19.0004 10.4265 18.6813C10.3665 18.6435 10.2955 18.6273 10.225 18.6353C10.1546 18.6432 10.089 18.6749 10.039 18.725L9.27271 19.4909L7.94677 18.165L8.71271 17.3988C8.76278 17.3487 8.79437 17.2832 8.80232 17.2128C8.81027 17.1425 8.7941 17.0715 8.75646 17.0116C8.4375 16.5065 8.20681 15.9509 8.07427 15.3684C8.05861 15.2993 8.01993 15.2376 7.96456 15.1934C7.9092 15.1491 7.84045 15.125 7.76958 15.125H6.68771V13.25H7.76958C7.84045 13.25 7.9092 13.2259 7.96456 13.1817C8.01993 13.1374 8.05861 13.0757 8.07427 13.0066C8.20681 12.4241 8.4375 11.8685 8.75646 11.3634C8.7941 11.3035 8.81027 11.2325 8.80232 11.1622C8.79437 11.0919 8.76278 11.0263 8.71271 10.9763L7.94677 10.21L9.22802 8.92876C9.25787 8.89993 9.28168 8.86545 9.29805 8.82732C9.31443 8.78919 9.32305 8.74819 9.32341 8.70669C9.32377 8.6652 9.31587 8.62405 9.30015 8.58565C9.28444 8.54724 9.26124 8.51235 9.2319 8.48301C9.20255 8.45367 9.16766 8.43046 9.12926 8.41475C9.09085 8.39904 9.0497 8.39113 9.00821 8.39149C8.96672 8.39185 8.92571 8.40047 8.88758 8.41685C8.84946 8.43323 8.81497 8.45704 8.78615 8.48688L7.28615 9.98844C7.22756 10.047 7.19465 10.1265 7.19465 10.2094C7.19465 10.2922 7.22756 10.3717 7.28615 10.4303L8.10052 11.2447C7.85107 11.6785 7.65785 12.1424 7.52552 12.625H6.37521C6.29233 12.625 6.21284 12.6579 6.15424 12.7165C6.09563 12.7751 6.06271 12.8546 6.06271 12.9375V15.4375C6.06271 15.5204 6.09563 15.5999 6.15424 15.6585C6.21284 15.7171 6.29233 15.75 6.37521 15.75H7.52552C7.65721 16.2323 7.84969 16.6959 8.09833 17.1297L7.35615 17.8719C7.3393 17.5638 7.20885 17.2728 6.99001 17.0553C6.77116 16.8377 6.47945 16.709 6.17123 16.694C5.86301 16.6789 5.56016 16.7787 5.3212 16.9739C5.08223 17.1692 4.92411 17.4461 4.87739 17.7511C4.83067 18.0561 4.89865 18.3676 5.06821 18.6255C5.23778 18.8833 5.49688 19.0691 5.79546 19.147C6.09404 19.225 6.41091 19.1895 6.68485 19.0474C6.95878 18.9053 7.17034 18.6668 7.27865 18.3778C7.28083 18.3803 7.28177 18.3834 7.28396 18.3859L8.43771 19.5381L8.2374 19.885L7.80677 19.635C7.7528 19.6039 7.69076 19.5896 7.62862 19.594C7.56648 19.5984 7.50707 19.6213 7.45802 19.6597C7.29848 19.7847 7.12231 19.8868 6.93458 19.9631C6.87688 19.9865 6.82746 20.0265 6.79266 20.0781C6.75786 20.1297 6.73927 20.1906 6.73927 20.2528V20.75H5.48927V20.2541C5.48927 20.1918 5.47068 20.131 5.43588 20.0794C5.40108 20.0278 5.35166 19.9877 5.29396 19.9644C5.10614 19.8879 4.92987 19.7857 4.77021 19.6606C4.72116 19.6223 4.66179 19.5996 4.59971 19.5952C4.53764 19.5909 4.47568 19.6052 4.42177 19.6363L3.99115 19.8863L3.36615 18.8038L3.79708 18.5538C3.85071 18.5227 3.89391 18.4764 3.92117 18.4208C3.94844 18.3651 3.95854 18.3027 3.95021 18.2413C3.91897 18.0406 3.91897 17.8363 3.95021 17.6356C3.95854 17.5742 3.94844 17.5117 3.92117 17.4561C3.89391 17.4005 3.85071 17.3542 3.79708 17.3231L3.36615 17.0731L3.99115 15.9906L4.42177 16.2406C4.47568 16.2717 4.53764 16.286 4.59971 16.2817C4.66179 16.2773 4.72116 16.2546 4.77021 16.2163C4.92987 16.0912 5.10614 15.989 5.29396 15.9125C5.35166 15.8892 5.40108 15.8491 5.43588 15.7975C5.47068 15.7459 5.48927 15.6851 5.48927 15.6228V14.8125C5.48927 14.7296 5.45635 14.6501 5.39774 14.5915C5.33914 14.5329 5.25965 14.5 5.17677 14.5C5.09389 14.5 5.01441 14.5329 4.9558 14.5915C4.8972 14.6501 4.86427 14.7296 4.86427 14.8125V15.4194C4.759 15.4719 4.65714 15.531 4.55927 15.5963L4.03146 15.2925C3.95968 15.2511 3.87439 15.2398 3.79433 15.2613C3.71428 15.2827 3.64603 15.3351 3.60458 15.4069L2.66708 17.0319C2.62604 17.1035 2.61503 17.1885 2.63646 17.2683C2.6579 17.348 2.71002 17.4161 2.78146 17.4575L3.30708 17.7609C3.3024 17.8234 3.30021 17.8803 3.30021 17.9375C3.30021 17.9947 3.3024 18.0528 3.30708 18.1141L2.78146 18.4175C2.70986 18.4589 2.65761 18.5271 2.63617 18.607C2.61473 18.6869 2.62584 18.772 2.66708 18.8438L3.60458 20.4688C3.64603 20.5405 3.71428 20.5929 3.79433 20.6144C3.87439 20.6358 3.95968 20.6246 4.03146 20.5831L4.55771 20.2794C4.65557 20.3447 4.75744 20.4037 4.86271 20.4563V21.0625C4.86271 21.1454 4.89563 21.2249 4.95424 21.2835C5.01284 21.3421 5.09233 21.375 5.17521 21.375H7.05021C7.13309 21.375 7.21258 21.3421 7.27118 21.2835C7.32979 21.2249 7.36271 21.1454 7.36271 21.0625V20.4556C7.46812 20.4032 7.57009 20.3441 7.66802 20.2788L8.19396 20.5825C8.22951 20.6031 8.26877 20.6164 8.30949 20.6218C8.35021 20.6272 8.39159 20.6245 8.43126 20.6139C8.47094 20.6033 8.50813 20.5849 8.54071 20.5599C8.57329 20.5349 8.60063 20.5037 8.62115 20.4681L8.89396 19.9956L9.05177 20.1538C9.11037 20.2123 9.18985 20.2453 9.27271 20.2453C9.35557 20.2453 9.43504 20.2123 9.49365 20.1538L10.308 19.3394C10.7417 19.5882 11.2053 19.7807 11.6877 19.9122V21.0625C11.6877 21.1454 11.7206 21.2249 11.7792 21.2835C11.8378 21.3421 11.9173 21.375 12.0002 21.375H13.2502C13.3331 21.375 13.4126 21.3421 13.4712 21.2835C13.5298 21.2249 13.5627 21.1454 13.5627 21.0625C13.5627 20.9796 13.5298 20.9001 13.4712 20.8415C13.4126 20.7829 13.3331 20.75 13.2502 20.75ZM6.11271 18.5625C5.9891 18.5625 5.86826 18.5259 5.76548 18.4572C5.6627 18.3885 5.58259 18.2909 5.53528 18.1767C5.48798 18.0625 5.4756 17.9368 5.49972 17.8156C5.52383 17.6943 5.58336 17.583 5.67077 17.4956C5.75818 17.4082 5.86954 17.3486 5.99078 17.3245C6.11202 17.3004 6.23768 17.3128 6.35189 17.3601C6.46609 17.4074 6.5637 17.4875 6.63238 17.5903C6.70105 17.6931 6.73771 17.8139 6.73771 17.9375C6.73771 18.1033 6.67186 18.2622 6.55465 18.3794C6.43744 18.4967 6.27847 18.5625 6.11271 18.5625Z" fill="currentColor"/>
<path d="M19.1875 4.1875C18.8353 4.18838 18.4885 4.27403 18.1764 4.4372C17.8643 4.60038 17.5961 4.83629 17.3944 5.125H16.6875V4.8125C16.6883 4.63118 16.6363 4.45355 16.5378 4.30131C16.4393 4.14908 16.2986 4.02882 16.1329 3.95524C15.9671 3.88166 15.7836 3.85794 15.6046 3.88698C15.4256 3.91601 15.259 3.99655 15.125 4.11875C14.9546 3.96199 14.7315 3.87499 14.5 3.87499C14.2685 3.87499 14.0454 3.96199 13.875 4.11875C13.7046 3.96199 13.4815 3.87499 13.25 3.87499C13.0185 3.87499 12.7954 3.96199 12.625 4.11875C12.491 3.99655 12.3244 3.91601 12.1454 3.88698C11.9664 3.85794 11.7829 3.88166 11.6171 3.95524C11.4514 4.02882 11.3107 4.14908 11.2122 4.30131C11.1137 4.45355 11.0617 4.63118 11.0625 4.8125V5.02812C10.9314 4.92421 10.7762 4.85506 10.6113 4.82709C10.4464 4.79912 10.2771 4.81324 10.1191 4.86813C9.97384 4.92105 9.84409 5.00933 9.74156 5.125H8.22781C8.15198 4.60463 7.89152 4.1289 7.49398 3.78466C7.09645 3.44043 6.58836 3.25065 6.0625 3.25H4.8125C4.23254 3.25066 3.67653 3.48134 3.26643 3.89143C2.85634 4.30153 2.62566 4.85754 2.625 5.4375C2.625 5.52038 2.65792 5.59987 2.71653 5.65847C2.77513 5.71708 2.85462 5.75 2.9375 5.75H4.8125C4.89538 5.75 4.97487 5.71708 5.03347 5.65847C5.09208 5.59987 5.125 5.52038 5.125 5.4375C5.125 5.35462 5.09208 5.27513 5.03347 5.21653C4.97487 5.15792 4.89538 5.125 4.8125 5.125H3.28125C3.35373 4.77229 3.54561 4.45536 3.82455 4.22765C4.10349 3.99995 4.45242 3.8754 4.8125 3.875H6.0625C6.47675 3.8755 6.87389 4.04028 7.16681 4.33319C7.45972 4.62611 7.6245 5.02325 7.625 5.4375C7.625 5.52038 7.65792 5.59987 7.71653 5.65847C7.77513 5.71708 7.85462 5.75 7.9375 5.75H9.5V7H7.9375C7.85462 7 7.77513 7.03292 7.71653 7.09153C7.65792 7.15013 7.625 7.22962 7.625 7.3125C7.6245 7.72675 7.45972 8.12389 7.16681 8.41681C6.87389 8.70972 6.47675 8.8745 6.0625 8.875H4.8125C4.45242 8.8746 4.10349 8.75005 3.82455 8.52235C3.54561 8.29464 3.35373 7.97771 3.28125 7.625H6.0625C6.14538 7.625 6.22487 7.59208 6.28347 7.53347C6.34208 7.47487 6.375 7.39538 6.375 7.3125V5.4375C6.375 5.35462 6.34208 5.27513 6.28347 5.21653C6.22487 5.15792 6.14538 5.125 6.0625 5.125C5.97962 5.125 5.90013 5.15792 5.84153 5.21653C5.78292 5.27513 5.75 5.35462 5.75 5.4375V7H2.9375C2.85462 7 2.77513 7.03292 2.71653 7.09153C2.65792 7.15013 2.625 7.22962 2.625 7.3125C2.62566 7.89246 2.85634 8.44847 3.26643 8.85857C3.67653 9.26866 4.23254 9.49934 4.8125 9.5H6.0625C6.58836 9.49935 7.09645 9.30958 7.49398 8.96534C7.89152 8.6211 8.15198 8.14537 8.22781 7.625H9.5V7.9375C9.49995 7.98598 9.51119 8.0338 9.53281 8.07719L10.75 10.5113V11.3997C10.2953 11.8072 9.94707 12.3196 9.73561 12.8924C9.52415 13.4652 9.45586 14.081 9.53668 14.6862C9.61751 15.2914 9.845 15.8677 10.1994 16.365C10.5537 16.8622 11.0242 17.2653 11.5699 17.5392C12.1156 17.8131 12.72 17.9495 13.3304 17.9365C13.9409 17.9236 14.5389 17.7616 15.0725 17.4648C15.6061 17.168 16.059 16.7453 16.392 16.2335C16.7249 15.7216 16.9277 15.1362 16.9828 14.5281C16.9867 14.4872 16.9824 14.4458 16.9703 14.4065C16.9581 14.3672 16.9383 14.3306 16.912 14.299C16.8857 14.2673 16.8534 14.2412 16.817 14.2221C16.7805 14.2029 16.7407 14.1912 16.6997 14.1875C16.6174 14.181 16.5358 14.207 16.4723 14.2599C16.4089 14.3128 16.3687 14.3885 16.3603 14.4706C16.3097 15.05 16.0983 15.6037 15.75 16.0694V12.3353C15.9772 12.6351 16.1473 12.974 16.2519 13.3353C16.2748 13.4147 16.3283 13.4817 16.4005 13.5217C16.4728 13.5618 16.5579 13.5716 16.6374 13.5491C16.7168 13.5265 16.7841 13.4734 16.8246 13.4014C16.865 13.3294 16.8753 13.2443 16.8531 13.1647C16.6607 12.4825 16.2781 11.8691 15.75 11.3962V10.5669L15.8647 10.4522C16.3648 9.95296 16.6579 9.28328 16.6853 8.57719C16.687 8.53615 16.6805 8.49519 16.6663 8.45665C16.6521 8.41811 16.6305 8.38273 16.6026 8.35256C16.5464 8.29161 16.4682 8.2555 16.3853 8.25219C16.3443 8.25055 16.3033 8.257 16.2648 8.27119C16.2262 8.28538 16.1909 8.30702 16.1607 8.33488C16.0997 8.39114 16.0636 8.46931 16.0603 8.55219C16.039 9.10119 15.811 9.62187 15.4222 10.01L15.2159 10.2162C15.187 10.2453 15.1641 10.2799 15.1485 10.3178C15.1329 10.3558 15.1249 10.3965 15.125 10.4375V16.6931C14.5232 17.1445 13.7788 17.3636 13.0285 17.3103C12.2781 17.2569 11.5722 16.9347 11.0403 16.4028C10.5084 15.8709 10.1862 15.165 10.1329 14.4147C10.0795 13.6643 10.2987 12.9199 10.75 12.3181V14.965C10.75 15.0479 10.7829 15.1274 10.8415 15.186C10.9001 15.2446 10.9796 15.2775 11.0625 15.2775C11.1454 15.2775 11.2249 15.2446 11.2835 15.186C11.3421 15.1274 11.375 15.0479 11.375 14.965V10.4375C11.375 10.389 11.3638 10.3412 11.3422 10.2978L10.125 7.86375V5.75C10.125 5.68572 10.1447 5.623 10.1817 5.57038C10.2186 5.51775 10.2708 5.47779 10.3313 5.45594C10.4938 5.3975 10.6813 5.47875 10.8472 5.67875C10.99 5.85746 11.0661 6.08033 11.0625 6.30906V7.625C11.0625 7.70788 11.0954 7.78737 11.154 7.84597C11.2126 7.90458 11.2921 7.9375 11.375 7.9375C11.7065 7.9375 12.0245 8.0692 12.2589 8.30362C12.4933 8.53804 12.625 8.85598 12.625 9.1875V10.4375C12.625 10.5204 12.6579 10.5999 12.7165 10.6585C12.7751 10.7171 12.8546 10.75 12.9375 10.75C13.0204 10.75 13.0999 10.7171 13.1585 10.6585C13.2171 10.5999 13.25 10.5204 13.25 10.4375V9.1875C13.25 8.91099 13.1888 8.63791 13.0707 8.38789C12.9525 8.13788 12.7805 7.91715 12.5669 7.74156C12.5869 7.72625 12.6062 7.71031 12.625 7.69375C12.7954 7.85051 13.0185 7.93751 13.25 7.93751C13.4815 7.93751 13.7046 7.85051 13.875 7.69375C14.0454 7.85051 14.2685 7.93751 14.5 7.93751C14.7315 7.93751 14.9546 7.85051 15.125 7.69375C15.259 7.81595 15.4256 7.89649 15.6046 7.92552C15.7836 7.95456 15.9671 7.93084 16.1329 7.85726C16.2986 7.78368 16.4393 7.66342 16.5378 7.51119C16.6363 7.35895 16.6883 7.18132 16.6875 7V5.75H17.5656C17.6204 5.74994 17.6742 5.73548 17.7217 5.70805C17.7691 5.68063 17.8085 5.64121 17.8359 5.59375C18.0079 5.29587 18.2734 5.06307 18.5912 4.93144C18.9089 4.79981 19.2613 4.77672 19.5935 4.86574C19.9257 4.95476 20.2193 5.15093 20.4287 5.42381C20.6381 5.69669 20.7516 6.03104 20.7516 6.375C20.7516 6.71896 20.6381 7.05331 20.4287 7.32619C20.2193 7.59907 19.9257 7.79524 19.5935 7.88426C19.2613 7.97328 18.9089 7.95019 18.5912 7.81856C18.2734 7.68693 18.0079 7.45413 17.8359 7.15625C17.7932 7.08716 17.7252 7.03743 17.6464 7.0176C17.5676 6.99778 17.4842 7.00943 17.4139 7.05007C17.3435 7.09071 17.2918 7.15716 17.2696 7.23532C17.2474 7.31348 17.2565 7.3972 17.295 7.46875C17.487 7.80136 17.7633 8.07755 18.0959 8.26955C18.4285 8.46155 18.8058 8.56258 19.1899 8.5625C19.574 8.56241 19.9513 8.46121 20.2838 8.26907C20.6164 8.07692 20.8925 7.80061 21.0843 7.46791C21.2762 7.13522 21.3771 6.75786 21.3769 6.37379C21.3767 5.98972 21.2754 5.61248 21.0831 5.28C20.8909 4.94751 20.6145 4.6715 20.2817 4.47972C19.949 4.28795 19.5716 4.18716 19.1875 4.1875ZM11.6875 4.8125C11.6875 4.72962 11.7204 4.65013 11.779 4.59153C11.8376 4.53292 11.9171 4.5 12 4.5C12.0829 4.5 12.1624 4.53292 12.221 4.59153C12.2796 4.65013 12.3125 4.72962 12.3125 4.8125V7C12.3125 7.08288 12.2796 7.16237 12.221 7.22097C12.1624 7.27958 12.0829 7.3125 12 7.3125C11.9171 7.3125 11.8376 7.27958 11.779 7.22097C11.7204 7.16237 11.6875 7.08288 11.6875 7V4.8125ZM13.25 7.3125C13.1671 7.3125 13.0876 7.27958 13.029 7.22097C12.9704 7.16237 12.9375 7.08288 12.9375 7V4.8125C12.9375 4.72962 12.9704 4.65013 13.029 4.59153C13.0876 4.53292 13.1671 4.5 13.25 4.5C13.3329 4.5 13.4124 4.53292 13.471 4.59153C13.5296 4.65013 13.5625 4.72962 13.5625 4.8125V7C13.5625 7.08288 13.5296 7.16237 13.471 7.22097C13.4124 7.27958 13.3329 7.3125 13.25 7.3125ZM14.5 7.3125C14.4171 7.3125 14.3376 7.27958 14.279 7.22097C14.2204 7.16237 14.1875 7.08288 14.1875 7V4.8125C14.1875 4.72962 14.2204 4.65013 14.279 4.59153C14.3376 4.53292 14.4171 4.5 14.5 4.5C14.5829 4.5 14.6624 4.53292 14.721 4.59153C14.7796 4.65013 14.8125 4.72962 14.8125 4.8125V7C14.8125 7.08288 14.7796 7.16237 14.721 7.22097C14.6624 7.27958 14.5829 7.3125 14.5 7.3125ZM16.0625 7C16.0625 7.08288 16.0296 7.16237 15.971 7.22097C15.9124 7.27958 15.8329 7.3125 15.75 7.3125C15.6671 7.3125 15.5876 7.27958 15.529 7.22097C15.4704 7.16237 15.4375 7.08288 15.4375 7V4.8125C15.4375 4.72962 15.4704 4.65013 15.529 4.59153C15.5876 4.53292 15.6671 4.5 15.75 4.5C15.8329 4.5 15.9124 4.53292 15.971 4.59153C16.0296 4.65013 16.0625 4.72962 16.0625 4.8125V7Z" fill="currentColor"/>
<path d="M19.1875 6.0625C19.2704 6.0625 19.3499 6.02958 19.4085 5.97097C19.4671 5.91237 19.5 5.83288 19.5 5.75C19.5 5.66712 19.4671 5.58763 19.4085 5.52903C19.3499 5.47042 19.2704 5.4375 19.1875 5.4375C19.0021 5.4375 18.8208 5.49248 18.6667 5.5955C18.5125 5.69851 18.3923 5.84493 18.3214 6.01623C18.2504 6.18754 18.2318 6.37604 18.268 6.5579C18.3042 6.73975 18.3935 6.9068 18.5246 7.03791C18.6557 7.16902 18.8227 7.25831 19.0046 7.29449C19.1865 7.33066 19.375 7.31209 19.5463 7.24114C19.7176 7.17018 19.864 7.05002 19.967 6.89585C20.07 6.74168 20.125 6.56042 20.125 6.375C20.125 6.29212 20.0921 6.21263 20.0335 6.15403C19.9749 6.09542 19.8954 6.0625 19.8125 6.0625C19.7296 6.0625 19.6501 6.09542 19.5915 6.15403C19.5329 6.21263 19.5 6.29212 19.5 6.375C19.5 6.43681 19.4817 6.49723 19.4473 6.54862C19.413 6.60001 19.3642 6.64006 19.3071 6.66371C19.25 6.68736 19.1872 6.69355 19.1265 6.6815C19.0659 6.66944 19.0102 6.63967 18.9665 6.59597C18.9228 6.55227 18.8931 6.49658 18.881 6.43597C18.8689 6.37535 18.8751 6.31251 18.8988 6.25541C18.9224 6.19831 18.9625 6.1495 19.0139 6.11517C19.0653 6.08083 19.1257 6.0625 19.1875 6.0625Z" fill="currentColor"/>
</svg>
