<svg viewBox="0 0 24 24" fill="none" xmlns="http://www.w3.org/2000/svg">
<g clip-path="url(#clip0_304_1998)">
<path d="M21.1094 16.0313C20.9435 15.7446 20.6709 15.5354 20.3511 15.4493C20.0313 15.3632 19.6905 15.4073 19.4031 15.5719L16.3562 17.3313C16.1899 17.0819 15.9391 16.9011 15.65 16.8219L10.9875 15.575C10.6287 15.4782 10.251 15.4749 9.89062 15.5656L8.25 15.975V15.4375C8.25 15.3546 8.21708 15.2751 8.15847 15.2165C8.09987 15.1579 8.02038 15.125 7.9375 15.125H5.4375C5.35462 15.125 5.27513 15.1579 5.21653 15.2165C5.15792 15.2751 5.125 15.3546 5.125 15.4375V15.75H2.9375C2.85462 15.75 2.77513 15.7829 2.71653 15.8415C2.65792 15.9001 2.625 15.9796 2.625 16.0625V20.4375C2.625 20.5204 2.65792 20.5999 2.71653 20.6585C2.77513 20.7171 2.85462 20.75 2.9375 20.75H5.125V21.0625C5.125 21.1454 5.15792 21.2249 5.21653 21.2835C5.27513 21.3421 5.35462 21.375 5.4375 21.375H7.9375C8.02038 21.375 8.09987 21.3421 8.15847 21.2835C8.21708 21.2249 8.25 21.1454 8.25 21.0625V20.6312L8.65313 20.8312C8.95704 20.9825 9.29176 21.0617 9.63125 21.0625H14.3094C14.6936 21.0633 15.0711 20.962 15.4031 20.7688L20.6531 17.7375C20.9391 17.571 21.1476 17.2981 21.2331 16.9785C21.3185 16.6588 21.2741 16.3183 21.1094 16.0313ZM5.125 20.125H3.25V16.375H5.125V20.125ZM7.625 20.75H5.75V15.75H7.625V20.75ZM20.3406 17.1969L15.0906 20.2281C14.8532 20.3655 14.5837 20.4378 14.3094 20.4375H9.63125C9.38815 20.438 9.14835 20.3813 8.93125 20.2719L8.25 19.9313V16.6187L10.0406 16.1719C10.2983 16.1067 10.5684 16.1089 10.825 16.1781L15.4875 17.4281C15.6075 17.4593 15.7154 17.5255 15.7974 17.6184C15.8795 17.7113 15.9319 17.8266 15.948 17.9494C15.9642 18.0723 15.9432 18.1972 15.8879 18.3081C15.8326 18.419 15.7454 18.5109 15.6375 18.5719C15.5671 18.6134 15.489 18.6404 15.4079 18.6511C15.3268 18.6618 15.2444 18.6562 15.1656 18.6344L11.4375 17.6344C11.3571 17.6128 11.2714 17.6241 11.1994 17.6657C11.1273 17.7073 11.0747 17.7759 11.0531 17.8563C11.0316 17.9366 11.0428 18.0223 11.0845 18.0944C11.1261 18.1665 11.1946 18.2191 11.275 18.2406L15.0031 19.2375C15.1091 19.266 15.2184 19.2807 15.3281 19.2812C15.5468 19.2816 15.7615 19.2233 15.95 19.1125C16.0928 19.0309 16.218 18.9218 16.3184 18.7914C16.4187 18.6611 16.4921 18.5121 16.5344 18.3531C16.569 18.2154 16.5807 18.0728 16.5687 17.9312L19.7156 16.1156C19.8592 16.0359 20.0282 16.0152 20.1868 16.0577C20.3454 16.1003 20.4812 16.2029 20.5656 16.3438C20.6486 16.4868 20.6715 16.6569 20.6294 16.8168C20.5872 16.9767 20.4834 17.1134 20.3406 17.1969Z" fill="currentColor"/>
<path d="M6.6875 20.4375C6.77038 20.4375 6.84987 20.4046 6.90847 20.346C6.96708 20.2874 7 20.2079 7 20.125V19.8125C7 19.7296 6.96708 19.6501 6.90847 19.5915C6.84987 19.5329 6.77038 19.5 6.6875 19.5C6.60462 19.5 6.52513 19.5329 6.46653 19.5915C6.40792 19.6501 6.375 19.7296 6.375 19.8125V20.125C6.375 20.2079 6.40792 20.2874 6.46653 20.346C6.52513 20.4046 6.60462 20.4375 6.6875 20.4375Z" fill="currentColor"/>
<path d="M16.375 7.3125H15.2031L15.1469 7.18125L15.9781 6.35313C16.0367 6.29412 16.0695 6.21437 16.0695 6.13125C16.0695 6.04813 16.0367 5.96838 15.9781 5.90938L14.6531 4.58438C14.5941 4.52583 14.5144 4.49297 14.4312 4.49297C14.3481 4.49297 14.2684 4.52583 14.2094 4.58438L13.3812 5.41563L13.25 5.35938V4.1875C13.25 4.10462 13.2171 4.02513 13.1585 3.96653C13.0999 3.90792 13.0204 3.875 12.9375 3.875H11.0625C10.9796 3.875 10.9001 3.90792 10.8415 3.96653C10.7829 4.02513 10.75 4.10462 10.75 4.1875V5.35938L10.6188 5.41563L9.79063 4.58438C9.73162 4.52583 9.65187 4.49297 9.56875 4.49297C9.48563 4.49297 9.40588 4.52583 9.34688 4.58438L8.02188 5.90938C7.96333 5.96838 7.93047 6.04813 7.93047 6.13125C7.93047 6.21437 7.96333 6.29412 8.02188 6.35313L8.85313 7.18125L8.79688 7.3125H7.625C7.54212 7.3125 7.46263 7.34542 7.40403 7.40403C7.34542 7.46263 7.3125 7.54212 7.3125 7.625V9.5C7.3125 9.58288 7.34542 9.66237 7.40403 9.72097C7.46263 9.77958 7.54212 9.8125 7.625 9.8125H8.79688L8.85313 9.94375L8.02188 10.7719C7.96431 10.8315 7.93187 10.9109 7.93125 10.9938C7.93246 11.0765 7.96482 11.1557 8.02188 11.2156L9.34688 12.5406C9.40646 12.5982 9.4859 12.6306 9.56875 12.6313C9.65148 12.63 9.73071 12.5977 9.79063 12.5406L10.6188 11.7094L10.75 11.7656V12.9375C10.75 13.0204 10.7829 13.0999 10.8415 13.1585C10.9001 13.2171 10.9796 13.25 11.0625 13.25H12.9375C13.0204 13.25 13.0999 13.2171 13.1585 13.1585C13.2171 13.0999 13.25 13.0204 13.25 12.9375V11.7656L13.3812 11.7094L14.2094 12.5406C14.2698 12.5964 14.349 12.6273 14.4312 12.6273C14.5135 12.6273 14.5927 12.5964 14.6531 12.5406L15.9781 11.2156C16.0352 11.1557 16.0675 11.0765 16.0688 10.9938C16.0681 10.9109 16.0357 10.8315 15.9781 10.7719L15.1469 9.94375L15.2031 9.8125H16.375C16.4579 9.8125 16.5374 9.77958 16.596 9.72097C16.6546 9.66237 16.6875 9.58288 16.6875 9.5V7.625C16.6875 7.54212 16.6546 7.46263 16.596 7.40403C16.5374 7.34542 16.4579 7.3125 16.375 7.3125ZM16.0625 9.1875H14.9813C14.9154 9.18755 14.8512 9.20843 14.7978 9.24715C14.7445 9.28588 14.7048 9.34047 14.6844 9.40313C14.6361 9.56013 14.5722 9.71192 14.4937 9.85625C14.4619 9.91582 14.4499 9.98401 14.4594 10.0509C14.469 10.1178 14.4996 10.1799 14.5469 10.2281L15.3156 10.9938L14.4312 11.8781L13.6656 11.1094C13.6174 11.0621 13.5553 11.0315 13.4884 11.0219C13.4215 11.0124 13.3533 11.0244 13.2937 11.0562C13.1494 11.1347 12.9976 11.1986 12.8406 11.2469C12.778 11.2673 12.7234 11.307 12.6847 11.3603C12.6459 11.4137 12.625 11.4779 12.625 11.5438V12.625H11.375V11.5438C11.375 11.4779 11.3541 11.4137 11.3153 11.3603C11.2766 11.307 11.222 11.2673 11.1594 11.2469C11.0024 11.1986 10.8506 11.1347 10.7063 11.0562C10.6467 11.0244 10.5785 11.0124 10.5116 11.0219C10.4447 11.0315 10.3826 11.0621 10.3344 11.1094L9.56875 11.8781L8.68437 10.9938L9.45312 10.2281C9.50039 10.1799 9.53103 10.1178 9.54058 10.0509C9.55014 9.98401 9.53811 9.91582 9.50625 9.85625C9.4278 9.71192 9.36394 9.56013 9.31562 9.40313C9.2952 9.34047 9.25548 9.28588 9.20217 9.24715C9.14885 9.20843 9.08465 9.18755 9.01875 9.1875H7.9375V7.9375H9.01875C9.08465 7.93745 9.14885 7.91657 9.20217 7.87785C9.25548 7.83912 9.2952 7.78453 9.31562 7.72187C9.36394 7.56487 9.4278 7.41308 9.50625 7.26875C9.53811 7.20918 9.55014 7.14099 9.54058 7.07411C9.53103 7.00723 9.50039 6.94514 9.45312 6.89687L8.68437 6.13125L9.56875 5.24688L10.3344 6.01562C10.3826 6.06289 10.4447 6.09353 10.5116 6.10309C10.5785 6.11264 10.6467 6.10061 10.7063 6.06875C10.8506 5.9903 11.0024 5.92644 11.1594 5.87812C11.222 5.8577 11.2766 5.81798 11.3153 5.76467C11.3541 5.71135 11.375 5.64715 11.375 5.58125V4.5H12.625V5.58125C12.625 5.64715 12.6459 5.71135 12.6847 5.76467C12.7234 5.81798 12.778 5.8577 12.8406 5.87812C12.9976 5.92644 13.1494 5.9903 13.2937 6.06875C13.3533 6.10061 13.4215 6.11264 13.4884 6.10309C13.5553 6.09353 13.6174 6.06289 13.6656 6.01562L14.4312 5.24688L15.3156 6.13125L14.5469 6.89687C14.4996 6.94514 14.469 7.00723 14.4594 7.07411C14.4499 7.14099 14.4619 7.20918 14.4937 7.26875C14.5722 7.41308 14.6361 7.56487 14.6844 7.72187C14.7048 7.78453 14.7445 7.83912 14.7978 7.87785C14.8512 7.91657 14.9154 7.93745 14.9813 7.9375H16.0625V9.1875Z" fill="currentColor"/>
<path d="M13.875 8.5625C13.875 8.19166 13.765 7.82915 13.559 7.52081C13.353 7.21246 13.0601 6.97214 12.7175 6.83023C12.3749 6.68831 11.9979 6.65118 11.6342 6.72353C11.2705 6.79588 10.9364 6.97445 10.6742 7.23668C10.412 7.4989 10.2334 7.83299 10.161 8.19671C10.0887 8.56042 10.1258 8.93742 10.2677 9.28003C10.4096 9.62264 10.65 9.91548 10.9583 10.1215C11.2666 10.3275 11.6292 10.4375 12 10.4375C12.4971 10.437 12.9738 10.2393 13.3253 9.88778C13.6768 9.53625 13.8745 9.05963 13.875 8.5625ZM10.75 8.5625C10.75 8.31527 10.8233 8.0736 10.9607 7.86804C11.098 7.66248 11.2932 7.50226 11.5216 7.40765C11.7501 7.31304 12.0014 7.28829 12.2439 7.33652C12.4863 7.38475 12.7091 7.5038 12.8839 7.67862C13.0587 7.85343 13.1778 8.07616 13.226 8.31864C13.2742 8.56111 13.2495 8.81245 13.1549 9.04085C13.0602 9.26926 12.9 9.46449 12.6945 9.60184C12.4889 9.73919 12.2472 9.8125 12 9.8125C11.6685 9.8125 11.3505 9.6808 11.1161 9.44638C10.8817 9.21196 10.75 8.89402 10.75 8.5625Z" fill="currentColor"/>
<path d="M19.1875 9.1875H18.5625C18.5625 7.44702 17.8711 5.77782 16.6404 4.54711C15.4097 3.3164 13.7405 2.625 12 2.625C10.2595 2.625 8.59032 3.3164 7.35961 4.54711C6.1289 5.77782 5.4375 7.44702 5.4375 9.1875H4.8125C4.31522 9.1875 3.83831 9.38504 3.48667 9.73667C3.13504 10.0883 2.9375 10.5652 2.9375 11.0625C2.9375 11.5598 3.13504 12.0367 3.48667 12.3883C3.83831 12.74 4.31522 12.9375 4.8125 12.9375H6.375C6.45788 12.9375 6.53737 12.9046 6.59597 12.846C6.65458 12.7874 6.6875 12.7079 6.6875 12.625V9.5C6.6875 9.41712 6.65458 9.33763 6.59597 9.27903C6.53737 9.22042 6.45788 9.1875 6.375 9.1875H6.0625C6.0625 7.61278 6.68806 6.10255 7.80155 4.98905C8.91505 3.87556 10.4253 3.25 12 3.25C13.5747 3.25 15.0849 3.87556 16.1984 4.98905C17.3119 6.10255 17.9375 7.61278 17.9375 9.1875H17.625C17.5421 9.1875 17.4626 9.22042 17.404 9.27903C17.3454 9.33763 17.3125 9.41712 17.3125 9.5V12.625C17.3125 12.7079 17.3454 12.7874 17.404 12.846C17.4626 12.9046 17.5421 12.9375 17.625 12.9375H17.9375V13.875C17.9375 13.9579 17.9046 14.0374 17.846 14.096C17.7874 14.1546 17.7079 14.1875 17.625 14.1875H15.3813C15.3164 14.0054 15.197 13.8477 15.0393 13.7359C14.8816 13.624 14.6933 13.5635 14.5 13.5625H13.875C13.6264 13.5625 13.3879 13.6613 13.2121 13.8371C13.0363 14.0129 12.9375 14.2514 12.9375 14.5C12.9375 14.7486 13.0363 14.9871 13.2121 15.1629C13.3879 15.3387 13.6264 15.4375 13.875 15.4375H14.5C14.6933 15.4365 14.8816 15.376 15.0393 15.2641C15.197 15.1523 15.3164 14.9946 15.3813 14.8125H17.625C17.8734 14.8118 18.1114 14.7127 18.2871 14.5371C18.4627 14.3614 18.5618 14.1234 18.5625 13.875V12.9375H19.1875C19.6848 12.9375 20.1617 12.74 20.5133 12.3883C20.865 12.0367 21.0625 11.5598 21.0625 11.0625C21.0625 10.5652 20.865 10.0883 20.5133 9.73667C20.1617 9.38504 19.6848 9.1875 19.1875 9.1875ZM4.8125 12.3125C4.48098 12.3125 4.16304 12.1808 3.92862 11.9464C3.6942 11.712 3.5625 11.394 3.5625 11.0625C3.5625 10.731 3.6942 10.413 3.92862 10.1786C4.16304 9.9442 4.48098 9.8125 4.8125 9.8125V12.3125ZM6.0625 12.3125H5.4375V9.8125H6.0625V12.3125ZM14.5 14.8125H13.875C13.7921 14.8125 13.7126 14.7796 13.654 14.721C13.5954 14.6624 13.5625 14.5829 13.5625 14.5C13.5625 14.4171 13.5954 14.3376 13.654 14.279C13.7126 14.2204 13.7921 14.1875 13.875 14.1875H14.5C14.5829 14.1875 14.6624 14.2204 14.721 14.279C14.7796 14.3376 14.8125 14.4171 14.8125 14.5C14.8125 14.5829 14.7796 14.6624 14.721 14.721C14.6624 14.7796 14.5829 14.8125 14.5 14.8125ZM18.5625 12.3125H17.9375V9.8125H18.5625V12.3125ZM19.1875 12.3125V9.8125C19.519 9.8125 19.837 9.9442 20.0714 10.1786C20.3058 10.413 20.4375 10.731 20.4375 11.0625C20.4375 11.394 20.3058 11.712 20.0714 11.9464C19.837 12.1808 19.519 12.3125 19.1875 12.3125Z" fill="currentColor"/>
</g>
<defs>
<clipPath id="clip0_304_1998">
<rect width="20" height="20" fill="white" transform="translate(2 2)"/>
</clipPath>
</defs>
</svg>
