<svg viewBox="0 0 24 24" fill="none" xmlns="http://www.w3.org/2000/svg">
<path d="M13.1736 15.5407L12.7658 15.949V14.0858C12.9915 14.0054 13.1536 13.7918 13.1536 13.5409V12.7368C13.1536 12.4172 12.8912 12.1572 12.5687 12.1572H5.37378C5.05124 12.1572 4.78886 12.4172 4.78886 12.7368V13.5409C4.78886 13.7918 4.95093 14.0054 5.1766 14.0858V17.4366L4.81351 17.8154H4.29046C4.16464 17.5196 3.86906 17.3114 3.52531 17.3114H2.83C2.37234 17.3114 2 17.6803 2 18.1338V21.1776C2 21.6311 2.37234 22 2.83 22H3.52531C3.86906 22 4.16461 21.7918 4.29043 21.496H10.1994C10.8976 21.496 11.5115 21.2367 11.9747 20.7463L15.8348 16.6599C16.2594 16.2104 16.2075 15.3827 15.7258 14.9233C15.4933 14.7014 14.6221 14.0905 13.1736 15.5407ZM11.3167 17.3998C11.2024 17.5143 11.0936 17.605 10.9846 17.6766C11.0096 17.5817 11.023 17.4822 11.023 17.3797C11.023 16.7936 10.5711 16.3035 9.97397 16.2171V14.1204H12.1408V16.5747L11.3167 17.3998ZM12.5286 13.5011H9.97397V12.7765H12.5286V13.5011ZM9.34897 12.7766V16.233C9.03858 16.2425 8.80342 16.2294 8.59346 16.2073V12.7765H9.34897V12.7766ZM5.80159 14.1205H7.96847V16.1252C7.83405 16.1086 7.69018 16.094 7.52593 16.0855C6.78159 16.0471 6.20909 16.4253 5.80159 16.7989V14.1205ZM5.41386 12.7766H7.96847V13.5012H5.41386V12.7766ZM3.73023 21.1776C3.73023 21.2876 3.63636 21.3807 3.52527 21.3807H2.82996C2.71883 21.3807 2.62496 21.2876 2.62496 21.1776V18.1338C2.62496 18.0237 2.71883 17.9307 2.82996 17.9307H3.52527C3.63636 17.9307 3.73023 18.0237 3.73023 18.1338V21.1776ZM15.3785 16.2366L11.5184 20.3231C11.1714 20.6904 10.7276 20.8766 10.1993 20.8766H4.35523V18.4348H4.94765C5.03331 18.4348 5.11523 18.3999 5.17421 18.3384L6.02027 17.4557C6.54296 16.9104 6.9969 16.6787 7.49351 16.7041C7.73804 16.7166 7.93179 16.744 8.1369 16.7731C8.55624 16.8325 8.98975 16.8938 9.8403 16.8251C10.1596 16.8501 10.3979 17.0855 10.3979 17.3797C10.3979 17.686 10.1465 17.9352 9.83741 17.9352C9.83713 17.9352 9.8369 17.9352 9.83666 17.9352H7.58448C7.4119 17.9352 7.27198 18.0739 7.27198 18.2449C7.27198 18.4159 7.4119 18.5546 7.58448 18.5546H9.83741C9.83768 18.5546 9.83795 18.5545 9.83823 18.5545C10.6195 18.5544 11.1574 18.4397 11.7609 17.8355L13.6178 15.9765C14.3237 15.2696 14.9497 15.0427 15.2924 15.3695C15.5283 15.5944 15.5718 16.0321 15.3785 16.2366ZM21.1536 3H20.4361C20.0867 3 19.7861 3.21092 19.657 3.51103H13.6246C12.907 3.51103 12.2761 3.77742 11.8 4.28141L10.118 6.06211H7.26745C7.18456 6.06211 7.10507 6.09475 7.04647 6.15281C6.98788 6.21091 6.95495 6.28964 6.95495 6.37178V11.2445C6.95495 11.4155 7.09487 11.5542 7.26745 11.5542H16.2672C16.4398 11.5542 16.5797 11.4155 16.5797 11.2445V8.75317C18.023 8.63666 18.625 8.1727 19.2138 7.28898H19.6498C19.7744 7.59861 20.0798 7.81809 20.4362 7.81809H21.1536C21.6203 7.81809 22 7.4418 22 6.97931V3.83877C22 3.37629 21.6203 3 21.1536 3ZM12.5387 8.98163C12.4584 9.33039 12.1419 9.59253 11.7673 9.59253C11.3309 9.59253 10.9758 9.24066 10.9758 8.80814C10.9758 8.37565 11.3309 8.02378 11.7673 8.02378C11.9745 8.02378 12.1671 8.1012 12.3131 8.23986C12.3082 8.27291 12.3054 8.3057 12.3054 8.33814C12.3054 8.65419 12.4004 8.85435 12.5387 8.98163ZM12.5873 7.665C12.3501 7.49832 12.0637 7.40445 11.7674 7.40445C10.9863 7.40445 10.3508 8.03416 10.3508 8.80814C10.3508 9.58215 10.9863 10.2119 11.7674 10.2119C12.4095 10.2119 12.9564 9.7815 13.1278 9.19673C13.2176 9.20397 13.3027 9.20494 13.3756 9.20571C13.7076 9.20784 14.014 9.10116 14.3145 8.87576C14.6451 8.62764 15.3911 7.82486 15.9548 7.19624V9.37034C15.1138 9.46943 14.4393 10.1132 14.3019 10.9349H9.14659C9.01389 10.1415 8.38053 9.51391 7.57995 9.38242V8.23393C8.38053 8.10244 9.01385 7.47482 9.14659 6.68149L13.4524 6.68153C13.4015 6.73618 13.3488 6.79231 13.2954 6.84914C13.0026 7.16066 12.7595 7.42678 12.5873 7.665ZM8.50889 6.68149C8.39425 7.13264 8.03518 7.48841 7.57991 7.60202V6.68145L8.50889 6.68149ZM7.57995 10.0143C8.03522 10.1279 8.39428 10.4837 8.50893 10.9349H7.57995V10.0143ZM14.9395 10.9348C15.0613 10.4556 15.459 10.0841 15.9547 9.9961V10.9348H14.9395ZM19.0434 6.66965C18.936 6.66965 18.8361 6.7243 18.7789 6.81434C18.275 7.60778 17.8718 8.01926 16.5797 8.13178V6.74706C16.7382 6.77462 16.9084 6.79673 17.0887 6.79673C17.5592 6.79673 18.0964 6.64696 18.6606 6.05561C18.7792 5.93136 18.7737 5.73538 18.6483 5.61786C18.5229 5.50026 18.3251 5.5058 18.2065 5.63009C17.5561 6.31167 17.0309 6.20719 16.4748 6.0966C16.4243 6.08654 16.3745 6.07663 16.3252 6.06742C16.2114 6.04617 16.1006 6.08913 16.0302 6.1703L16.03 6.17015C15.3729 6.9295 14.2892 8.11769 13.9372 8.38188C13.7461 8.52522 13.5756 8.58827 13.382 8.58626C12.9304 8.58165 12.9304 8.55394 12.9304 8.33806C12.9304 8.33388 12.933 8.23153 13.1574 7.94184C13.321 7.73057 13.5405 7.497 13.7528 7.27114C14.0054 7.00235 14.244 6.74846 14.3801 6.54005C14.4424 6.44483 14.447 6.32347 14.3924 6.2238C14.3377 6.12416 14.2323 6.06208 14.1178 6.06208H10.9741L12.2563 4.70457C12.6163 4.32348 13.0767 4.13029 13.6247 4.13029H19.5897V6.66957H19.0434V6.66965ZM21.375 6.97931C21.375 7.10032 21.2757 7.19875 21.1536 7.19875H20.4361C20.314 7.19875 20.2147 7.10032 20.2147 6.97931V3.83877C20.2147 3.71777 20.314 3.61934 20.4361 3.61934H21.1536C21.2756 3.61934 21.375 3.71777 21.375 3.83877V6.97931Z" fill="currentColor"/>
</svg>
