<svg viewBox="0 0 24 24" fill="none" xmlns="http://www.w3.org/2000/svg">
<path d="M6.23752 15.3672C6.11486 15.3672 6.0153 15.2676 6.0153 15.1449V3.68004H3.79308V15.1449C3.79308 15.2676 3.69352 15.3672 3.57086 15.3672C3.44819 15.3672 3.34863 15.2676 3.34863 15.1449V3.45782C3.34863 3.33515 3.44819 3.2356 3.57086 3.2356H6.23752C6.36019 3.2356 6.45974 3.33515 6.45974 3.45782V15.1449C6.45974 15.2676 6.36019 15.3672 6.23752 15.3672Z" fill="currentColor"/>
<path d="M9.03089 5.38008H7.33089C7.254 5.38008 7.18244 5.34008 7.142 5.27475C7.10155 5.20942 7.098 5.12764 7.13222 5.05875L7.982 3.35875C8.01978 3.28364 8.09667 3.23608 8.18067 3.23608C8.26467 3.23608 8.342 3.28364 8.37933 3.35875L9.22955 5.05875C9.26378 5.12764 9.26022 5.20942 9.21978 5.27475C9.17933 5.34008 9.10778 5.38008 9.03089 5.38008ZM7.69044 4.93564H8.67133L8.18067 3.95475L7.69044 4.93564Z" fill="currentColor"/>
<path d="M9.03062 14.0835C8.90795 14.0835 8.8084 13.984 8.8084 13.8613V5.15777C8.8084 5.0351 8.90795 4.93555 9.03062 4.93555C9.15329 4.93555 9.25284 5.0351 9.25284 5.15777V13.8609C9.25284 13.984 9.15329 14.0835 9.03062 14.0835ZM7.33062 14.0835C7.20795 14.0835 7.1084 13.984 7.1084 13.8613V5.15777C7.1084 5.0351 7.20795 4.93555 7.33062 4.93555C7.45329 4.93555 7.55284 5.0351 7.55284 5.15777V13.8609C7.55284 13.984 7.45329 14.0835 7.33062 14.0835Z" fill="currentColor"/>
<path d="M8.38889 15.3672H7.97289C7.49644 15.3672 7.10889 14.9796 7.10889 14.5032V13.8614C7.10889 13.7387 7.20844 13.6392 7.33111 13.6392H9.03111C9.15378 13.6392 9.25333 13.7387 9.25333 13.8614V14.5032C9.25289 14.9796 8.86533 15.3672 8.38889 15.3672ZM7.55289 14.0836V14.5032C7.55289 14.7347 7.74133 14.9227 7.97244 14.9227H8.38844C8.62 14.9227 8.808 14.7343 8.808 14.5032V14.0836H7.55289Z" fill="currentColor"/>
<path d="M8.18121 13.1449C8.05854 13.1449 7.95898 13.0453 7.95898 12.9227V6.096C7.95898 5.97333 8.05854 5.87378 8.18121 5.87378C8.30387 5.87378 8.40343 5.97333 8.40343 6.096V12.9227C8.40343 13.0458 8.30387 13.1449 8.18121 13.1449Z" fill="currentColor"/>
<path d="M4.22374 4.79027H3.57086C3.44819 4.79027 3.34863 4.69071 3.34863 4.56805C3.34863 4.44538 3.44819 4.34583 3.57086 4.34583H4.22374C4.34641 4.34583 4.44597 4.44538 4.44597 4.56805C4.44597 4.69071 4.34641 4.79027 4.22374 4.79027Z" fill="currentColor"/>
<path d="M4.22374 5.97386H3.57086C3.44819 5.97386 3.34863 5.87431 3.34863 5.75164C3.34863 5.62897 3.44819 5.52942 3.57086 5.52942H4.22374C4.34641 5.52942 4.44597 5.62897 4.44597 5.75164C4.44597 5.87431 4.34641 5.97386 4.22374 5.97386Z" fill="currentColor"/>
<path d="M4.22374 7.15697H3.57086C3.44819 7.15697 3.34863 7.05741 3.34863 6.93475C3.34863 6.81208 3.44819 6.71252 3.57086 6.71252H4.22374C4.34641 6.71252 4.44597 6.81208 4.44597 6.93475C4.44597 7.05741 4.34641 7.15697 4.22374 7.15697Z" fill="currentColor"/>
<path d="M4.22374 8.34044H3.57086C3.44819 8.34044 3.34863 8.24088 3.34863 8.11822C3.34863 7.99555 3.44819 7.896 3.57086 7.896H4.22374C4.34641 7.896 4.44597 7.99555 4.44597 8.11822C4.44597 8.24088 4.34641 8.34044 4.22374 8.34044Z" fill="currentColor"/>
<path d="M4.22374 9.52355H3.57086C3.44819 9.52355 3.34863 9.42399 3.34863 9.30132C3.34863 9.17866 3.44819 9.0791 3.57086 9.0791H4.22374C4.34641 9.0791 4.44597 9.17866 4.44597 9.30132C4.44597 9.42399 4.34641 9.52355 4.22374 9.52355Z" fill="currentColor"/>
<path d="M4.22374 10.7071H3.57086C3.44819 10.7071 3.34863 10.6076 3.34863 10.4849C3.34863 10.3623 3.44819 10.2627 3.57086 10.2627H4.22374C4.34641 10.2627 4.44597 10.3623 4.44597 10.4849C4.44597 10.6076 4.34641 10.7071 4.22374 10.7071Z" fill="currentColor"/>
<path d="M4.22374 11.8902H3.57086C3.44819 11.8902 3.34863 11.7907 3.34863 11.668C3.34863 11.5454 3.44819 11.4458 3.57086 11.4458H4.22374C4.34641 11.4458 4.44597 11.5454 4.44597 11.668C4.44597 11.7907 4.34641 11.8902 4.22374 11.8902Z" fill="currentColor"/>
<path d="M4.22374 13.0738H3.57086C3.44819 13.0738 3.34863 12.9743 3.34863 12.8516C3.34863 12.729 3.44819 12.6294 3.57086 12.6294H4.22374C4.34641 12.6294 4.44597 12.729 4.44597 12.8516C4.44597 12.9743 4.34641 13.0738 4.22374 13.0738Z" fill="currentColor"/>
<path d="M4.22374 14.2569H3.57086C3.44819 14.2569 3.34863 14.1574 3.34863 14.0347C3.34863 13.9121 3.44819 13.8125 3.57086 13.8125H4.22374C4.34641 13.8125 4.44597 13.9121 4.44597 14.0347C4.44597 14.1574 4.34641 14.2569 4.22374 14.2569Z" fill="currentColor"/>
<path d="M10.6441 13.8115C10.5214 13.8115 10.4219 13.712 10.4219 13.5893V6.57598C10.4219 6.45332 10.5214 6.35376 10.6441 6.35376C10.7668 6.35376 10.8663 6.45332 10.8663 6.57598V13.5893C10.8663 13.712 10.7668 13.8115 10.6441 13.8115Z" fill="currentColor"/>
<path d="M11.1641 6.7982H10.1241C10.0014 6.7982 9.90186 6.69865 9.90186 6.57598C9.90186 6.45332 10.0014 6.35376 10.1241 6.35376H11.1641C11.2867 6.35376 11.3863 6.45332 11.3863 6.57598C11.3863 6.69865 11.2867 6.7982 11.1641 6.7982Z" fill="currentColor"/>
<path d="M11.1641 13.8116H10.1241C10.0014 13.8116 9.90186 13.7121 9.90186 13.5894C9.90186 13.4667 10.0014 13.3672 10.1241 13.3672H11.1641C11.2867 13.3672 11.3863 13.4667 11.3863 13.5894C11.3863 13.7121 11.2867 13.8116 11.1641 13.8116Z" fill="currentColor"/>
<path d="M20.1009 9.67956H12.6089C12.2925 9.67956 12.0352 9.42223 12.0352 9.10579V6.97734C12.0352 6.6609 12.2925 6.40356 12.6089 6.40356H20.1009C20.4174 6.40356 20.6747 6.6609 20.6747 6.97734V9.10579C20.6747 9.42223 20.4174 9.67956 20.1009 9.67956ZM12.6089 6.84801C12.5387 6.84801 12.4796 6.90712 12.4796 6.97734V9.10579C12.4796 9.17601 12.5387 9.23512 12.6089 9.23512H20.1009C20.1712 9.23512 20.2303 9.17601 20.2303 9.10579V6.97734C20.2303 6.90712 20.1712 6.84801 20.1009 6.84801H12.6089Z" fill="currentColor"/>
<path d="M20.1012 13.7622H17.4288C17.1123 13.7622 16.855 13.5049 16.855 13.1884V11.06C16.855 10.7435 17.1123 10.4862 17.4288 10.4862H20.1012C20.4176 10.4862 20.675 10.7435 20.675 11.06V13.1884C20.675 13.5049 20.4176 13.7622 20.1012 13.7622ZM17.4288 10.9307C17.3585 10.9307 17.2994 10.9898 17.2994 11.06V13.1884C17.2994 13.2587 17.3585 13.3178 17.4288 13.3178H20.1012C20.1714 13.3178 20.2305 13.2587 20.2305 13.1884V11.06C20.2305 10.9898 20.1714 10.9307 20.1012 10.9307H17.4288Z" fill="currentColor"/>
<path d="M15.0983 13.7622H12.6089C12.2925 13.7622 12.0352 13.5049 12.0352 13.1884V11.06C12.0352 10.7435 12.2925 10.4862 12.6089 10.4862H15.0983C15.4147 10.4862 15.672 10.7435 15.672 11.06V13.1884C15.6725 13.5049 15.4147 13.7622 15.0983 13.7622ZM12.6089 10.9307C12.5387 10.9307 12.4796 10.9898 12.4796 11.06V13.1884C12.4796 13.2587 12.5387 13.3178 12.6089 13.3178H15.0983C15.1685 13.3178 15.2276 13.2587 15.2276 13.1884V11.06C15.2276 10.9898 15.1685 10.9307 15.0983 10.9307H12.6089Z" fill="currentColor"/>
<path d="M20.665 17.4432H3.35879C2.71434 17.4432 2.18945 16.9187 2.18945 16.2739V5.96718C2.18945 5.32274 2.7139 4.79785 3.35879 4.79785H3.57079C3.69345 4.79785 3.79301 4.89741 3.79301 5.02007C3.79301 5.14274 3.69345 5.2423 3.57079 5.2423H3.35879C2.95923 5.2423 2.6339 5.56718 2.6339 5.96718V16.2739C2.6339 16.6734 2.95879 16.9987 3.35879 16.9987H20.665C21.0646 16.9987 21.3895 16.6739 21.3895 16.2739V5.96718C21.3895 5.56763 21.0646 5.2423 20.665 5.2423H8.96234C8.83968 5.2423 8.74012 5.14274 8.74012 5.02007C8.74012 4.89741 8.83968 4.79785 8.96234 4.79785H20.665C21.3095 4.79785 21.8339 5.3223 21.8339 5.96718V16.2739C21.8339 16.9187 21.3095 17.4432 20.665 17.4432ZM7.39923 5.24274H6.23745C6.11479 5.24274 6.01523 5.14318 6.01523 5.02052C6.01523 4.89785 6.11479 4.7983 6.23745 4.7983H7.39923C7.5219 4.7983 7.62145 4.89785 7.62145 5.02052C7.62145 5.14318 7.52234 5.24274 7.39923 5.24274Z" fill="currentColor"/>
<path d="M21.6117 15.3672H2.41168C2.28901 15.3672 2.18945 15.2676 2.18945 15.145C2.18945 15.0223 2.28901 14.9227 2.41168 14.9227H21.6117C21.7343 14.9227 21.8339 15.0223 21.8339 15.145C21.8339 15.2676 21.7343 15.3672 21.6117 15.3672Z" fill="currentColor"/>
<path d="M14.5611 19.4462C14.4385 19.4462 14.3389 19.3467 14.3389 19.224V17.2209C14.3389 17.0982 14.4385 16.9987 14.5611 16.9987C14.6838 16.9987 14.7833 17.0982 14.7833 17.2209V19.224C14.7833 19.3467 14.6838 19.4462 14.5611 19.4462ZM9.46246 19.4462C9.33979 19.4462 9.24023 19.3467 9.24023 19.224V17.2209C9.24023 17.0982 9.33979 16.9987 9.46246 16.9987C9.58512 16.9987 9.68468 17.0982 9.68468 17.2209V19.224C9.68468 19.3467 9.58512 19.4462 9.46246 19.4462Z" fill="currentColor"/>
<path d="M11.6478 18.4444H9.46246C9.33979 18.4444 9.24023 18.3449 9.24023 18.2222C9.24023 18.0996 9.33979 18 9.46246 18H11.6478C11.7705 18 11.87 18.0996 11.87 18.2222C11.87 18.3449 11.7705 18.4444 11.6478 18.4444Z" fill="currentColor"/>
<path d="M15.1436 20.8303H8.87955C8.37555 20.8303 7.96533 20.4201 7.96533 19.9161V19.5156C7.96533 19.2325 8.19555 19.0018 8.47911 19.0018H15.5444C15.8276 19.0018 16.0582 19.2321 16.0582 19.5156V19.9161C16.0578 20.4201 15.6476 20.8303 15.1436 20.8303ZM8.47911 19.4463C8.44178 19.4463 8.40978 19.4778 8.40978 19.5156V19.9161C8.40978 20.1752 8.62044 20.3858 8.87955 20.3858H15.1436C15.4027 20.3858 15.6133 20.1752 15.6133 19.9161V19.5156C15.6133 19.4783 15.5818 19.4463 15.544 19.4463H8.47911Z" fill="currentColor"/>
<path d="M10.3182 16.7694C9.9946 16.7694 9.73193 16.5063 9.73193 16.1831C9.73193 15.86 9.99504 15.5969 10.3182 15.5969C10.6413 15.5969 10.9044 15.86 10.9044 16.1831C10.9044 16.5063 10.6413 16.7694 10.3182 16.7694ZM10.3182 16.0409C10.2399 16.0409 10.1764 16.1045 10.1764 16.1827C10.1764 16.2609 10.2399 16.3245 10.3182 16.3245C10.3964 16.3245 10.4599 16.2609 10.4599 16.1827C10.4599 16.1045 10.3964 16.0409 10.3182 16.0409Z" fill="currentColor"/>
<path d="M12.0115 16.7694C11.688 16.7694 11.4253 16.5063 11.4253 16.1831C11.4253 15.86 11.6884 15.5969 12.0115 15.5969C12.3346 15.5969 12.5977 15.86 12.5977 16.1831C12.5977 16.5063 12.3351 16.7694 12.0115 16.7694ZM12.0115 16.0409C11.9333 16.0409 11.8697 16.1045 11.8697 16.1827C11.8697 16.2609 11.9333 16.3245 12.0115 16.3245C12.0897 16.3245 12.1533 16.2609 12.1533 16.1827C12.1533 16.1045 12.0897 16.0409 12.0115 16.0409Z" fill="currentColor"/>
<path d="M13.7049 16.7694C13.3813 16.7694 13.1187 16.5063 13.1187 16.1831C13.1187 15.86 13.3818 15.5969 13.7049 15.5969C14.028 15.5969 14.2911 15.86 14.2911 16.1831C14.2911 16.5063 14.0284 16.7694 13.7049 16.7694ZM13.7049 16.0409C13.6267 16.0409 13.5631 16.1045 13.5631 16.1827C13.5631 16.2609 13.6267 16.3245 13.7049 16.3245C13.7831 16.3245 13.8467 16.2609 13.8467 16.1827C13.8467 16.1045 13.7835 16.0409 13.7049 16.0409Z" fill="currentColor"/>
</svg>
