<svg width="1045" height="530" fill="none" xmlns="http://www.w3.org/2000/svg"><g filter="url(#filter0_f_428_5805)"><path d="M414.4 141.2c19.2-23.467 48.4-35.2 87.6-35.2 39.2 0 68.267 11.733 87.2 35.2C608.4 164.667 618 202.933 618 256s-9.6 91.333-28.8 114.8c-18.933 23.467-48 35.2-87.2 35.2s-68.4-11.733-87.6-35.2C395.467 347.333 386 309.067 386 256s9.467-91.333 28.4-114.8zm52 191.2c7.733 14.667 19.6 22 35.6 22s27.733-7.333 35.2-22c7.733-14.667 11.6-40.133 11.6-76.4s-3.867-61.733-11.6-76.4c-7.467-14.667-19.2-22-35.2-22-16 0-27.867 7.333-35.6 22-7.467 14.667-11.2 40.133-11.2 76.4s3.733 61.733 11.2 76.4z" fill="#E0E0E0"/></g><g filter="url(#filter1_f_428_5805)"><path d="M236.4 299.8V199.4h-.8L166.4 299v.8h70zm65.2 0h42V353h-42v56h-65.2v-56h-130v-53.2l130-182.8h65.2v182.8z" fill="#E0E0E0"/></g><g filter="url(#filter2_f_428_5805)"><path d="M831.4 299.8V199.4h-.8L761.4 299v.8h70zm65.2 0h42V353h-42v56h-65.2v-56h-130v-53.2l130-182.8h65.2v182.8z" fill="#E0E0E0"/></g><path d="M320.4 164.8H204l-2.8 54.4h.8c12.267-5.333 25.067-8 38.4-8 29.867 0 52.933 8 69.2 24 16.267 16 24.4 38.533 24.4 67.6 0 68.8-40.933 103.2-122.8 103.2-29.867 0-57.867-5.6-84-16.8l14-54c26.4 11.2 48.8 16.8 67.2 16.8 39.2 0 58.8-16.4 58.8-49.2 0-26.667-13.333-40-40-40-11.733 0-23.333 5.067-34.8 15.2h-58l8-168h178v54.8zm417-23.6c19.2-23.467 48.4-35.2 87.6-35.2 39.2 0 68.267 11.733 87.2 35.2C931.4 164.667 941 202.933 941 256s-9.6 91.333-28.8 114.8c-18.933 23.467-48 35.2-87.2 35.2s-68.4-11.733-87.6-35.2C718.467 347.333 709 309.067 709 256s9.467-91.333 28.4-114.8zm52 191.2c7.733 14.667 19.6 22 35.6 22s27.733-7.333 35.2-22c7.733-14.667 11.6-40.133 11.6-76.4s-3.867-61.733-11.6-76.4c-7.467-14.667-19.2-22-35.2-22-16 0-27.867 7.333-35.6 22-7.467 14.667-11.2 40.133-11.2 76.4s3.733 61.733 11.2 76.4z" fill="#fff"/><mask id="a" style="mask-type:alpha" maskUnits="userSpaceOnUse" x="313" y="52" width="368" height="239"><path fill="#D9D9D9" d="M313 52h368v239H313z"/></mask><g mask="url(#a)"><path d="M425.4 138.2c19.2-23.467 48.4-35.2 87.6-35.2 39.2 0 68.267 11.733 87.2 35.2C619.4 161.667 629 199.933 629 253s-9.6 91.333-28.8 114.8c-18.933 23.467-48 35.2-87.2 35.2s-68.4-11.733-87.6-35.2C406.467 344.333 397 306.067 397 253s9.467-91.333 28.4-114.8zm52 191.2c7.733 14.667 19.6 22 35.6 22s27.733-7.333 35.2-22c7.733-14.667 11.6-40.133 11.6-76.4s-3.867-61.733-11.6-76.4c-7.467-14.667-19.2-22-35.2-22-16 0-27.867 7.333-35.6 22-7.467 14.667-11.2 40.133-11.2 76.4s3.733 61.733 11.2 76.4z" fill="#fff"/></g><mask id="b" style="mask-type:alpha" maskUnits="userSpaceOnUse" x="313" y="291" width="368" height="239"><path fill="#D9D9D9" d="M313 291h368v239H313z"/></mask><g mask="url(#b)"><path d="M425.4 138.2c19.2-23.467 48.4-35.2 87.6-35.2 39.2 0 68.267 11.733 87.2 35.2C619.4 161.667 629 199.933 629 253s-9.6 91.333-28.8 114.8c-18.933 23.467-48 35.2-87.2 35.2s-68.4-11.733-87.6-35.2C406.467 344.333 397 306.067 397 253s9.467-91.333 28.4-114.8zm52 191.2c7.733 14.667 19.6 22 35.6 22s27.733-7.333 35.2-22c7.733-14.667 11.6-40.133 11.6-76.4s-3.867-61.733-11.6-76.4c-7.467-14.667-19.2-22-35.2-22-16 0-27.867 7.333-35.6 22-7.467 14.667-11.2 40.133-11.2 76.4s3.733 61.733 11.2 76.4z" fill="#fff"/></g><defs><filter id="filter0_f_428_5805" x="280" y="0" width="444" height="512" filterUnits="userSpaceOnUse" color-interpolation-filters="sRGB"><feFlood flood-opacity="0" result="BackgroundImageFix"/><feBlend in="SourceGraphic" in2="BackgroundImageFix" result="shape"/><feGaussianBlur stdDeviation="53" result="effect1_foregroundBlur_428_5805"/></filter><filter id="filter1_f_428_5805" x=".4" y="11" width="449.2" height="504" filterUnits="userSpaceOnUse" color-interpolation-filters="sRGB"><feFlood flood-opacity="0" result="BackgroundImageFix"/><feBlend in="SourceGraphic" in2="BackgroundImageFix" result="shape"/><feGaussianBlur stdDeviation="53" result="effect1_foregroundBlur_428_5805"/></filter><filter id="filter2_f_428_5805" x="595.4" y="11" width="449.2" height="504" filterUnits="userSpaceOnUse" color-interpolation-filters="sRGB"><feFlood flood-opacity="0" result="BackgroundImageFix"/><feBlend in="SourceGraphic" in2="BackgroundImageFix" result="shape"/><feGaussianBlur stdDeviation="53" result="effect1_foregroundBlur_428_5805"/></filter></defs></svg>