<svg width="24" height="24" fill="none" xmlns="http://www.w3.org/2000/svg"><path d="M5.333 17H6v.667h-.667V17zm1.334 0h.666v.667h-.667V17zm10.999-1.667h2.667V16h-2.666v-.667zM16 12.667h.667v.666H16v-.666zm-1 2.666h.667V16H15v-.667zm-3.666-2.666a1 1 0 100-2 1 1 0 000 2zm0-1.334a.333.333 0 110 .666.333.333 0 010-.666zM3.333 12H4v.667h-.667V12zm1.334 0h.666v.667h-.667V12zm0 1.333h.666V14h-.667v-.667zm-1.334 0H4V14h-.667v-.667z" fill="#000"/><path d="M21.667 3H13a.333.333 0 00-.333.333v1.334A.333.333 0 0013 5h1.195l1.138 1.138V6.5a.166.166 0 11-.333 0v-.167a.333.333 0 10-.667 0V6.5A.833.833 0 1016 6.5v-.362L17.138 5H18v3h-6.668c-.009 0-.017 0-.026.002a.331.331 0 00-.132.039L7.827 9.866l-.947-.789A.333.333 0 006.667 9h-2.67a.333.333 0 00-.233.098l-1.666 1.666A.333.333 0 002 11v10a.333.333 0 00.333.333h19a.333.333 0 00.334-.333V10.333a.333.333 0 00-.149-.277L20 9.044V5h1.667A.333.333 0 0022 4.667V3.333A.333.333 0 0021.667 3zm-2 1.333H19l.333-.444.334.444zm-2.667 0l.333-.444.334.444H17zm-3-.666h.667l-.334.444L14 3.667zm1.333.222l.334.444H15l.333-.444zM16 3.667h.667l-.334.444L16 3.667zm2 0h.667l-.334.444L18 3.667zm2 0h.667l-.334.444L20 3.667zm-6.667.222l.334.444h-.334V3.89zm2.334 1.64L15.138 5h1.057l-.528.529zm3.666 2.804h-.399l-.267-.178v-.488h.666v.666zm-3.666 11.334v1H13.18l1.125-2.532a.334.334 0 00-.305-.468h-2.667a.332.332 0 00-.149.035l-1.263.631H8.667v-1h9.666V18h-1a.333.333 0 00-.333.333v1h-1a.333.333 0 00-.333.334zm-13-3v-5.334H6v4.334h-.667a1 1 0 10-2 0v1h-.666zM21 12v.667h-2.333v.666H21V14h-3v-2h3zm-5.667 2v-2h2v2h-2zm1 2.667h-2v-2h2v2zm-1-5.334v-.666H18v.666h-2.667zm-4-2.62l3.334 1.818V14H14a.333.333 0 00-.333.333v2.334H13V15a1.666 1.666 0 10-3.333 0v1.667h-1V16a.333.333 0 00-.334-.333H8V10.53l3.333-1.818zm1 7.954h-2V15a1 1 0 012 0v1.667zm-5-1h-.666v-4.334h.666v4.334zM4 16v-.333a.333.333 0 11.667 0h-.334A.333.333 0 004 16zm.667.333H8v2H4.667v-2zM4.109 19H10a.333.333 0 00.15-.035l1.262-.632h2.075l-.444 1h-8.84L4.11 19zM17 16.667v-2h4v2h-4zm4-5.334h-1v-.666h1v.666zm-1.667 0h-.666v-.666h.666v.666zM18.667 10V9h.065l.601.4v.6h-.666zm.666-3h-.666v-.667h.666V7zM18 10h-2.915l-2.444-1.333H18V10zM6.546 9.667l.788.656v.344H6.44l-1.4-1h1.506zm-2.51.102l1.257.898H3.138l.898-.898zm-1.37 7.564H4v1h-.333a.334.334 0 00-.32.425l.544 1.909H2.667v-3.334zm1.919 3.334L4.395 20h8.351l-.296.667H4.585zm16.415 0h-4.667V20h1a.333.333 0 00.334-.333v-1h1a.333.333 0 00.333-.334v-1h2v3.334zM20.232 10H20v-.155l.232.155zm-.899-4.333h-.666V5h.666v.667zM21 4.333l.333-.444v.444H21z" fill="#000"/></svg>