<svg width="24" height="24" fill="none" xmlns="http://www.w3.org/2000/svg"><path d="M21.374 14.135v-.45a.922.922 0 000-1.744V6.862l.278-.22.004-.004a.734.734 0 00.038-.032l.012-.011a.9.9 0 00.023-.022l.002-.002.001-.002a.922.922 0 00-.546-1.563.913.913 0 00-.56.114l-11.2 4.896a.921.921 0 00-.225 1.79v.4H7.91v-.33a.603.603 0 00-.612-.606c-.883.01-1.4.01-1.65.006a.607.607 0 00-.536-.323h-.627a.608.608 0 00-.606.607v.695a.922.922 0 000 1.744v1.634c0 .335.272.607.606.607h3.131a.608.608 0 00.607-.607v-1.586h1.868l-.61 3.866-6.594 1.5h-.593a.294.294 0 000 .587h11.898a.294.294 0 000-.587h-.689l-.884-5.606 8.168-6.48v4.614a.922.922 0 000 1.744v.695c0 .162.131.294.293.294a.333.333 0 11-.332.333.294.294 0 10-.588 0 .921.921 0 101.213-.872zm-8.918-1.807l7.746-6.136a.914.914 0 00.413.523l-7.737 6.137a.924.924 0 00-.422-.524zm8.662-6.738a.334.334 0 01.196.567l-.015.014-.01.008a.33.33 0 01-.444-.024.333.333 0 010-.47l.01-.01.018-.015a.341.341 0 01.053-.035.33.33 0 01.192-.035zM9.495 10.6zm.294 1.206a.922.922 0 00.396-1.48l8.596-3.758-7.118 5.638H9.789v-.4zm-2.485.051c.002 0 .008 0 .013.006a.02.02 0 01.006.014v.33H5.718v-.343c.265.003.735.002 1.586-.007zm-2.819-.316h.627c.01 0 .02.008.02.02v.645h-.666v-.646c0-.01.009-.02.02-.02zm-.313 1.253H12a.333.333 0 01.236.566l-.002.002a.33.33 0 01-.234.097H4.172a.333.333 0 010-.665zm3.464 2.84a.02.02 0 01-.02.019h-3.13a.02.02 0 01-.02-.02v-1.586h3.17v1.586zm3.444-1.587v.98h-.55l.155-.98h.395zm1.582 3.799h-.995v-2.232h.643l.352 2.232zm-1.582 0h-.994l.352-2.232h.642v2.232zm0 .587v.98H9.84l.154-.98h1.087zm-1.698.105l-.138.875H5.536l3.846-.875zm2.285.875v-.98h1.087l.155.98h-1.242zm.55-4.387h-.55v-.979H12c.02 0 .041 0 .062-.002l.155.981zm8.863-2.546a.333.333 0 110 .667.333.333 0 010-.667z" fill="#FE7A41"/></svg>