<svg width="24" height="24" fill="none" xmlns="http://www.w3.org/2000/svg"><path fill-rule="evenodd" clip-rule="evenodd" d="M1.957 5.73a.5.5 0 01.5-.5h3.9a.5.5 0 01.495.572l-2.075 14.27a.5.5 0 01-.495.428H2.457a.5.5 0 01-.5-.5V5.73zm1 .5V19.5h.893L5.779 6.23H2.957z" fill="#FE7A41"/><path fill-rule="evenodd" clip-rule="evenodd" d="M4.839 2.502a.5.5 0 01.377.171l2.382 2.728a.5.5 0 01-.377.829H2.457a.5.5 0 01-.377-.83l2.382-2.727a.5.5 0 01.377-.171zm0 1.26L3.557 5.23h2.564L4.839 3.762z" fill="#FE7A41"/><path fill-rule="evenodd" clip-rule="evenodd" d="M9.613 2.502a.5.5 0 01.377.171l2.382 2.728a.5.5 0 01-.377.829H7.23a.5.5 0 01-.376-.83l2.382-2.727a.5.5 0 01.377-.171zM8.331 5.23h2.564L9.613 3.762 8.331 5.23z" fill="#FE7A41"/><path fill-rule="evenodd" clip-rule="evenodd" d="M14.387 2.502a.5.5 0 01.377.171l2.382 2.728a.5.5 0 01-.377.829h-4.765a.5.5 0 01-.376-.83l2.382-2.727a.5.5 0 01.377-.171zM13.105 5.23h2.564l-1.282-1.468-1.282 1.468z" fill="#FE7A41"/><path fill-rule="evenodd" clip-rule="evenodd" d="M19.161 2.502a.5.5 0 01.377.171l2.382 2.728a.5.5 0 01-.376.829h-4.765a.5.5 0 01-.377-.83l2.383-2.727a.5.5 0 01.376-.171zM17.88 5.23h2.564l-1.282-1.468L17.88 5.23z" fill="#FE7A41"/><path fill-rule="evenodd" clip-rule="evenodd" d="M4.372 3a.5.5 0 01.5-.5H19.01a.5.5 0 010 1H4.872a.5.5 0 01-.5-.5zm0 2.73a.5.5 0 01.5-.5H19.01a.5.5 0 010 1H4.872a.5.5 0 01-.5-.5zm-2.208 9.346a.5.5 0 01.5-.5h1.804a.5.5 0 110 1H2.664a.5.5 0 01-.5-.5zm-.093-4.838a.5.5 0 01.5-.5h2.5a.5.5 0 010 1h-2.5a.5.5 0 01-.5-.5zm7.52-.868a.5.5 0 01.5-.5h3.818a.5.5 0 01.5.5v1.324a.5.5 0 01-.147.354L13.1 12.206a.5.5 0 01-.353.146h-1.494a.5.5 0 01-.353-.146l-1.162-1.158a.5.5 0 01-.147-.354V9.37zm1 .5v.616l.869.866h1.08l.869-.866V9.87H10.59z" fill="#FE7A41"/><path fill-rule="evenodd" clip-rule="evenodd" d="M10.672 5.67a.5.5 0 01.5.5v2.993a.5.5 0 01-1 0V6.171a.5.5 0 01.5-.5zm2.656-.068a.5.5 0 01.5.5v2.992a.5.5 0 11-1 0V6.102a.5.5 0 01.5-.5zM12 11.85a.5.5 0 01.5.5v1.82a.5.5 0 11-1 0v-1.82a.5.5 0 01.5-.5z" fill="#FE7A41"/><path fill-rule="evenodd" clip-rule="evenodd" d="M11.5 14.168a.5.5 0 01.5-.5h.165a2.243 2.243 0 012.243 2.237v.041a2.16 2.16 0 01-2.16 2.155h-.082a2.16 2.16 0 01-2.16-2.155.5.5 0 111 0c0 .634.52 1.155 1.16 1.155h.082c.64 0 1.16-.521 1.16-1.155v-.041c0-.68-.557-1.237-1.242-1.237H12a.5.5 0 01-.5-.5zM1.5 20a.5.5 0 01.5-.5h2.739a.5.5 0 010 1H2a.5.5 0 01-.5-.5zM17.265 5.403a.5.5 0 01.378-.173h3.9a.5.5 0 01.5.5V20a.5.5 0 01-.5.5h-1.825a.5.5 0 01-.495-.428l-2.075-14.27a.5.5 0 01.117-.4zm.956.827l1.93 13.27h.893V6.23H18.22z" fill="#FE7A41"/><path fill-rule="evenodd" clip-rule="evenodd" d="M19.032 15.076a.5.5 0 01.5-.5h1.804a.5.5 0 110 1h-1.804a.5.5 0 01-.5-.5zm-.602-4.838a.5.5 0 01.5-.5h2.499a.5.5 0 110 1h-2.5a.5.5 0 01-.5-.5zM18.762 20a.5.5 0 01.5-.5H22a.5.5 0 110 1h-2.738a.5.5 0 01-.5-.5z" fill="#FE7A41"/></svg>