<svg width="119" height="40" fill="none" xmlns="http://www.w3.org/2000/svg"><g clip-path="url(#clip0_209_675)" fill-rule="evenodd" clip-rule="evenodd"><path d="M22.223 39.77c11.791 1.804 20.21-7.218 22.038-19.396C46.09 8.194 37.862.977 20.49.075 3.118-.826-1.453 6.391.375 19.923 2.204 33.455 10.432 37.965 22.223 39.77z" fill="#FE7A41"/><path d="M22.477 13.636v7.222c0 4.91-3.096 7.877-7.238 7.877-4.208 0-7.063-2.968-7.063-7.877v-7.222h3.575v7.222c0 2.858 1.22 4.56 3.488 4.56 2.224 0 3.62-1.701 3.62-4.56v-7.222h3.618zm9.31 0c3.793 0 5.624 2.837 5.624 5.717 0 2.923-1.853 5.76-5.646 5.76h-3.227v3.36h-3.597V13.637h6.846zm-.415 3.317h-2.834v4.865h2.834c1.44 0 2.42-.85 2.42-2.465 0-1.593-.98-2.378-2.42-2.4z" fill="#fff"/><path d="M48.014 12.727c2.856 0 5.167 1.288 6.65 3.251l-3.096 1.571c-.741-.938-1.897-1.462-3.597-1.462-2.595 0-4.404 1.811-4.404 4.277 0 2.356 1.853 4.385 4.447 4.385 1.592 0 2.856-.502 3.641-1.243v-1.44h-4.513v-2.75h7.674v5.499c-.109.218-2.441 3.272-6.78 3.272-4.905 0-8.067-3.687-8.067-7.68 0-4.123 3.38-7.68 8.045-7.68zm16.678.262c3.009 0 5.276 2.335 5.276 5.564 0 2.138-1.046 3.949-2.638 4.8l3.053 4.473h-4.448l-2.224-3.688h-2.616v3.688H57.52V12.989h7.172zm-.501 3.316h-3.096v4.517h3.074c1.221 0 2.202-1.026 2.202-2.27 0-1.221-.98-2.247-2.18-2.247zm15.435-3.578c4.208 0 7.653 3.47 7.653 7.68 0 4.233-3.445 7.68-7.653 7.68-4.25 0-7.652-3.447-7.652-7.68 0-4.21 3.401-7.68 7.652-7.68zm0 3.338c-2.42 0-4.382 1.942-4.382 4.342a4.365 4.365 0 004.382 4.364c2.377 0 4.339-1.942 4.339-4.364a4.35 4.35 0 00-4.339-4.341zm23.568-3.076v7.222c0 4.909-3.096 7.876-7.238 7.876-4.208 0-7.064-2.967-7.064-7.876v-7.222h3.576v7.222c0 2.858 1.22 4.56 3.488 4.56 2.224 0 3.619-1.702 3.619-4.56v-7.222h3.619zm9.309 0c3.794 0 5.625 2.836 5.625 5.716 0 2.924-1.853 5.76-5.647 5.76h-3.226v3.36h-3.598V12.99h6.846zm-.414 3.316h-2.834v4.866h2.834c1.439 0 2.42-.851 2.42-2.465 0-1.593-.981-2.379-2.42-2.4z" fill="#29394D"/></g><defs><clipPath id="clip0_209_675"><path fill="#fff" d="M0 0h119v40H0z"/></clipPath></defs></svg>