<svg width="33" height="32" fill="none" xmlns="http://www.w3.org/2000/svg"><path d="M16.406 2.695c-.5-1.243-1.714-2.586-3.99-2.402-2.9.315-3.804 3.089-3.365 4.743-1.155-.78-3.119-1.123-4.833.342-2.213 2.215-1.029 5.21.187 5.928-1.34-.124-3.46.78-3.928 3.146-.499 2.937 1.744 4.65 3.928 4.65h24.22c2.526 0 3.927-2.181 3.77-4.239-.248-2.684-2.709-3.714-4.051-3.494 1.121-.624 2.62-3.559.341-5.865-1.807-1.717-4.112-1.092-4.923-.344.437-1.434-.28-4.398-3.212-4.867a5.273 5.273 0 00-.583-.035c-2.239 0-3.245 1.634-3.561 2.437z" fill="#fff"/><path d="M4.622 5.845c-1.279 1.156-1.744 3.774.56 5.305l9.197 6.298L9.919 7.25c-.933-2.406-3.49-2.93-5.297-1.405z" fill="#F37021"/><path d="M12.539.887c-1.495.03-3.74 1.808-2.74 4.521l4.61 10.857 1.621-11.42c.375-2.836-1.776-4.146-3.49-3.957z" fill="#CC004C"/><path d="M16.749 4.41h.872s.465 0 .529.22c-.343.28-1.278.314-1.154 1.809l1.466 9.825 4.58-10.886c.937-2.43-1.03-4.46-2.774-4.522a3.425 3.425 0 00-.247-.011c-1.566 0-3.36 1.136-3.272 3.565z" fill="#6460AA"/><path d="M22.859 7.343l-4.332 10.075 9.193-6.332c2.12-1.5 1.777-3.899.591-5.085-.497-.558-1.41-.989-2.377-.989-1.143 0-2.366.605-3.075 2.33z" fill="#0089D0"/><path d="M26.692 12.52l-8.634 6.02h10.63c2.181 0 3.583-2.245 2.96-4.305-.417-1.294-1.652-2.31-3.085-2.312-.603 0-1.243.181-1.871.597z" fill="#0DB14B"/><path d="M4.375 18.54H14.85l-8.636-6.02c-1.995-1.28-4.239-.53-5.048 1.593-.687 2.43 1.027 4.427 3.21 4.427z" fill="#FCB711"/><path d="M15.971 26.777h1.943c.447.028 1.239.418 1.239 1.34 0 .964-.822 1.353-1.267 1.397H15.97v-2.737zm-.03-4.293h1.6c.547.03 1.193.433 1.193 1.182 0 .734-.489 1.224-1.12 1.31h-1.672v-2.492zm-2.186-1.786v10.6h5.153c1.223 0 2.676-1.223 2.676-2.822 0-1.67-1.093-2.491-1.785-2.822 0 0 1.267-.735 1.21-2.32-.057-2.131-2.03-2.636-2.706-2.636h-4.548zm-7.902 10.6v-6.106l6.678 6.51V20.696h-2.244v5.95l-6.68-6.38v11.03h2.246zm16.096-5.415c.056 3.352 2.469 5.859 5.57 5.859.736 0 1.51-.14 2.303-.444v-2.16a3.86 3.86 0 01-2.01.568c-1.877 0-3.649-1.387-3.575-3.909.126-2.046 1.804-3.459 3.612-3.459.662 0 1.343.19 1.973.607v-2.102a5.747 5.747 0 00-2.166-.43c-3.094 0-5.648 2.605-5.707 5.47z" fill="#000"/></svg>