<svg width="24" height="24" fill="none" xmlns="http://www.w3.org/2000/svg"><path d="M21.688 4.034h-.001v-.94a.312.312 0 10-.625 0h-3.125a.312.312 0 10-.625 0h-3.125a.312.312 0 10-.624 0h-3.125a.312.312 0 10-.625 0H6.688a.312.312 0 10-.625 0H2.938a.312.312 0 10-.625 0v.94A.312.312 0 002 4.347v1.562c0 .173.14.313.313.313v1.872a.312.312 0 100 .625v1.25a.312.312 0 100 .625v1.25a.312.312 0 100 .625v1.25a.312.312 0 100 .625v1.25a.312.312 0 100 .625v1.25a.312.312 0 100 .625v1.25a.312.312 0 100 .625v.625a.312.312 0 100 .625h19.374a.312.312 0 100-.625V6.222c.173 0 .313-.14.313-.313V4.347a.312.312 0 00-.313-.313zm-3.75-.316h3.124v.316h-3.125v-.316zm-3.75 0h3.124v.316h-3.125v-.316zm-3.75 0h3.124v.316h-3.124v-.316zm-3.75 0h3.125v.316H6.688v-.316zm-3.75 0h3.125v.316H2.938v-.316zm.937 16.876h-.937V6.222h.937v14.372zm4.375 0H5.437V17.47H8.25v3.125zm0-5.935v2.185H5.437V13.72H8.25v.94zm0-1.565H5.125a.312.312 0 00-.313.313v7.187H4.5V6.222h4.063v3.122h-.626a.312.312 0 00-.312.313v1.25c0 .173.14.312.313.312h.312v1.875zm3.437 7.5H8.875V17.47h2.812v3.125zm0-3.75H8.875v-1.872h2.812v1.872zm0-3.437v.94H8.875v-3.128h2.812v2.188zM8.25 10.594V9.97h4.063v.625H8.25zm3.125-1.562v.312H9.187v-.312h2.188zm-2.188-.625V6.222H9.5v2.185h-.313zm.938 0V6.222h.313v2.185h-.313zm.938 0V6.222h.312v2.185h-.313zm4.061 12.187h-2.812V17.47h2.812v3.125zm0-3.75h-2.812V13.72h2.812v3.125zm3.437 3.75H15.75V17.47h2.812v3.125zm0-3.75H15.75V13.72h2.812v3.125zm.939 3.75h-.314v-7.187a.312.312 0 00-.312-.313h-6.562V11.22h.313c.173 0 .313-.14.313-.312v-1.25a.312.312 0 00-.313-.313H12V6.222h7.5v14.372zm1.562 0h-.937V6.222h.937v14.372zm.313-14.997H2.625v-.938h18.75v.938z" fill="#29394D"/><path d="M6.375 20.282c.173 0 .313-.14.313-.313v-1.875a.312.312 0 10-.625 0v1.875c0 .173.14.313.312.313zm.938 0c.173 0 .312-.14.312-.313v-1.875a.312.312 0 10-.625 0v1.875c0 .173.14.313.313.313zm-.938-3.75c.173 0 .313-.14.313-.313v-1.875a.312.312 0 10-.625 0v1.875c0 .173.14.313.312.313zm.938 0c.173 0 .312-.14.312-.313v-1.875a.312.312 0 10-.625 0v1.875c0 .173.14.313.313.313zm2.5-2.498c.172 0 .312-.14.312-.312v-1.875a.312.312 0 10-.625 0v1.875c0 .172.14.312.313.312zm.937 0c.173 0 .313-.14.313-.312v-1.875a.312.312 0 10-.626 0v1.875c0 .172.14.312.313.312zm-.938 6.248c.173 0 .313-.14.313-.313v-1.875a.312.312 0 10-.625 0v1.875c0 .173.14.313.312.313zm.938 0c.172 0 .312-.14.312-.313v-1.875a.312.312 0 10-.625 0v1.875c0 .173.14.313.313.313zm2.499 0c.173 0 .313-.14.313-.313v-1.875a.312.312 0 10-.625 0v1.875c0 .173.14.313.312.313zm.938 0c.172 0 .312-.14.312-.313v-1.875a.312.312 0 10-.625 0v1.875c0 .173.14.313.313.313zm2.499 0c.173 0 .313-.14.313-.313v-1.875a.312.312 0 10-.625 0v1.875c0 .173.14.313.312.313zm.937 0c.173 0 .313-.14.313-.313v-1.875a.312.312 0 10-.625 0v1.875c0 .173.14.313.313.313zm-4.374-3.75c.173 0 .313-.14.313-.313v-1.875a.312.312 0 10-.625 0v1.875c0 .173.14.313.312.313zm.938 0c.172 0 .312-.14.312-.313v-1.875a.312.312 0 10-.625 0v1.875c0 .173.14.313.313.313zm2.499 0c.173 0 .313-.14.313-.313v-1.875a.312.312 0 10-.625 0v1.875c0 .173.14.313.312.313zm.937 0c.173 0 .313-.14.313-.313v-1.875a.312.312 0 10-.625 0v1.875c0 .173.14.313.313.313z" fill="#29394D"/></svg>