<svg width="22" height="24" fill="none" xmlns="http://www.w3.org/2000/svg"><path d="M21.868 6.648L15.924.47A.449.449 0 0015.6.333H6.74a1.8 1.8 0 00-1.798 1.798v6.28h-3.59A1.345 1.345 0 00.006 9.754v6.733c0 .742.604 1.345 1.346 1.345h3.59v4.04c0 .989.807 1.794 1.798 1.794h13.455c.992 0 1.799-.805 1.799-1.794V6.96a.449.449 0 00-.126-.311zm-6.156-5.103l4.88 5.07h-4.88v-5.07zm-14.36 15.39a.448.448 0 01-.448-.447V9.755c0-.247.2-.447.448-.447h12.117c.247 0 .448.2.448.447v6.733a.449.449 0 01-.448.448H1.352zm19.744 4.938a.9.9 0 01-.9.896H6.74a.9.9 0 01-.9-.897v-4.039h7.629c.742 0 1.345-.603 1.345-1.345V9.755c0-.741-.603-1.345-1.345-1.345h-7.63V2.13c0-.496.405-.9.901-.9h8.074v5.834c0 .248.201.449.449.449h5.833v14.36z" fill="#29394D"/></svg>