<svg width="24" height="24" fill="none" xmlns="http://www.w3.org/2000/svg"><path d="M11.24 19.391H9.76V9.826h.423c.127 0 .211-.087.211-.217V8.522h7.605v1.087c0 .13.085.217.212.217h.633v1.196l-2.662 2.108c-.063.066-.105.153-.063.24a.204.204 0 00.19.152h5.493a.205.205 0 00.19-.152c.021-.087 0-.196-.063-.24l-2.662-2.108V9.826h.634c.126 0 .21-.087.21-.217V8.522h.212c.127 0 .211-.087.211-.218V7.196c0-.022 0-.044-.02-.044 0 0 0-.022-.022-.022 0-.021-.021-.021-.021-.043l-.021-.022c-.021 0-.021-.022-.042-.022l-12.465-5H7.88C7.86 2 7.86 2 7.838 2h-.021c-.085 0-.17.065-.212.152l-.02.044-2.22 2.934-1.69 2.174-.021.022s0 .022-.021.022v6.391H3.21c-.127 0-.211.087-.211.217V17c0 .13.084.217.211.217h1.27c.127 0 .211-.087.211-.217v-3.043c0-.13-.084-.218-.211-.218h-.423V8.065l1.31 1.696c.021.022.042.022.042.043 0 0 .021 0 .021.022h.529v9.565h-1.48c-.126 0-.21.087-.21.218v2.174c0 .13.084.217.21.217h6.761c.127 0 .211-.087.211-.217v-2.174c0-.13-.084-.218-.21-.218zm5.682-6.304l2.134-1.674 2.133 1.674h-4.267zM4.268 16.783h-.845v-2.61h.845v2.61zm5.07-1.022l-1.183-1.152 1.183-1.152v2.304zm-1.48-1.457l-1.393-1.37 1.394-1.369 1.394 1.37-1.394 1.37zm-1.478-.848l1.183 1.153L6.38 15.76v-2.304zm1.479 1.457l1.394 1.37L7.86 17.63l-1.394-1.37 1.394-1.347zm1.479 1.87v2.304l-1.183-1.152 1.183-1.152zm-1.183-5.5l1.183-1.153v2.305l-1.183-1.152zm-.296-.305L6.697 9.826h2.324l-1.162 1.152zm-.296.305L6.38 12.435v-2.326l1.183 1.174zm0 6.652L6.38 19.109v-2.326l1.183 1.152zm.296.304l1.162 1.152H6.697l1.162-1.152zm2.324-13.196H8.852l-.697-2.478 10.5 4.218-8.261-1.066v-.456c0-.13-.085-.218-.211-.218zm-1.754 0H7.1l.718-2.108.612 2.108zm-1.415.435h2.958v2.609H7.014V5.478zm12.675 3.913h-1.267v-.87h1.267v.87zm.423-1.304h-9.718V6.152l9.718 1.24v.695zM6.655 5.043h-.676l1.225-1.586-.55 1.586zm-1.331.848V9L4.12 7.435 5.324 5.89zm.422-.413h.845v2.826c0 .13.085.218.212.218h3.169v.87H5.746V5.477zm5.282 16.087H4.69v-1.739h6.338v1.74z" fill="#29394D"/></svg>