<svg width="81" height="16" fill="none" xmlns="http://www.w3.org/2000/svg"><path d="M8.75 0l2.586 4.44 5.022 1.088-3.423 3.832.517 5.112L8.75 12.4l-4.702 2.072.517-5.112-3.423-3.832L6.164 4.44 8.75 0zm16 0l2.586 4.44 5.023 1.088-3.424 3.832.517 5.112L24.75 12.4l-4.702 2.072.517-5.112-3.424-3.832 5.023-1.088L24.75 0zm16 0l2.586 4.44 5.023 1.088-3.424 3.832.517 5.112L40.75 12.4l-4.702 2.072.517-5.112-3.423-3.832 5.022-1.088L40.75 0zm16 0l2.586 4.44 5.023 1.088-3.424 3.832.517 5.112L56.75 12.4l-4.702 2.072.517-5.112-3.423-3.832 5.022-1.088L56.75 0z" fill="#FD902C"/><path d="M72.75.993l2.154 3.699.111.19.215.047 4.184.906-2.852 3.192-.147.164.022.219.431 4.258-3.916-1.725-.202-.09-.202.09-3.916 1.725.43-4.258.023-.22-.147-.163-2.852-3.192 4.184-.906.215-.047.11-.19L72.75.993z" stroke="#FD902C"/><path fill-rule="evenodd" clip-rule="evenodd" d="M72.75 12.4l-4.702 2.072.517-5.112-3.423-3.832 5.022-1.088L72.75 0v12.4z" fill="#FD902C"/></svg>