<svg width="140" height="140" fill="none" xmlns="http://www.w3.org/2000/svg"><g clip-path="url(#clip0_423_5772)" fill="#29394D"><path d="M138 84.379V55.62h-15.674a53.9 53.9 0 00-5.168-12.445l11.092-11.092-20.334-20.334-11.092 11.092a53.878 53.878 0 00-12.445-5.168V2H55.62v15.674a53.878 53.878 0 00-12.445 5.168L32.084 11.75 11.75 32.084l11.092 11.092a54.311 54.311 0 00-1.826 3.487l3.61 1.725A50.225 50.225 0 0127.06 43.9l.82-1.344-10.473-10.472 14.677-14.677L42.556 27.88l1.344-.82a49.927 49.927 0 0114.195-5.895l1.527-.372V6h20.755v14.792l1.527.373A49.928 49.928 0 0196.1 27.06l1.343.82 10.473-10.473 14.676 14.676-10.472 10.472.819 1.344a49.906 49.906 0 015.895 14.196l.373 1.526h14.792v20.756h-14.792l-.373 1.526a49.906 49.906 0 01-5.895 14.196l-.819 1.344 10.472 10.472-14.676 14.676-10.473-10.472-1.343.819a49.94 49.94 0 01-14.196 5.896l-1.527.372v14.792H59.622v-14.792l-1.527-.372a49.938 49.938 0 01-14.195-5.896l-1.344-.819-10.472 10.472-14.677-14.676L27.88 97.444l-.82-1.344a49.927 49.927 0 01-5.895-14.196l-.372-1.526H6V59.622h14.792l.373-1.526a50.143 50.143 0 011.942-6.19l-3.731-1.444a54.045 54.045 0 00-1.703 5.16H2v28.756h15.674a53.878 53.878 0 005.168 12.445L11.75 107.916l20.334 20.334 11.092-11.092a53.9 53.9 0 0012.445 5.168V138H84.38v-15.674a53.9 53.9 0 0012.445-5.168l11.092 11.092 20.334-20.334-11.092-11.093a53.9 53.9 0 005.168-12.445H138z"/><path d="M45.128 94.638l2.843-2.816C42.18 85.977 38.992 78.228 38.992 70c0-17.098 13.91-31.008 31.008-31.008S101.008 52.902 101.008 70 87.098 101.008 70 101.008c-7.049 0-13.69-2.305-19.208-6.665l-2.48 3.14c6.23 4.923 13.73 7.526 21.688 7.526 19.304 0 35.009-15.705 35.009-35.01 0-19.303-15.705-35.008-35.009-35.008-19.304 0-35.009 15.705-35.009 35.01 0 9.288 3.6 18.038 10.137 24.637z"/><path d="M60.894 67.63l-3.244 2.343 8.537 11.819 16.07-19.046-3.058-2.58-12.767 15.131-5.538-7.667z"/><path d="M93.478 75.028c.35-1.643.528-3.334.528-5.028 0-13.237-10.769-24.006-24.006-24.006S45.994 56.763 45.994 70 56.764 94.006 70 94.006a23.947 23.947 0 0022.182-14.812l-3.695-1.534A19.958 19.958 0 0170 90.005c-11.03 0-20.005-8.974-20.005-20.005 0-11.03 8.974-20.005 20.005-20.005 11.03 0 20.005 8.974 20.005 20.005 0 1.414-.148 2.825-.44 4.194l3.913.834zM53.62 30.23a43.11 43.11 0 00-3.794 1.79l1.882 3.53a39.025 39.025 0 013.44-1.623L53.62 30.23zm8.023-2.426a42.86 42.86 0 00-4.072 1.016l1.159 3.83a38.788 38.788 0 013.69-.92l-.777-3.926zm-13.2 9.699l-2.217-3.33a43.417 43.417 0 00-3.374 2.49l2.53 3.1c.979-.8 2.009-1.56 3.06-2.26z"/></g><defs><clipPath id="clip0_423_5772"><path fill="#fff" transform="translate(2 2)" d="M0 0h136v136H0z"/></clipPath></defs></svg>