<svg width="140" height="140" fill="none" xmlns="http://www.w3.org/2000/svg"><g clip-path="url(#clip0_423_5802)" fill="#29394D"><path d="M83.161 116.065a6.588 6.588 0 00-6.58 6.58 6.589 6.589 0 006.58 6.581 6.59 6.59 0 006.581-6.581 6.588 6.588 0 00-6.58-6.58zm0 8.774a2.196 2.196 0 01-2.193-2.194c0-1.211.985-2.193 2.193-2.193 1.209 0 2.194.982 2.194 2.193a2.196 2.196 0 01-2.194 2.194zm-52.645-8.774a6.588 6.588 0 00-6.58 6.58 6.59 6.59 0 006.58 6.581 6.589 6.589 0 006.58-6.581 6.588 6.588 0 00-6.58-6.58zm0 8.774a2.196 2.196 0 01-2.193-2.194c0-1.211.985-2.193 2.193-2.193 1.209 0 2.194.982 2.194 2.193a2.196 2.196 0 01-2.194 2.194zm4.387-87.742a6.589 6.589 0 006.58-6.58 6.589 6.589 0 00-6.58-6.581 6.589 6.589 0 00-6.58 6.58 6.589 6.589 0 006.58 6.58zm0-8.774c1.209 0 2.194.982 2.194 2.193s-.985 2.194-2.194 2.194a2.196 2.196 0 01-2.193-2.194c0-1.21.985-2.193 2.193-2.193zm87.742 52.645a6.59 6.59 0 00-6.581 6.58 6.589 6.589 0 006.581 6.581 6.589 6.589 0 006.581-6.58 6.59 6.59 0 00-6.581-6.581zm0 8.774a2.195 2.195 0 01-2.193-2.194c0-1.21.984-2.193 2.193-2.193s2.194.983 2.194 2.193a2.196 2.196 0 01-2.194 2.194z"/><path d="M124.742 72.354c.033-.786.097-1.57.097-2.354a54.654 54.654 0 00-7.853-28.231c2.244-3.948 3.466-8.452 3.466-13.016v-.43C120.452 13.808 108.644 2 94.129 2 84.394 2 75.894 7.326 71.34 15.205c-8.504-.195-17.138 1.619-24.846 5.271-2.819-3.248-6.965-5.315-11.59-5.315-8.468 0-15.356 6.89-15.356 15.355a15.44 15.44 0 003.071 9.21l.909 1.212a54.504 54.504 0 00-8.285 26.868h-4.469a4.392 4.392 0 00-4.387 4.388v43.871A4.391 4.391 0 002 120.452v4.387a4.392 4.392 0 004.387 4.387h10.277c2.47 5.179 7.743 8.774 13.852 8.774 6.11 0 11.383-3.595 13.852-8.774H69.31c2.47 5.179 7.743 8.774 13.852 8.774 6.11 0 11.383-3.595 13.852-8.774h5.89a4.391 4.391 0 004.387-4.387v-6.041c0-.536-.065-1.071-.195-1.597l-1.404-5.616a54.78 54.78 0 008.704-9.447l8.25 11.003 12.284-16.38a15.441 15.441 0 003.07-9.213c0-7.752-5.782-14.166-13.258-15.194zM94.129 6.387c12.095 0 21.936 9.84 21.936 21.936v.427c0 4.892-1.665 9.707-4.688 13.552L94.129 64.257 76.881 42.302a22.023 22.023 0 01-4.687-13.552v-.427c0-12.096 9.84-21.936 21.935-21.936zM34.903 19.548c6.048 0 10.968 4.92 10.968 10.968 0 2.358-.779 4.697-2.194 6.579l-8.774 11.7-8.774-11.7a11.018 11.018 0 01-2.194-6.579c0-6.047 4.92-10.968 10.968-10.968zM10.774 72.194h17.549v16.71L39.29 83.42l10.968 5.484v-16.71h17.548v43.871H44.368c-2.47-5.179-7.743-8.775-13.852-8.775s-11.382 3.596-13.852 8.775h-5.89V72.194zm21.936 0h13.16v9.612l-6.58-3.29-6.581 3.29v-9.612zm39.484 13.16h20.702c1.007 0 1.885.685 2.128 1.661l.682 2.727H85.355a4.392 4.392 0 00-4.387 4.387v4.387a4.391 4.391 0 004.387 4.387h13.641l3.291 13.162h-5.274c-2.47-5.179-7.743-8.775-13.852-8.775-4.295 0-8.177 1.777-10.967 4.631V85.355zM97.9 98.517H85.355V94.13h11.448l1.097 4.387zM6.387 124.84v-4.387h8.95a15.395 15.395 0 00-.176 2.193c0 .746.073 1.474.176 2.194h-8.95zm24.13 8.774c-6.049 0-10.969-4.92-10.969-10.968 0-6.047 4.92-10.968 10.968-10.968s10.968 4.921 10.968 10.968c0 6.048-4.92 10.968-10.968 10.968zm15.179-8.774c.103-.72.175-1.448.175-2.194s-.072-1.474-.175-2.193h22.286a15.395 15.395 0 00-.176 2.193c0 .746.073 1.474.176 2.194H45.696zm37.465 8.774c-6.047 0-10.967-4.92-10.967-10.968 0-6.047 4.92-10.968 10.967-10.968 6.048 0 10.968 4.921 10.968 10.968 0 6.048-4.92 10.968-10.968 10.968zm15.18-8.774c.103-.72.175-1.448.175-2.194s-.072-1.474-.175-2.193h4.562v4.387h-4.562zm6.153-18.042l-5.212-20.846a6.575 6.575 0 00-6.386-4.983H72.194v-8.774a4.392 4.392 0 00-4.388-4.388H19.627c.351-8.173 2.641-16.06 6.728-23.095l8.548 11.397L47.187 39.73a15.443 15.443 0 003.071-9.213c0-2.257-.502-4.396-1.382-6.328 6.427-2.977 13.293-4.53 20.457-4.62-.97 2.744-1.527 5.681-1.527 8.755v.427c0 5.873 1.999 11.65 5.625 16.263l20.698 26.343 20.115-25.601A50.314 50.314 0 01120.452 70c0 .792-.062 1.588-.097 2.384-7.381 1.112-13.065 7.478-13.065 15.164 0 3.304 1.093 6.575 3.071 9.211l1.266 1.69a50.552 50.552 0 01-7.133 8.348zm26.925-12.67l-8.774 11.7-8.774-11.7a11.017 11.017 0 01-2.194-6.579c0-6.047 4.921-10.967 10.968-10.967 6.048 0 10.968 4.92 10.968 10.967 0 2.358-.779 4.697-2.194 6.579z"/><path d="M94.13 45.87c9.675 0 17.547-7.872 17.547-17.547 0-9.676-7.872-17.549-17.548-17.549-9.676 0-17.548 7.873-17.548 17.549 0 9.675 7.872 17.548 17.548 17.548zm0-30.709c7.258 0 13.16 5.903 13.16 13.162 0 7.258-5.902 13.16-13.16 13.16-7.26 0-13.162-5.902-13.162-13.16 0-7.259 5.903-13.162 13.161-13.162zM54.645 59.032h4.387v4.387h-4.387v-4.387zm8.775 0h4.386v4.387H63.42v-4.387zm8.774 0h4.387v4.387h-4.387v-4.387z"/></g><defs><clipPath id="clip0_423_5802"><path fill="#fff" transform="translate(2 2)" d="M0 0h136v136H0z"/></clipPath></defs></svg>