<svg width="140" height="140" fill="none" xmlns="http://www.w3.org/2000/svg"><path d="M125.25 74.25h-7.822a40.12 40.12 0 00-3.895-9.382l5.537-5.538a2.123 2.123 0 000-3.004L108.832 46.09a2.118 2.118 0 00-1.51-.65 2.126 2.126 0 00-1.494 3.654l8.735 8.734-5.208 5.21a2.127 2.127 0 00-.297 2.633 35.733 35.733 0 014.636 11.174 2.127 2.127 0 002.074 1.655h7.357v12.75h-7.357a2.125 2.125 0 00-2.074 1.655 35.737 35.737 0 01-4.636 11.174 2.123 2.123 0 00.297 2.633l5.208 5.21-9.016 9.016-5.21-5.208a2.127 2.127 0 00-2.636-.297 35.734 35.734 0 01-11.173 4.638 2.125 2.125 0 00-1.653 2.074v9.48a2.126 2.126 0 004.25 0v-7.822a39.975 39.975 0 009.382-3.895l5.538 5.538a2.126 2.126 0 003.004 0l12.021-12.022a2.122 2.122 0 000-3.004l-5.537-5.538a40.126 40.126 0 003.895-9.382h7.822a2.126 2.126 0 002.125-2.125v-17a2.127 2.127 0 00-2.125-2.125zM78.5 129.5h-6.375v-7.355a2.124 2.124 0 00-1.653-2.074 35.712 35.712 0 01-11.173-4.639 2.128 2.128 0 00-2.635.298l-5.21 5.208-9.017-9.016 5.208-5.211a2.124 2.124 0 00.298-2.632 35.807 35.807 0 01-4.64-11.174 2.125 2.125 0 00-2.071-1.655h-7.357V78.5h7.357a2.125 2.125 0 002.072-1.655 35.798 35.798 0 014.639-11.174 2.125 2.125 0 00-.298-2.633l-5.208-5.21 8.712-8.713a2.126 2.126 0 10-3.005-3.004l-10.2 10.21a2.125 2.125 0 000 3.005l5.538 5.538a40.102 40.102 0 00-3.91 9.386H31.75a2.125 2.125 0 00-2.125 2.125v17A2.125 2.125 0 0031.75 95.5h7.822a40.116 40.116 0 003.895 9.382l-5.047 5.047a8.48 8.48 0 00-8.057-8.01 8.482 8.482 0 107.53 11.45c.015.017.022.038.037.055l7.845 7.835-1.362 2.359-2.928-1.7a2.121 2.121 0 00-2.372.168 14.823 14.823 0 01-3.56 2.063 2.127 2.127 0 00-1.327 1.97v3.381h-8.5v-3.372a2.123 2.123 0 00-1.328-1.97 14.88 14.88 0 01-3.562-2.066 2.132 2.132 0 00-1.16-.445 2.133 2.133 0 00-1.21.279l-2.928 1.7-4.25-7.361 2.93-1.7a2.12 2.12 0 001.042-2.125 13.386 13.386 0 010-4.118 2.128 2.128 0 00-1.041-2.125l-2.93-1.7 4.25-7.36 2.928 1.7a2.125 2.125 0 002.37-.166 14.872 14.872 0 013.56-2.066 2.124 2.124 0 001.329-1.97v-5.51a2.125 2.125 0 00-4.25 0v4.127a19.02 19.02 0 00-2.074 1.203l-3.59-2.066a2.125 2.125 0 00-2.902.778l-6.375 11.05a2.124 2.124 0 00.778 2.894l3.574 2.063a15.797 15.797 0 000 2.402l-3.574 2.063a2.126 2.126 0 00-.778 2.898l6.375 11.05a2.123 2.123 0 002.903.778l3.578-2.065a19.06 19.06 0 002.074 1.202v4.123a2.126 2.126 0 002.125 2.125h12.75a2.127 2.127 0 002.125-2.125v-4.127c.717-.356 1.41-.758 2.076-1.203l3.577 2.066a2.11 2.11 0 001.613.213 2.122 2.122 0 001.291-.991l1.856-3.213 1.073 1.075a2.123 2.123 0 003.004 0l5.538-5.537a39.973 39.973 0 009.382 3.895v7.822A2.126 2.126 0 0070 133.75h8.5a2.127 2.127 0 001.503-3.628 2.127 2.127 0 00-1.503-.622zm-48.535-14.875a4.25 4.25 0 110-8.5 4.25 4.25 0 010 8.5z" fill="#29394D"/><path d="M118.875 16.875a14.917 14.917 0 00-12.193 6.375h-4.807v-2.125a6.35 6.35 0 00-7.364-6.293 6.347 6.347 0 00-3.261 1.575 6.278 6.278 0 00-8.5 0 6.278 6.278 0 00-8.5 0 6.347 6.347 0 00-10.625 4.718v1.466a6.758 6.758 0 00-6.415-1.088c-.988.36-1.87.96-2.567 1.747H44.349A14.898 14.898 0 0029.625 10.5h-8.5A14.892 14.892 0 006.25 25.375 2.125 2.125 0 008.375 27.5h12.75a2.125 2.125 0 000-4.25H10.713a10.642 10.642 0 0110.412-8.5h8.5A10.638 10.638 0 0140.25 25.375a2.125 2.125 0 002.125 2.125H53V36H42.375a2.125 2.125 0 00-2.125 2.125A10.638 10.638 0 0129.625 48.75h-8.5a10.642 10.642 0 01-10.412-8.5h18.912a2.125 2.125 0 002.125-2.125v-12.75a2.125 2.125 0 00-4.25 0V36H8.375a2.125 2.125 0 00-2.125 2.125A14.892 14.892 0 0021.125 53h8.5a14.898 14.898 0 0014.724-12.75H53v2.125c0 .33.076.655.223.95L61.5 59.876v6.042a25.481 25.481 0 1042.383 21.273 2.13 2.13 0 00-1.128-2.081 2.117 2.117 0 00-.797-.235A2.15 2.15 0 0099.65 86.8a21.237 21.237 0 01-4.15 10.872V72.28a20.873 20.873 0 013.413 6.8A2.125 2.125 0 00103 77.92a25.39 25.39 0 00-7.5-12.026v-5.64l.78-.78a19.059 19.059 0 005.58-12.75 2.139 2.139 0 00-.562-1.527 2.127 2.127 0 00-3.688 1.358 14.82 14.82 0 01-4.34 9.913l-1.402 1.402a2.126 2.126 0 00-.618 1.505v42.538A21.254 21.254 0 0157.303 86.42 21.25 21.25 0 0161.5 72.163v17.999a2.125 2.125 0 004.25 0V59.375c0-.33-.076-.655-.223-.95L57.25 41.874V27.5a2.124 2.124 0 011.403-2c1.105-.397 2.38.155 3.508 1.515a6.696 6.696 0 011.464 4.287v8.948a2.125 2.125 0 002.125 2.125 8.5 8.5 0 018.5 8.5v8.5a2.125 2.125 0 004.25 0v-8.5a12.727 12.727 0 00-4.645-9.832c.136-.105.267-.213.395-.325a6.278 6.278 0 008.5 0 6.278 6.278 0 008.5 0A6.347 6.347 0 00101.875 36v-8.5h5.971a2.129 2.129 0 001.838-1.063 10.627 10.627 0 0117.631-1.155 10.625 10.625 0 11-17.631 11.78 2.124 2.124 0 00-3.678 2.126 14.874 14.874 0 1012.869-22.313zm-51 4.25a2.125 2.125 0 014.25 0V36a2.125 2.125 0 01-4.25 0V21.125zm10.625 17A2.125 2.125 0 0176.375 36V21.125a2.125 2.125 0 014.25 0V36a2.125 2.125 0 01-2.125 2.125zm8.5 0A2.125 2.125 0 0184.875 36V21.125a2.125 2.125 0 014.25 0V36A2.125 2.125 0 0187 38.125zM97.625 36a2.125 2.125 0 01-4.25 0V21.125a2.125 2.125 0 014.25 0V36z" fill="#29394D"/><path d="M118.875 29.625a2.126 2.126 0 000-4.25 6.377 6.377 0 00-6.253 7.619 6.38 6.38 0 005.009 5.008 6.377 6.377 0 007.619-6.252 2.127 2.127 0 00-3.628-1.503A2.127 2.127 0 00121 31.75a2.129 2.129 0 01-1.312 1.963 2.124 2.124 0 11-.813-4.088z" fill="#29394D"/></svg>