<svg width="140" height="140" fill="none" xmlns="http://www.w3.org/2000/svg"><path d="M131.944 97.412a8.515 8.515 0 00-11.603-3.123l-20.718 11.964a8.456 8.456 0 00-4.803-3.464L63.115 94.31a14.784 14.784 0 00-7.459-.064L44.5 97.03v-3.655a2.125 2.125 0 00-2.125-2.125h-17a2.125 2.125 0 00-2.125 2.125V95.5H8.375a2.125 2.125 0 00-2.125 2.125v29.75a2.126 2.126 0 002.125 2.125H23.25v2.125a2.126 2.126 0 002.125 2.125h17a2.127 2.127 0 002.125-2.125v-2.933l2.741 1.36a15.01 15.01 0 006.651 1.573h31.812a14.73 14.73 0 007.437-1.997l35.7-20.613a8.517 8.517 0 003.103-11.603zM23.25 125.25H10.5v-25.5h12.75v25.5zm17 4.25H27.5v-34h12.75v34zm86.466-24.161l-35.7 20.612a10.577 10.577 0 01-5.312 1.424H53.893a10.533 10.533 0 01-4.76-1.126l-4.633-2.316v-22.526l12.176-3.038a10.549 10.549 0 015.334.042l31.705 8.5a4.236 4.236 0 013.132 3.545 4.23 4.23 0 01-2.112 4.233 4.145 4.145 0 01-3.209.425l-25.351-6.8a2.131 2.131 0 00-2.614 1.509 2.133 2.133 0 001.509 2.613l25.351 6.779a8.64 8.64 0 002.21.297 8.317 8.317 0 004.229-1.147 8.454 8.454 0 003.974-5.164 8.798 8.798 0 00.234-2.869l21.398-12.346a4.304 4.304 0 015.78 1.551 4.25 4.25 0 01-1.53 5.802z" fill="#29394D"/><path d="M33.875 127.375A2.127 2.127 0 0036 125.25v-2.125a2.126 2.126 0 00-4.25 0v2.125a2.126 2.126 0 002.125 2.125zm65.875-89.25h-7.969l-.382-.892L97.05 31.6a2.142 2.142 0 000-3.017l-9.01-9.01a2.142 2.142 0 00-3.017 0l-5.632 5.652-.892-.382v-7.969a2.125 2.125 0 00-2.125-2.125h-12.75a2.125 2.125 0 00-2.125 2.125v7.969l-.892.382-5.632-5.652a2.142 2.142 0 00-3.017 0l-9.01 9.01a2.142 2.142 0 000 3.017l5.652 5.632-.382.892H40.25a2.125 2.125 0 00-2.125 2.125V53a2.125 2.125 0 002.125 2.125h7.969l.382.892-5.652 5.632a2.195 2.195 0 00-.616 1.508c.008.563.228 1.102.616 1.51l9.01 9.01c.405.39.945.611 1.508.615a2.235 2.235 0 001.51-.616l5.63-5.652.893.382v7.969a2.125 2.125 0 002.125 2.125h12.75a2.125 2.125 0 002.125-2.125v-7.969l.892-.382 5.632 5.652a2.225 2.225 0 003.017 0l9.01-9.01c.388-.407.608-.946.617-1.508a2.195 2.195 0 00-.617-1.51l-5.652-5.63.382-.893h7.969A2.126 2.126 0 00101.875 53V40.25a2.127 2.127 0 00-2.125-2.125zm-2.125 12.75h-7.353a2.124 2.124 0 00-2.018 1.466 16.797 16.797 0 01-1.297 3.081 2.16 2.16 0 00.362 2.53l5.227 5.206-6.014 6.013-5.206-5.227a2.16 2.16 0 00-2.528-.361c-.982.533-2.014.967-3.082 1.296a2.125 2.125 0 00-1.466 2.018v7.353h-8.5v-7.353a2.124 2.124 0 00-1.466-2.018 16.797 16.797 0 01-3.082-1.297 2.16 2.16 0 00-2.528.362l-5.206 5.227-6.014-6.014 5.227-5.206a2.16 2.16 0 00.361-2.529 16.797 16.797 0 01-1.296-3.08 2.125 2.125 0 00-2.019-1.467h-7.352v-8.5h7.352a2.124 2.124 0 002.02-1.466 16.76 16.76 0 011.295-3.081 2.16 2.16 0 00-.36-2.53l-5.228-5.206 6.014-6.013 5.206 5.227a2.16 2.16 0 002.529.361 16.797 16.797 0 013.08-1.296 2.125 2.125 0 001.467-2.018V19h8.5v7.352a2.124 2.124 0 001.466 2.02c1.068.328 2.1.762 3.082 1.296a2.16 2.16 0 002.528-.362l5.207-5.227 6.013 6.014-5.227 5.206a2.16 2.16 0 00-.362 2.529c.534.98.968 2.013 1.297 3.08a2.125 2.125 0 002.018 1.467h7.353v8.5z" fill="#29394D"/><path d="M82.75 46.625A12.75 12.75 0 1070 59.375a12.763 12.763 0 0012.75-12.75zm-21.25 0a8.5 8.5 0 1117 0 8.5 8.5 0 01-17 0z" fill="#29394D"/><path d="M118.875 50.875h-4.25A44.628 44.628 0 0070 6.25a44.625 44.625 0 00-44.625 44.625h-4.25a12.75 12.75 0 000 25.5H31.75a2.125 2.125 0 002.125-2.125V53a2.125 2.125 0 00-2.125-2.125h-2.125a40.375 40.375 0 1180.75 0h-2.125A2.126 2.126 0 00106.125 53v21.25a2.127 2.127 0 002.125 2.125h2.125v6.375a2.127 2.127 0 01-2.125 2.125H92.993A6.397 6.397 0 0087 80.625h-4.25a6.375 6.375 0 000 12.75H87a6.397 6.397 0 005.993-4.25h15.257a6.393 6.393 0 006.375-6.375v-6.375h4.25a12.75 12.75 0 100-25.5zm-97.75 21.25a8.5 8.5 0 110-17v17zm8.5 0h-4.25v-17h4.25v17zm57.375 17h-4.25a2.125 2.125 0 010-4.25H87a2.125 2.125 0 010 4.25zm27.625-17h-4.25v-17h4.25v17zm4.25 0v-17a8.5 8.5 0 010 17z" fill="#29394D"/></svg>