<svg width="140" height="140" fill="none" xmlns="http://www.w3.org/2000/svg"><path d="M118.875 68.534v-3.596l.58-.289c10.128-5.064 16.42-15.245 16.42-26.569 0-11.562-6.632-21.932-17-26.836V8.375a4.254 4.254 0 00-4.25-4.25h-4.25a4.254 4.254 0 00-4.25 4.25H91.25c-4.67 0-8.84 2.168-11.569 5.544-1.48-.822-3.14-1.294-4.866-1.294h-60.63c-5.546 0-10.06 4.514-10.06 10.06 0 .476.034.952.102 1.424l3.196 22.376c.703 4.925 4.985 8.64 9.96 8.64h24.992v3.111c0 .391.047.771.127 1.139h-5.996l-1.526 5.578c-.487.183-.973.385-1.456.608l-5.027-2.869-8.305 8.305 2.869 5.027c-.221.483-.425.967-.608 1.456l-5.578 1.524v6.75c-2.51 1.288-4.25 3.875-4.25 6.884 0 .671.09 1.343.261 2l8.239 30.888v1.849c0 4.688 3.812 8.5 8.5 8.5h34a4.254 4.254 0 004.25-4.25v-4.25H104c15.232 0 27.625-12.393 27.625-27.625V87.69a20.738 20.738 0 00-12.75-19.156zm-30.496-1.462a11.99 11.99 0 004.29.803c.57 0 1.14-.04 1.705-.121l8.472-1.211c-2.728 3.397-6.908 5.582-11.596 5.582h-2.488c.233-.665.363-1.38.363-2.125 0-1.063-.285-2.049-.746-2.928zM84.875 70c0 1.17-.954 2.125-2.125 2.125H78.5A2.128 2.128 0 0176.375 70c0-1.17.954-2.125 2.125-2.125h4.25c1.17 0 2.125.954 2.125 2.125zm-2.348-21.611L82 48.125a2.479 2.479 0 01-1.375-2.227c0-.493.144-.97.419-1.381l2.76-4.14a6.354 6.354 0 001.071-3.538v-7.214h17.234c-2.763 2.703-4.484 6.464-4.484 10.625 0 5.918 3.483 11.027 8.5 13.42v3.58c0 1.621-.27 3.179-.75 4.641l-11.603 1.657a7.972 7.972 0 01-1.103.077c-4.296 0-7.794-3.498-7.794-7.794v-3.64c0-1.624-.901-3.08-2.348-3.802zm40.598-8.139c0 5.859-4.766 10.625-10.625 10.625s-10.625-4.766-10.625-10.625 4.766-10.625 10.625-10.625 10.625 4.766 10.625 10.625zm-12.75 17v-2.295c.697.1 1.402.17 2.125.17.723 0 1.428-.07 2.125-.17v13.687a43.52 43.52 0 00-12.75 8.821v-4.32c5.121-3.438 8.5-9.278 8.5-15.893zm21.25-19.17c0 9.2-4.851 17.513-12.75 22.05v-6.46c5.017-2.393 8.5-7.502 8.5-13.42s-3.483-11.027-8.5-13.42v-10.8a25.375 25.375 0 0112.75 22.05zm-17-29.705v17.17a14.92 14.92 0 00-2.125-.17c-.723 0-1.428.07-2.125.17V8.375h4.25zm-23.375 4.25h14.875v12.75H82.75a2.128 2.128 0 01-2.125-2.125c0-5.859 4.766-10.625 10.625-10.625zm-79.62 33.26L8.434 23.51a5.818 5.818 0 015.75-6.634h60.63c.953 0 1.867.253 2.694.689a14.813 14.813 0 00-1.133 5.686c0 2.767 1.783 5.104 4.25 5.984v7.605c0 .421-.123.83-.357 1.18l-2.76 4.141a6.706 6.706 0 00-.825 5.74 5.748 5.748 0 01-4.558 2.937V48.75c0-5.952-3.523-11.084-8.585-13.46 1.358-1.506 2.21-3.48 2.21-5.665 0-4.688-3.812-8.5-8.5-8.5-4.688 0-8.5 3.812-8.5 8.5 0 2.184.852 4.159 2.21 5.665a14.96 14.96 0 00-6.46 5.838 14.948 14.948 0 00-6.46-5.838c1.358-1.506 2.21-3.48 2.21-5.665 0-4.688-3.812-8.5-8.5-8.5-4.688 0-8.5 3.812-8.5 8.5 0 2.184.852 4.159 2.21 5.665-5.062 2.376-8.585 7.508-8.585 13.46v2.078c-2.65-.238-4.862-2.27-5.245-4.943zM46.625 53v-4.25c0-5.859 4.766-10.625 10.625-10.625s10.625 4.766 10.625 10.625v2.125h-7.019l-12.463 8.309c-.71.472-1.77-.094-1.77-.948L46.625 53zM53 29.625a4.254 4.254 0 014.25-4.25 4.254 4.254 0 014.25 4.25 4.254 4.254 0 01-4.25 4.25 4.254 4.254 0 01-4.25-4.25zm-25.5 0a4.254 4.254 0 014.25-4.25 4.254 4.254 0 014.25 4.25 4.254 4.254 0 01-4.25 4.25 4.254 4.254 0 01-4.25-4.25zm-6.375 21.25V48.75c0-5.859 4.766-10.625 10.625-10.625s10.625 4.766 10.625 10.625v2.125h-21.25zm4.66 30.099l.344-1.116c.302-.978.71-1.96 1.216-2.913l.544-1.033-2.4-4.206 3.72-3.718 4.205 2.399 1.033-.544a16.96 16.96 0 012.913-1.216l1.116-.344 1.275-4.66h5.257l1.275 4.66 1.115.344c.978.302 1.96.71 2.914 1.216l1.033.544 4.205-2.4 3.719 3.72-2.4 4.205.545 1.032a17.06 17.06 0 011.215 2.914l.344 1.115 4.66 1.276v5.257l-4.66 1.275-.344 1.115c-.302.978-.71 1.96-1.215 2.914l-.544 1.032 2.399 4.206-3.719 3.719-4.205-2.4-1.033.544c-.954.504-1.934.914-2.913 1.216l-1.116.344-1.28 4.654h-5.257l-1.275-4.66-1.115-.344a16.86 16.86 0 01-2.914-1.216l-1.03-.544-3.906 2.225-4.641-16.711h-3.74v-2.629l4.66-1.272zm-8.91 11.661a3.514 3.514 0 013.51-3.51h1.25l9.446 34h-6.199l-7.888-29.58a3.588 3.588 0 01-.119-.91zm46.75 38.99h-34a4.254 4.254 0 01-4.25-4.25h38.25v4.25zm0-8.5H53.391c.88-2.467 3.217-4.25 5.984-4.25h4.25v4.25zm.391-8.5h-4.641c-5.13 0-9.422 3.657-10.41 8.5H35.49l-4.809-17.317 2.843-1.617c.483.221.967.425 1.456.608l1.524 5.576h11.742l1.526-5.578c.487-.183.973-.385 1.456-.608l5.027 2.869 8.305-8.305-2.869-5.027c.221-.483.425-.967.608-1.456l5.576-1.524V79.004l-5.578-1.526a21.31 21.31 0 00-.608-1.456l2.869-5.028-8.305-8.304-5.027 2.869a21.921 21.921 0 00-1.456-.608l-.43-1.568a5.429 5.429 0 001.407-.665l11.397-7.593h9.473c3.07 0 5.87-1.368 7.742-3.636.235.157.48.306.741.436l.525.263v3.64a11.98 11.98 0 002.956 7.88c-.274-.036-.546-.083-.831-.083H78.5A6.383 6.383 0 0072.125 70a6.383 6.383 0 006.375 6.375h12.75c2.238 0 4.377-.406 6.375-1.116v7.145a43.458 43.458 0 00-8.5 25.846v2.125H70c-2.767 0-5.104 1.783-5.984 4.25zm63.359-14.875c0 12.888-10.487 23.375-23.375 23.375H67.875v-6.375c0-1.171.954-2.125 2.125-2.125h29.75c10.544 0 19.125-8.581 19.125-19.125v-6.375h-4.25V95.5c0 8.202-6.673 14.875-14.875 14.875h-6.375v-2.125a39.206 39.206 0 0123.443-35.968 16.5 16.5 0 0110.557 15.409V99.75z" fill="#29394D"/><path d="M42.375 97.625c7.032 0 12.75-5.718 12.75-12.75s-5.718-12.75-12.75-12.75-12.75 5.718-12.75 12.75 5.718 12.75 12.75 12.75zm0-21.25c4.688 0 8.5 3.812 8.5 8.5 0 4.688-3.812 8.5-8.5 8.5-4.688 0-8.5-3.812-8.5-8.5 0-4.688 3.812-8.5 8.5-8.5zm63.75-36.125a6.383 6.383 0 006.375 6.375v-4.25a2.128 2.128 0 01-2.125-2.125c0-1.17.954-2.125 2.125-2.125s2.125.954 2.125 2.125h4.25a6.383 6.383 0 00-6.375-6.375 6.383 6.383 0 00-6.375 6.375z" fill="#29394D"/></svg>