<svg width="140" height="140" fill="none" xmlns="http://www.w3.org/2000/svg"><path d="M76.846 90.654l-2.379 2.382V82.167c1.317-.469 2.262-1.715 2.262-3.179v-4.69c0-1.864-1.53-3.38-3.412-3.38h-41.97c-1.881 0-3.412 1.516-3.412 3.38v4.69c0 1.464.945 2.71 2.262 3.18v19.546l-2.118 2.209h-3.051a4.85 4.85 0 00-4.464-2.94h-4.056c-2.67 0-4.841 2.152-4.841 4.798v17.755c0 2.645 2.172 4.797 4.841 4.797h4.056a4.848 4.848 0 004.463-2.94h34.47c4.072 0 7.653-1.512 10.355-4.373L92.37 97.182c2.477-2.621 2.174-7.45-.636-10.13-1.356-1.294-6.438-4.857-14.888 3.602zM66.014 101.5c-.667.668-1.301 1.197-1.937 1.615a6.783 6.783 0 00.224-1.733c0-3.418-2.636-6.277-6.12-6.781V82.37h12.64v14.316l-4.807 4.813zm7.07-22.742H58.18V74.53h14.902v4.227zM54.535 74.53v20.163a31.595 31.595 0 01-4.407-.15V74.53h4.407zm-20.693 7.84h12.64v11.694a35.322 35.322 0 00-2.582-.232c-4.342-.224-7.681 1.982-10.058 4.162V82.369zm-2.262-7.84h14.902v4.227H31.58V74.53zm-9.821 49.006c0 .642-.548 1.185-1.196 1.185h-4.056a1.207 1.207 0 01-1.196-1.185v-17.755c0-.642.548-1.185 1.196-1.185h4.056c.648 0 1.196.543 1.196 1.185v17.755zm67.948-28.822L67.191 118.55c-2.024 2.143-4.613 3.229-7.695 3.229h-34.09v-14.244h3.455c.5 0 .978-.203 1.322-.562l4.935-5.149c3.05-3.181 5.697-4.533 8.594-4.385 1.426.074 2.557.234 3.753.403 2.446.346 4.975.704 9.937.303 1.862.146 3.252 1.52 3.252 3.235 0 1.787-1.466 3.241-3.27 3.241h-13.14a1.815 1.815 0 00-1.823 1.806c0 .998.816 1.807 1.823 1.807H57.39c4.557-.001 7.695-.67 11.215-4.195l10.832-10.844c4.118-4.123 7.77-5.447 9.768-3.54 1.377 1.311 1.63 3.864.503 5.058zM123.396 17.5h-4.185a4.946 4.946 0 00-4.545 2.981h-35.19c-4.185 0-7.866 1.554-10.643 4.494l-9.811 10.387H42.393c-.483 0-.947.19-1.289.53a1.799 1.799 0 00-.533 1.277v28.424c0 .997.816 1.806 1.822 1.806h52.5a1.815 1.815 0 001.822-1.806V51.06c8.419-.68 11.931-3.386 15.366-8.54h2.543a4.943 4.943 0 004.587 3.085h4.185c2.722 0 4.937-2.194 4.937-4.892v-18.32c0-2.698-2.215-4.893-4.937-4.893zM73.142 52.393a4.626 4.626 0 01-4.5 3.563c-2.545 0-4.617-2.052-4.617-4.575s2.072-4.576 4.618-4.576a4.59 4.59 0 013.184 1.26 3.897 3.897 0 00-.046.574c0 1.844.554 3.011 1.361 3.754zm.284-7.68a8.336 8.336 0 00-4.783-1.52c-4.556 0-8.263 3.673-8.263 8.188 0 4.515 3.707 8.188 8.263 8.188a8.287 8.287 0 007.936-5.921 20.4 20.4 0 001.445.052c1.937.012 3.725-.61 5.477-1.925 1.929-1.447 6.28-6.13 9.569-9.797V54.66c-4.906.578-8.84 4.334-9.643 9.127H53.355c-.774-4.628-4.469-8.29-9.139-9.056v-6.7c4.67-.767 8.365-4.428 9.14-9.056h25.116c-.296.32-.604.647-.915.978-1.708 1.817-3.127 3.37-4.131 4.76zm-23.79-5.738c-.67 2.632-2.764 4.707-5.42 5.37v-5.37h5.42zm-5.42 19.442c2.656.662 4.75 2.738 5.42 5.37h-5.42v-5.37zm42.93 5.37c.711-2.796 3.031-4.963 5.923-5.476v5.475h-5.922zm23.94-24.88c-.626 0-1.209.318-1.542.843-2.94 4.629-5.292 7.029-12.829 7.685v-8.077c.924.16 1.918.29 2.97.29 2.744 0 5.877-.874 9.169-4.324a1.796 1.796 0 00-.072-2.553 1.834 1.834 0 00-2.577.071c-3.794 3.976-6.858 3.367-10.102 2.721a73.08 73.08 0 00-.873-.17 1.83 1.83 0 00-1.72.6h-.002c-3.832 4.43-10.154 11.36-12.208 12.901-1.114.836-2.109 1.204-3.238 1.193-2.634-.027-2.634-.189-2.634-1.448 0-.025.015-.622 1.323-2.312.955-1.232 2.235-2.594 3.474-3.912 1.473-1.568 2.865-3.049 3.66-4.265.362-.555.39-1.263.07-1.844a1.826 1.826 0 00-1.601-.944H64.015l7.48-7.919c2.1-2.223 4.785-3.35 7.982-3.35h34.796v14.813h-3.187zm13.601 1.806c0 .706-.579 1.28-1.291 1.28h-4.185a1.287 1.287 0 01-1.292-1.28v-18.32c0-.706.579-1.28 1.292-1.28h4.185c.712 0 1.291.574 1.291 1.28v18.32z" fill="#29394D"/></svg>