<svg width="140" height="140" fill="none" xmlns="http://www.w3.org/2000/svg"><path d="M30.814 92.896a1.512 1.512 0 01-1.511-1.51V13.423H14.192v77.961a1.512 1.512 0 01-3.023 0V11.913c0-.834.677-1.511 1.511-1.511h18.134c.834 0 1.511.677 1.511 1.51v79.473c0 .834-.677 1.511-1.511 1.511zm18.995-67.912h-11.56a1.512 1.512 0 01-1.351-2.185l5.778-11.56a1.51 1.51 0 012.702 0l5.781 11.56a1.513 1.513 0 01-1.35 2.185zm-9.115-3.022h6.67l-3.337-6.67-3.334 6.67z" fill="#29394D"/><path d="M49.809 84.168a1.512 1.512 0 01-1.512-1.51V23.472a1.512 1.512 0 013.023 0v59.181c0 .837-.677 1.514-1.511 1.514zm-11.56 0a1.512 1.512 0 01-1.512-1.51V23.472a1.512 1.512 0 013.023 0v59.181c0 .837-.677 1.514-1.511 1.514z" fill="#29394D"/><path d="M45.444 92.896h-2.828a5.882 5.882 0 01-5.876-5.875v-4.364c0-.834.677-1.511 1.512-1.511h11.56c.834 0 1.51.677 1.51 1.511v4.364a5.886 5.886 0 01-5.878 5.875zm-5.684-8.728v2.853a2.856 2.856 0 002.853 2.853h2.828a2.856 2.856 0 002.853-2.853v-2.853H39.76zm4.27-6.383a1.512 1.512 0 01-1.511-1.51V29.852a1.512 1.512 0 013.022 0v46.421a1.51 1.51 0 01-1.511 1.511zM17.12 20.974h-4.44a1.512 1.512 0 010-3.023h4.44a1.512 1.512 0 010 3.023zm0 8.048h-4.44a1.512 1.512 0 010-3.022h4.44a1.512 1.512 0 010 3.022zm0 8.045h-4.44a1.512 1.512 0 010-3.022h4.44a1.512 1.512 0 010 3.022zm0 8.048h-4.44a1.512 1.512 0 010-3.022h4.44a1.512 1.512 0 010 3.022zm0 8.045h-4.44a1.512 1.512 0 010-3.022h4.44a1.512 1.512 0 010 3.022zm0 8.048h-4.44a1.512 1.512 0 010-3.022h4.44a1.512 1.512 0 010 3.022zm0 8.046h-4.44a1.512 1.512 0 010-3.023h4.44a1.512 1.512 0 010 3.023zm0 8.048h-4.44a1.512 1.512 0 010-3.023h4.44a1.512 1.512 0 010 3.023zm0 8.045h-4.44a1.512 1.512 0 010-3.022h4.44a1.512 1.512 0 010 3.022zm43.66-3.028a1.512 1.512 0 01-1.512-1.511V33.117a1.512 1.512 0 013.022 0v47.69c0 .835-.677 1.512-1.51 1.512z" fill="#29394D"/><path d="M64.315 34.628h-7.072a1.512 1.512 0 010-3.022h7.072a1.512 1.512 0 010 3.022zm0 47.691h-7.072a1.512 1.512 0 010-3.023h7.072a1.512 1.512 0 010 3.023zm60.771-28.098H74.141a3.906 3.906 0 01-3.902-3.902V35.846a3.905 3.905 0 013.901-3.902h50.946a3.906 3.906 0 013.902 3.902v14.473a3.906 3.906 0 01-3.902 3.902zM74.141 34.966a.89.89 0 00-.88.88v14.473c0 .478.402.88.88.88h50.945a.89.89 0 00.88-.88V35.846a.89.89 0 00-.88-.88H74.141zm50.945 47.017h-18.173a3.906 3.906 0 01-3.901-3.902V63.608a3.906 3.906 0 013.901-3.902h18.173a3.906 3.906 0 013.902 3.902v14.473a3.906 3.906 0 01-3.902 3.902zm-18.173-19.255a.89.89 0 00-.879.88v14.473c0 .478.402.88.879.88h18.173a.89.89 0 00.879-.88V63.608a.89.89 0 00-.879-.88h-18.173zM91.068 81.983H74.14a3.906 3.906 0 01-3.902-3.902V63.608a3.906 3.906 0 013.901-3.902h16.928a3.906 3.906 0 013.902 3.902v14.473a3.904 3.904 0 01-3.902 3.902zM74.14 62.728a.89.89 0 00-.88.88v14.473c0 .478.402.88.88.88h16.927a.89.89 0 00.88-.88V63.608a.89.89 0 00-.88-.88H74.14z" fill="#29394D"/><path d="M128.921 107.013H11.239c-4.382 0-7.952-3.566-7.952-7.951V28.976c0-4.382 3.567-7.951 7.952-7.951h1.441a1.512 1.512 0 010 3.022h-1.44a4.934 4.934 0 00-4.93 4.93v70.085a4.935 4.935 0 004.93 4.929h117.68a4.931 4.931 0 004.926-4.93V28.977a4.933 4.933 0 00-4.926-4.929H49.343a1.512 1.512 0 010-3.022h79.578c4.382 0 7.949 3.566 7.949 7.951v70.086c0 4.385-3.567 7.951-7.949 7.951zM38.714 24.05h-7.9a1.512 1.512 0 010-3.022h7.9a1.512 1.512 0 010 3.022z" fill="#29394D"/><path d="M135.359 92.896H4.799a1.512 1.512 0 010-3.022h130.56a1.512 1.512 0 010 3.022zm-47.945 27.738a1.512 1.512 0 01-1.511-1.511v-13.621a1.512 1.512 0 013.022 0v13.621c0 .834-.677 1.511-1.51 1.511zm-34.67 0a1.512 1.512 0 01-1.512-1.511v-13.621a1.512 1.512 0 013.022 0v13.621c0 .834-.677 1.511-1.51 1.511z" fill="#29394D"/><path d="M67.603 113.822h-14.86a1.512 1.512 0 010-3.022h14.86a1.512 1.512 0 010 3.022zm23.773 16.224H48.781a6.225 6.225 0 01-6.217-6.217v-2.723a3.498 3.498 0 013.494-3.494h48.044a3.498 3.498 0 013.494 3.494v2.723c-.003 3.427-2.793 6.217-6.22 6.217zm-45.318-9.412a.478.478 0 00-.471.472v2.723a3.197 3.197 0 003.194 3.194h42.595a3.197 3.197 0 003.195-3.194v-2.723a.478.478 0 00-.472-.472H46.058zm12.506-18.203a3.99 3.99 0 01-3.986-3.986 3.992 3.992 0 013.986-3.986 3.992 3.992 0 013.986 3.986 3.992 3.992 0 01-3.986 3.986zm0-4.953a.965.965 0 10.001 1.93.965.965 0 00-.001-1.93zm11.515 4.953a3.99 3.99 0 01-3.987-3.986 3.992 3.992 0 013.987-3.986 3.992 3.992 0 013.986 3.986 3.99 3.99 0 01-3.986 3.986zm0-4.953a.965.965 0 100 1.93.965.965 0 000-1.93zm11.514 4.953a3.99 3.99 0 01-3.986-3.986 3.992 3.992 0 013.986-3.986 3.992 3.992 0 013.987 3.986 3.99 3.99 0 01-3.987 3.986zm0-4.953a.965.965 0 10.001 1.93.965.965 0 000-1.93z" fill="#29394D"/></svg>