<svg width="24" height="24" fill="none" xmlns="http://www.w3.org/2000/svg"><path d="M5.605 7.37c-.244-.1-.563-.008-.563-.375-.008-.444.025-.506.514-.506.938 0 1.876-.007 2.814.008.22 0 .547-.138.588.268.04.429 0 .49-.539.59v12.588h-.456v-.988c-.824.306-1.46.85-2.35 1.087-.008-4.288-.008-8.491-.008-12.672zm.449 8.92l1.99-1.056c-.71-.375-1.33-.697-1.99-1.05v2.107zm.008-8.422v2.098c.669-.352 1.289-.682 1.99-1.05l-1.99-1.048zm-.008 11.577c.685-.36 1.297-.681 1.99-1.049-.718-.375-1.338-.704-1.99-1.049v2.098zm0-8.415v2.098c.669-.352 1.297-.681 1.99-1.049-.71-.375-1.313-.697-1.99-1.049zm1.868 3.66v-2.075c-.67.352-1.28.674-1.966 1.041.693.36 1.305.682 1.966 1.034zm0 3.155V15.77l-1.966 1.034c.701.375 1.313.696 1.966 1.04zm.016-8.4c-.685.36-1.305.69-1.982 1.05.701.367 1.321.688 1.982 1.04v-2.09zM7.93 7.347H5.972c.71.368 1.305.69 1.958 1.026V7.347zM22 3.526v2.627H8.909v-.368c.269-.015.522-.023.79-.038-.228-.758-1.019-1.317-.774-2.22H22zM10.312 5.862c.4-.705.734-1.302 1.084-1.915H9.218c.368.636.702 1.226 1.094 1.915zm11.076-1.915h-2.17c.367.636.71 1.233 1.093 1.907.392-.697.726-1.286 1.077-1.907zm-5.514-.022c.376.658.718 1.248 1.101 1.921.392-.689.726-1.286 1.093-1.921h-2.194zm-3.328.007c.376.659.718 1.248 1.102 1.922.391-.697.734-1.294 1.093-1.922h-2.195zm-1.655 1.8h2.17c-.368-.644-.702-1.24-1.086-1.907l-1.084 1.907zm7.748-1.915c-.391.69-.734 1.287-1.084 1.915h2.17c-.36-.636-.694-1.226-1.086-1.915zm-4.42 1.915h2.177c-.367-.644-.701-1.24-1.085-1.922-.391.696-.726 1.286-1.092 1.922zm7.283-.95c-.016-.015-.04-.023-.057-.038-.18.321-.359.643-.546.995h.611c-.008-.329-.008-.643-.008-.957zM8.656 6.252h-3.32c0-.957-.008-1.899.008-2.84.008-.268.22-.406.498-.406.775-.008 1.55-.008 2.324 0 .302 0 .49.153.49.452v2.794zm-.245-2.74c-.53 0-1.044-.032-1.55.014-.155.016-.375.238-.4.39a3.328 3.328 0 000 1.065c.025.146.229.36.368.368.514.046 1.044.015 1.574.015.008-.635.008-1.225.008-1.853zM2 3.519h3.108c.18.888-.628 1.447-.84 2.235h.848c.008.154.016.268.024.406H2.008C2 5.28 2 4.422 2 3.52zm.538.413c.376.659.718 1.248 1.101 1.93.392-.697.735-1.294 1.093-1.93H2.538zm-.049.796v1.019h.571c-.187-.337-.35-.628-.57-1.019zM6.96 20.992c-.653 0-1.306-.015-1.958.008-.334.007-.416-.13-.416-.414 0-.29.106-.406.432-.406 1.313.008 2.635.008 3.948 0 .31 0 .432.085.432.39 0 .315-.098.437-.44.422-.669-.015-1.33 0-1.998 0zm10.831-14.61h3.467c.09.613-.033.75-.636.75h-2.203c-.595 0-.726-.152-.628-.75zm2.154 4.824c.097.3-.025.506-.229.536-.187.031-.49-.038-.587-.168-.253-.33.016-.551.302-.735-.155-.13-.343-.222-.408-.368-.074-.16-.114-.444-.017-.528.384-.352.27-.773.278-1.18.008-.459 0-.91 0-1.385h.465c0 .666-.008 1.317.008 1.96a.78.78 0 00.18.429c.277.33.236.681-.107.926-.204.154-.4.33-.546.529-.05.069.016.268.098.344.057.054.253.023.35-.03.082-.062.115-.184.213-.33zm-.433-1.347c-.106.153-.22.245-.212.321.017.085.147.146.229.222.073-.076.195-.153.204-.23.008-.084-.107-.168-.22-.313z" fill="#FE7A41"/></svg>