<svg width="1045" height="530" viewBox="0 0 1045 530" fill="none" xmlns="http://www.w3.org/2000/svg">
<g filter="url(#filter0_f_428_5805)">
<path d="M414.4 141.2C433.6 117.733 462.8 106 502 106C541.2 106 570.267 117.733 589.2 141.2C608.4 164.667 618 202.933 618 256C618 309.067 608.4 347.333 589.2 370.8C570.267 394.267 541.2 406 502 406C462.8 406 433.6 394.267 414.4 370.8C395.467 347.333 386 309.067 386 256C386 202.933 395.467 164.667 414.4 141.2ZM466.4 332.4C474.133 347.067 486 354.4 502 354.4C518 354.4 529.733 347.067 537.2 332.4C544.933 317.733 548.8 292.267 548.8 256C548.8 219.733 544.933 194.267 537.2 179.6C529.733 164.933 518 157.6 502 157.6C486 157.6 474.133 164.933 466.4 179.6C458.933 194.267 455.2 219.733 455.2 256C455.2 292.267 458.933 317.733 466.4 332.4Z" fill="#E0E0E0"/>
</g>
<g filter="url(#filter1_f_428_5805)">
<path d="M236.4 299.8V199.4H235.6L166.4 299V299.8H236.4ZM301.6 299.8H343.6V353H301.6V409H236.4V353H106.4V299.8L236.4 117H301.6V299.8Z" fill="#E0E0E0"/>
</g>
<g filter="url(#filter2_f_428_5805)">
<path d="M831.4 299.8V199.4H830.6L761.4 299V299.8H831.4ZM896.6 299.8H938.6V353H896.6V409H831.4V353H701.4V299.8L831.4 117H896.6V299.8Z" fill="#E0E0E0"/>
</g>
<path d="M320.4 164.8H204L201.2 219.2H202C214.267 213.867 227.067 211.2 240.4 211.2C270.267 211.2 293.333 219.2 309.6 235.2C325.867 251.2 334 273.733 334 302.8C334 371.6 293.067 406 211.2 406C181.333 406 153.333 400.4 127.2 389.2L141.2 335.2C167.6 346.4 190 352 208.4 352C247.6 352 267.2 335.6 267.2 302.8C267.2 276.133 253.867 262.8 227.2 262.8C215.467 262.8 203.867 267.867 192.4 278H134.4L142.4 110H320.4V164.8Z" fill="white"/>
<path d="M737.4 141.2C756.6 117.733 785.8 106 825 106C864.2 106 893.267 117.733 912.2 141.2C931.4 164.667 941 202.933 941 256C941 309.067 931.4 347.333 912.2 370.8C893.267 394.267 864.2 406 825 406C785.8 406 756.6 394.267 737.4 370.8C718.467 347.333 709 309.067 709 256C709 202.933 718.467 164.667 737.4 141.2ZM789.4 332.4C797.133 347.067 809 354.4 825 354.4C841 354.4 852.733 347.067 860.2 332.4C867.933 317.733 871.8 292.267 871.8 256C871.8 219.733 867.933 194.267 860.2 179.6C852.733 164.933 841 157.6 825 157.6C809 157.6 797.133 164.933 789.4 179.6C781.933 194.267 778.2 219.733 778.2 256C778.2 292.267 781.933 317.733 789.4 332.4Z" fill="white"/>
<mask id="mask0_428_5805" style="mask-type:alpha" maskUnits="userSpaceOnUse" x="313" y="52" width="368" height="239">
<rect x="313" y="52" width="368" height="239" fill="#D9D9D9"/>
</mask>
<g mask="url(#mask0_428_5805)">
<path d="M425.4 138.2C444.6 114.733 473.8 103 513 103C552.2 103 581.267 114.733 600.2 138.2C619.4 161.667 629 199.933 629 253C629 306.067 619.4 344.333 600.2 367.8C581.267 391.267 552.2 403 513 403C473.8 403 444.6 391.267 425.4 367.8C406.467 344.333 397 306.067 397 253C397 199.933 406.467 161.667 425.4 138.2ZM477.4 329.4C485.133 344.067 497 351.4 513 351.4C529 351.4 540.733 344.067 548.2 329.4C555.933 314.733 559.8 289.267 559.8 253C559.8 216.733 555.933 191.267 548.2 176.6C540.733 161.933 529 154.6 513 154.6C497 154.6 485.133 161.933 477.4 176.6C469.933 191.267 466.2 216.733 466.2 253C466.2 289.267 469.933 314.733 477.4 329.4Z" fill="white"/>
</g>
<mask id="mask1_428_5805" style="mask-type:alpha" maskUnits="userSpaceOnUse" x="313" y="291" width="368" height="239">
<rect x="313" y="291" width="368" height="239" fill="#D9D9D9"/>
</mask>
<g mask="url(#mask1_428_5805)">
<path d="M425.4 138.2C444.6 114.733 473.8 103 513 103C552.2 103 581.267 114.733 600.2 138.2C619.4 161.667 629 199.933 629 253C629 306.067 619.4 344.333 600.2 367.8C581.267 391.267 552.2 403 513 403C473.8 403 444.6 391.267 425.4 367.8C406.467 344.333 397 306.067 397 253C397 199.933 406.467 161.667 425.4 138.2ZM477.4 329.4C485.133 344.067 497 351.4 513 351.4C529 351.4 540.733 344.067 548.2 329.4C555.933 314.733 559.8 289.267 559.8 253C559.8 216.733 555.933 191.267 548.2 176.6C540.733 161.933 529 154.6 513 154.6C497 154.6 485.133 161.933 477.4 176.6C469.933 191.267 466.2 216.733 466.2 253C466.2 289.267 469.933 314.733 477.4 329.4Z" fill="white"/>
</g>
<defs>
<filter id="filter0_f_428_5805" x="280" y="0" width="444" height="512" filterUnits="userSpaceOnUse" color-interpolation-filters="sRGB">
<feFlood flood-opacity="0" result="BackgroundImageFix"/>
<feBlend mode="normal" in="SourceGraphic" in2="BackgroundImageFix" result="shape"/>
<feGaussianBlur stdDeviation="53" result="effect1_foregroundBlur_428_5805"/>
</filter>
<filter id="filter1_f_428_5805" x="0.400024" y="11" width="449.2" height="504" filterUnits="userSpaceOnUse" color-interpolation-filters="sRGB">
<feFlood flood-opacity="0" result="BackgroundImageFix"/>
<feBlend mode="normal" in="SourceGraphic" in2="BackgroundImageFix" result="shape"/>
<feGaussianBlur stdDeviation="53" result="effect1_foregroundBlur_428_5805"/>
</filter>
<filter id="filter2_f_428_5805" x="595.4" y="11" width="449.2" height="504" filterUnits="userSpaceOnUse" color-interpolation-filters="sRGB">
<feFlood flood-opacity="0" result="BackgroundImageFix"/>
<feBlend mode="normal" in="SourceGraphic" in2="BackgroundImageFix" result="shape"/>
<feGaussianBlur stdDeviation="53" result="effect1_foregroundBlur_428_5805"/>
</filter>
</defs>
</svg>
