<svg width="24" height="24" viewBox="0 0 24 24" fill="none" xmlns="http://www.w3.org/2000/svg">
<path d="M5.3335 17H6.00016V17.6667H5.3335V17Z" fill="black"/>
<path d="M6.6665 17H7.33317V17.6667H6.6665V17Z" fill="black"/>
<path d="M17.6665 15.3334H20.3332V16H17.6665V15.3334Z" fill="black"/>
<path d="M16 12.6666H16.6667V13.3333H16V12.6666Z" fill="black"/>
<path d="M15 15.3334H15.6667V16H15V15.3334Z" fill="black"/>
<path d="M11.3335 12.6666C11.5313 12.6666 11.7246 12.608 11.8891 12.4981C12.0535 12.3882 12.1817 12.232 12.2574 12.0493C12.3331 11.8666 12.3529 11.6655 12.3143 11.4715C12.2757 11.2776 12.1805 11.0994 12.0406 10.9595C11.9008 10.8197 11.7226 10.7244 11.5286 10.6858C11.3346 10.6473 11.1335 10.6671 10.9508 10.7427C10.7681 10.8184 10.6119 10.9466 10.502 11.1111C10.3921 11.2755 10.3335 11.4688 10.3335 11.6666C10.3338 11.9318 10.4392 12.1859 10.6267 12.3734C10.8142 12.5609 11.0684 12.6663 11.3335 12.6666ZM11.3335 11.3333C11.3994 11.3333 11.4639 11.3528 11.5187 11.3895C11.5735 11.4261 11.6162 11.4782 11.6415 11.5391C11.6667 11.6 11.6733 11.667 11.6604 11.7317C11.6476 11.7963 11.6158 11.8557 11.5692 11.9023C11.5226 11.9489 11.4632 11.9807 11.3985 11.9936C11.3339 12.0064 11.2668 11.9998 11.2059 11.9746C11.145 11.9494 11.093 11.9066 11.0563 11.8518C11.0197 11.797 11.0002 11.7326 11.0002 11.6666C11.0003 11.5783 11.0354 11.4935 11.0979 11.431C11.1604 11.3685 11.2451 11.3334 11.3335 11.3333Z" fill="black"/>
<path d="M3.3335 12H4.00016V12.6667H3.3335V12Z" fill="black"/>
<path d="M4.6665 12H5.33317V12.6667H4.6665V12Z" fill="black"/>
<path d="M4.6665 13.3334H5.33317V14H4.6665V13.3334Z" fill="black"/>
<path d="M3.3335 13.3334H4.00016V14H3.3335V13.3334Z" fill="black"/>
<path d="M21.6667 3H13C12.9116 3 12.8268 3.03512 12.7643 3.09763C12.7018 3.16014 12.6667 3.24493 12.6667 3.33333V4.66667C12.6667 4.75507 12.7018 4.83986 12.7643 4.90237C12.8268 4.96488 12.9116 5 13 5H14.1953L15.3333 6.13808V6.5C15.3333 6.5442 15.3158 6.5866 15.2845 6.61785C15.2533 6.64911 15.2109 6.66667 15.1667 6.66667C15.1225 6.66667 15.0801 6.64911 15.0488 6.61785C15.0176 6.5866 15 6.5442 15 6.5V6.33333C15 6.24493 14.9649 6.16014 14.9024 6.09763C14.8399 6.03512 14.7551 6 14.6667 6C14.5783 6 14.4935 6.03512 14.431 6.09763C14.3685 6.16014 14.3333 6.24493 14.3333 6.33333V6.5C14.3333 6.72101 14.4211 6.93298 14.5774 7.08926C14.7337 7.24554 14.9457 7.33333 15.1667 7.33333C15.3877 7.33333 15.5996 7.24554 15.7559 7.08926C15.9122 6.93298 16 6.72101 16 6.5V6.13808L17.1381 5H18V8H11.3337H11.3318C11.3233 7.99998 11.3148 8.00051 11.3064 8.00158C11.2599 8.00512 11.2147 8.01842 11.1737 8.04063L7.82679 9.86625L6.88008 9.07717C6.82016 9.02728 6.74464 8.99997 6.66667 9H4C3.99896 9 3.99825 9 3.99725 9C3.9098 9.00063 3.82612 9.03565 3.76429 9.0975L2.09763 10.7642C2.06662 10.7951 2.04203 10.8319 2.02527 10.8723C2.00852 10.9128 1.99993 10.9562 2 11V21C2 21.0884 2.03512 21.1732 2.09763 21.2357C2.16014 21.2982 2.24493 21.3333 2.33333 21.3333H21.3333C21.4217 21.3333 21.5065 21.2982 21.569 21.2357C21.6315 21.1732 21.6667 21.0884 21.6667 21V10.3333C21.6667 10.2785 21.6531 10.2244 21.6272 10.1761C21.6013 10.1277 21.5639 10.0864 21.5182 10.056L20 9.04383V5H21.6667C21.7551 5 21.8399 4.96488 21.9024 4.90237C21.9649 4.83986 22 4.75507 22 4.66667V3.33333C22 3.24493 21.9649 3.16014 21.9024 3.09763C21.8399 3.03512 21.7551 3 21.6667 3ZM19.6667 4.33333H19L19.3333 3.88888L19.6667 4.33333ZM17 4.33333L17.3333 3.88888L17.6667 4.33333H17ZM14 3.66667H14.6667L14.3333 4.11112L14 3.66667ZM15.3333 3.88888L15.6667 4.33333H15L15.3333 3.88888ZM16 3.66667H16.6667L16.3333 4.11112L16 3.66667ZM18 3.66667H18.6667L18.3333 4.11112L18 3.66667ZM20 3.66667H20.6667L20.3333 4.11112L20 3.66667ZM13.3333 3.88888L13.6667 4.33333H13.3333V3.88888ZM15.6667 5.52863L15.1381 5H16.1953L15.6667 5.52863ZM19.3333 8.33333H18.9342L18.6667 8.15496V7.66667H19.3333V8.33333ZM15.6667 19.6667V20.6667H13.1796L14.3046 18.1354C14.3271 18.0846 14.3367 18.029 14.3323 17.9737C14.3279 17.9183 14.3097 17.8649 14.2795 17.8184C14.2492 17.7718 14.2078 17.7335 14.159 17.707C14.1102 17.6805 14.0555 17.6667 14 17.6667H11.3333C11.2816 17.6667 11.2305 17.6787 11.1843 17.7019L9.92129 18.3333H8.66667V17.3333H18.3333V18H17.3333C17.2449 18 17.1601 18.0351 17.0976 18.0976C17.0351 18.1601 17 18.2449 17 18.3333V19.3333H16C15.9116 19.3333 15.8268 19.3685 15.7643 19.431C15.7018 19.4935 15.6667 19.5783 15.6667 19.6667ZM2.66667 16.6667V11.3333H6V15.6667H5.33333C5.33333 15.4015 5.22798 15.1471 5.04044 14.9596C4.8529 14.772 4.59855 14.6667 4.33333 14.6667C4.06812 14.6667 3.81376 14.772 3.62623 14.9596C3.43869 15.1471 3.33333 15.4015 3.33333 15.6667V16.6667H2.66667ZM21 12V12.6667H18.6667V13.3333H21V14H18V12H21ZM15.3333 14V12H17.3333V14H15.3333ZM16.3333 16.6667H14.3333V14.6667H16.3333V16.6667ZM15.3333 11.3333V10.6667H18V11.3333H15.3333ZM11.3333 8.71304L14.6667 10.5312V14H14C13.9116 14 13.8268 14.0351 13.7643 14.0976C13.7018 14.1601 13.6667 14.2449 13.6667 14.3333V16.6667H13V15C13 14.558 12.8244 14.134 12.5118 13.8215C12.1993 13.5089 11.7754 13.3333 11.3333 13.3333C10.8913 13.3333 10.4674 13.5089 10.1548 13.8215C9.84226 14.134 9.66667 14.558 9.66667 15V16.6667H8.66667V16C8.66667 15.9116 8.63155 15.8268 8.56904 15.7643C8.50652 15.7018 8.42174 15.6667 8.33333 15.6667H8V10.5313L11.3333 8.71304ZM12.3333 16.6667H10.3333V15C10.3333 14.7348 10.4387 14.4804 10.6262 14.2929C10.8138 14.1054 11.0681 14 11.3333 14C11.5986 14 11.8529 14.1054 12.0404 14.2929C12.228 14.4804 12.3333 14.7348 12.3333 15V16.6667ZM7.33333 15.6667H6.66667V11.3333H7.33333V15.6667ZM4 16V15.6667C4 15.5783 4.03512 15.4935 4.09763 15.431C4.16014 15.3685 4.24493 15.3333 4.33333 15.3333C4.42174 15.3333 4.50652 15.3685 4.56904 15.431C4.63155 15.4935 4.66667 15.5783 4.66667 15.6667H4.33333C4.24493 15.6667 4.16014 15.7018 4.09763 15.7643C4.03512 15.8268 4 15.9116 4 16ZM4.66667 16.3333H8V18.3333H4.66667V16.3333ZM4.10858 19H10C10.0518 19 10.1028 18.988 10.1491 18.9648L11.412 18.3333H13.487L13.0426 19.3333H4.20383L4.10858 19ZM17 16.6667V14.6667H21V16.6667H17ZM21 11.3333H20V10.6667H21V11.3333ZM19.3333 11.3333H18.6667V10.6667H19.3333V11.3333ZM18.6667 10V9H18.7324L19.3333 9.40063V10H18.6667ZM19.3333 7H18.6667V6.33333H19.3333V7ZM18 10H15.085L12.6406 8.66667H18V10ZM6.54583 9.66667L7.33388 10.3235C7.33388 10.3268 7.33321 10.33 7.33321 10.3333V10.6667H6.44017L5.04017 9.66667H6.54583ZM4.03592 9.76871L5.29317 10.6667H3.13804L4.03592 9.76871ZM2.66667 17.3333H4V18.3333H3.66667C3.61506 18.3333 3.56416 18.3453 3.51798 18.3683C3.47179 18.3913 3.43158 18.4248 3.40051 18.466C3.36944 18.5072 3.34836 18.555 3.33893 18.6058C3.3295 18.6565 3.33198 18.7087 3.34617 18.7583L3.89142 20.6667H2.66667V17.3333ZM4.58475 20.6667L4.39429 20H12.7463L12.45 20.6667H4.58475ZM21 20.6667H16.3333V20H17.3333C17.4217 20 17.5065 19.9649 17.569 19.9024C17.6315 19.8399 17.6667 19.7551 17.6667 19.6667V18.6667H18.6667C18.7551 18.6667 18.8399 18.6315 18.9024 18.569C18.9649 18.5065 19 18.4217 19 18.3333V17.3333H21V20.6667ZM20.2324 10H20V9.84504L20.2324 10ZM19.3333 5.66667H18.6667V5H19.3333V5.66667ZM21 4.33333L21.3333 3.88888V4.33333H21Z" fill="black"/>
</svg>
