<svg width="24" height="24" viewBox="0 0 24 24" fill="none" xmlns="http://www.w3.org/2000/svg">
<path fill-rule="evenodd" clip-rule="evenodd" d="M1.95654 5.72998C1.95654 5.45384 2.1804 5.22998 2.45654 5.22998H6.35696C6.50212 5.22998 6.64012 5.29307 6.73509 5.40285C6.83007 5.51263 6.87264 5.65827 6.85176 5.80192L4.77694 20.0721C4.74121 20.3178 4.5305 20.5001 4.28214 20.5001H2.45654C2.1804 20.5001 1.95654 20.2763 1.95654 20.0001V5.72998ZM2.95654 6.22998V19.5001H3.84959L5.779 6.22998H2.95654Z" fill="#FE7A41"/>
<path fill-rule="evenodd" clip-rule="evenodd" d="M4.839 2.50195C4.98333 2.50195 5.12062 2.56432 5.21557 2.67303L7.59806 5.40064C7.72707 5.54834 7.75783 5.75783 7.67672 5.93638C7.5956 6.11492 7.4176 6.22957 7.22149 6.22957H2.45655C2.26044 6.22957 2.08244 6.11493 2.00133 5.93638C1.92021 5.75783 1.95096 5.54835 2.07997 5.40065L4.46242 2.67303C4.55737 2.56433 4.69466 2.50195 4.839 2.50195ZM4.839 3.76201L3.55715 5.22957H6.12087L4.839 3.76201Z" fill="#FE7A41"/>
<path fill-rule="evenodd" clip-rule="evenodd" d="M9.61297 2.50195C9.7573 2.50195 9.89459 2.56433 9.98954 2.67303L12.372 5.40065C12.501 5.54835 12.5318 5.75783 12.4506 5.93638C12.3695 6.11493 12.1915 6.22957 11.9954 6.22957H7.23048C7.03437 6.22957 6.85636 6.11492 6.77525 5.93638C6.69414 5.75783 6.72489 5.54834 6.8539 5.40064L9.23639 2.67303C9.33134 2.56432 9.46864 2.50195 9.61297 2.50195ZM8.33109 5.22957H10.8948L9.61296 3.76201L8.33109 5.22957Z" fill="#FE7A41"/>
<path fill-rule="evenodd" clip-rule="evenodd" d="M14.3869 2.50195C14.5312 2.50195 14.6685 2.56433 14.7635 2.67303L17.1459 5.40065C17.2749 5.54835 17.3057 5.75783 17.2246 5.93638C17.1435 6.11493 16.9655 6.22957 16.7693 6.22957H12.0044C11.8083 6.22957 11.6303 6.11492 11.5492 5.93638C11.4681 5.75783 11.4988 5.54834 11.6278 5.40064L14.0103 2.67303C14.1053 2.56432 14.2426 2.50195 14.3869 2.50195ZM13.105 5.22957H15.6687L14.3869 3.76201L13.105 5.22957Z" fill="#FE7A41"/>
<path fill-rule="evenodd" clip-rule="evenodd" d="M19.1613 2.50195C19.3056 2.50195 19.4429 2.56433 19.5379 2.67303L21.9203 5.40065C22.0493 5.54835 22.0801 5.75783 21.999 5.93638C21.9179 6.11493 21.7399 6.22957 21.5438 6.22957H16.7788C16.5827 6.22957 16.4047 6.11492 16.3236 5.93638C16.2425 5.75783 16.2732 5.54834 16.4022 5.40064L18.7847 2.67303C18.8797 2.56432 19.017 2.50195 19.1613 2.50195ZM17.8794 5.22957H20.4432L19.1613 3.76201L17.8794 5.22957Z" fill="#FE7A41"/>
<path fill-rule="evenodd" clip-rule="evenodd" d="M4.37207 3C4.37207 2.72386 4.59593 2.5 4.87207 2.5H19.0092C19.2853 2.5 19.5092 2.72386 19.5092 3C19.5092 3.27614 19.2853 3.5 19.0092 3.5H4.87207C4.59593 3.5 4.37207 3.27614 4.37207 3Z" fill="#FE7A41"/>
<path fill-rule="evenodd" clip-rule="evenodd" d="M4.37207 5.72998C4.37207 5.45384 4.59593 5.22998 4.87207 5.22998H19.0092C19.2853 5.22998 19.5092 5.45384 19.5092 5.72998C19.5092 6.00612 19.2853 6.22998 19.0092 6.22998H4.87207C4.59593 6.22998 4.37207 6.00612 4.37207 5.72998Z" fill="#FE7A41"/>
<path fill-rule="evenodd" clip-rule="evenodd" d="M2.16406 15.0757C2.16406 14.7995 2.38792 14.5757 2.66406 14.5757H4.46838C4.74452 14.5757 4.96838 14.7995 4.96838 15.0757C4.96838 15.3518 4.74452 15.5757 4.46838 15.5757H2.66406C2.38792 15.5757 2.16406 15.3518 2.16406 15.0757Z" fill="#FE7A41"/>
<path fill-rule="evenodd" clip-rule="evenodd" d="M2.07129 10.2383C2.07129 9.96214 2.29515 9.73828 2.57129 9.73828H5.07025C5.34639 9.73828 5.57025 9.96214 5.57025 10.2383C5.57025 10.5144 5.34639 10.7383 5.07025 10.7383H2.57129C2.29515 10.7383 2.07129 10.5144 2.07129 10.2383Z" fill="#FE7A41"/>
<path fill-rule="evenodd" clip-rule="evenodd" d="M9.59131 9.37012C9.59131 9.09397 9.81517 8.87012 10.0913 8.87012H13.9087C14.1849 8.87012 14.4087 9.09397 14.4087 9.37012V10.6936C14.4087 10.8265 14.3558 10.9539 14.2617 11.0477L13.0998 12.206C13.0061 12.2994 12.8792 12.3519 12.7468 12.3519H11.2533C11.1209 12.3519 10.994 12.2994 10.9003 12.206L9.73832 11.0477C9.6442 10.9539 9.59131 10.8265 9.59131 10.6936V9.37012ZM10.5913 9.87012V10.486L11.4599 11.3519H12.5402L13.4087 10.486V9.87012H10.5913Z" fill="#FE7A41"/>
<path fill-rule="evenodd" clip-rule="evenodd" d="M10.6719 5.6709C10.948 5.6709 11.1719 5.89476 11.1719 6.1709V9.16295C11.1719 9.43909 10.948 9.66295 10.6719 9.66295C10.3957 9.66295 10.1719 9.43909 10.1719 9.16295V6.1709C10.1719 5.89476 10.3957 5.6709 10.6719 5.6709Z" fill="#FE7A41"/>
<path fill-rule="evenodd" clip-rule="evenodd" d="M13.3281 5.60205C13.6043 5.60205 13.8281 5.82591 13.8281 6.10205V9.0941C13.8281 9.37024 13.6043 9.5941 13.3281 9.5941C13.052 9.5941 12.8281 9.37024 12.8281 9.0941V6.10205C12.8281 5.82591 13.052 5.60205 13.3281 5.60205Z" fill="#FE7A41"/>
<path fill-rule="evenodd" clip-rule="evenodd" d="M12 11.8506C12.2761 11.8506 12.5 12.0744 12.5 12.3506V14.1705C12.5 14.4467 12.2761 14.6705 12 14.6705C11.7239 14.6705 11.5 14.4467 11.5 14.1705V12.3506C11.5 12.0744 11.7239 11.8506 12 11.8506Z" fill="#FE7A41"/>
<path fill-rule="evenodd" clip-rule="evenodd" d="M11.4996 14.1675C11.4996 13.8913 11.7235 13.6675 11.9996 13.6675H12.1655C13.4001 13.6675 14.4083 14.6703 14.4083 15.9048V15.946C14.4083 17.135 13.4374 18.1006 12.2485 18.1006H12.1657C10.9769 18.1006 10.0059 17.135 10.0059 15.946C10.0059 15.6698 10.2297 15.446 10.5059 15.446C10.782 15.446 11.0059 15.6698 11.0059 15.946C11.0059 16.5797 11.5262 17.1006 12.1657 17.1006H12.2485C12.8881 17.1006 13.4083 16.5797 13.4083 15.946V15.9048C13.4083 15.2256 12.8508 14.6675 12.1655 14.6675H11.9996C11.7235 14.6675 11.4996 14.4436 11.4996 14.1675Z" fill="#FE7A41"/>
<path fill-rule="evenodd" clip-rule="evenodd" d="M1.5 20C1.5 19.7239 1.72386 19.5 2 19.5H4.73855C5.01469 19.5 5.23855 19.7239 5.23855 20C5.23855 20.2761 5.01469 20.5 4.73855 20.5H2C1.72386 20.5 1.5 20.2761 1.5 20Z" fill="#FE7A41"/>
<path fill-rule="evenodd" clip-rule="evenodd" d="M17.2649 5.40285C17.3599 5.29307 17.4979 5.22998 17.6431 5.22998H21.5435C21.8196 5.22998 22.0435 5.45384 22.0435 5.72998V20.0001C22.0435 20.2763 21.8196 20.5001 21.5435 20.5001H19.7179C19.4695 20.5001 19.2588 20.3178 19.2231 20.0721L17.1483 5.80192C17.1274 5.65827 17.17 5.51263 17.2649 5.40285ZM18.221 6.22998L20.1504 19.5001H21.0435V6.22998H18.221Z" fill="#FE7A41"/>
<path fill-rule="evenodd" clip-rule="evenodd" d="M19.0317 15.0757C19.0317 14.7995 19.2556 14.5757 19.5317 14.5757H21.3361C21.6122 14.5757 21.8361 14.7995 21.8361 15.0757C21.8361 15.3518 21.6122 15.5757 21.3361 15.5757H19.5317C19.2556 15.5757 19.0317 15.3518 19.0317 15.0757Z" fill="#FE7A41"/>
<path fill-rule="evenodd" clip-rule="evenodd" d="M18.4297 10.2383C18.4297 9.96214 18.6535 9.73828 18.9297 9.73828H21.4286C21.7048 9.73828 21.9286 9.96214 21.9286 10.2383C21.9286 10.5144 21.7048 10.7383 21.4286 10.7383H18.9297C18.6535 10.7383 18.4297 10.5144 18.4297 10.2383Z" fill="#FE7A41"/>
<path fill-rule="evenodd" clip-rule="evenodd" d="M18.7617 20C18.7617 19.7239 18.9856 19.5 19.2617 19.5H22.0002C22.2764 19.5 22.5002 19.7239 22.5002 20C22.5002 20.2761 22.2764 20.5 22.0002 20.5H19.2617C18.9856 20.5 18.7617 20.2761 18.7617 20Z" fill="#FE7A41"/>
</svg>
