<svg width="119" height="40" viewBox="0 0 119 40" fill="none" xmlns="http://www.w3.org/2000/svg">
<g clip-path="url(#clip0_209_675)">
<path fill-rule="evenodd" clip-rule="evenodd" d="M22.2231 39.77C34.014 41.5745 42.4331 32.5518 44.2608 20.3736C46.0912 8.19453 37.862 0.977256 20.4907 0.0754383C3.11765 -0.82638 -1.4534 6.39089 0.375201 19.9227C2.2038 33.4545 10.4321 37.9654 22.2231 39.77Z" fill="#FE7A41"/>
<path fill-rule="evenodd" clip-rule="evenodd" d="M22.4773 13.6365V20.8583C22.4773 25.7674 19.3815 28.7347 15.2392 28.7347C11.0315 28.7347 8.17554 25.7674 8.17554 20.8583V13.6365H11.751V20.8583C11.751 23.7165 12.9719 25.4183 15.2392 25.4183C17.463 25.4183 18.8583 23.7165 18.8583 20.8583V13.6365H22.4773ZM31.7866 13.6365C35.5801 13.6365 37.4114 16.4728 37.4114 19.3528C37.4114 22.2765 35.5583 25.1128 31.7648 25.1128H28.5382V28.4728H24.9409V13.6365H31.7866ZM31.3724 16.9528H28.5382V21.8183H31.3724C32.8113 21.8183 33.7923 20.9674 33.7923 19.3528C33.7923 17.7601 32.8113 16.9747 31.3724 16.9528Z" fill="white"/>
<path fill-rule="evenodd" clip-rule="evenodd" d="M48.0142 12.7273C50.8702 12.7273 53.1812 14.0146 54.6637 15.9782L51.5679 17.5491C50.8266 16.6109 49.6712 16.0873 47.9706 16.0873C45.3763 16.0873 43.5667 17.8982 43.5667 20.3637C43.5667 22.72 45.4199 24.7491 48.0142 24.7491C49.6058 24.7491 50.8702 24.2473 51.6551 23.5055V22.0655H47.1422V19.3164H54.8163V24.8146C54.7073 25.0327 52.3746 28.0873 48.036 28.0873C43.1307 28.0873 39.9695 24.4 39.9695 20.4073C39.9695 16.2837 43.3487 12.7273 48.0142 12.7273ZM64.6924 12.9891C67.701 12.9891 69.9684 15.3237 69.9684 18.5528C69.9684 20.6909 68.9219 22.5018 67.3304 23.3527L70.3826 27.8255H65.9351L63.7113 24.1382H61.0952V27.8255H57.5197V12.9891H64.6924ZM64.191 16.3055H61.0952V20.8218H64.1692C65.3901 20.8218 66.3711 19.7964 66.3711 18.5528C66.3711 17.3309 65.3901 16.3055 64.191 16.3055ZM79.6265 12.7273C83.8342 12.7273 87.2788 16.1964 87.2788 20.4073C87.2788 24.64 83.8342 28.0873 79.6265 28.0873C75.3752 28.0873 71.9741 24.64 71.9741 20.4073C71.9741 16.1964 75.3752 12.7273 79.6265 12.7273ZM79.6265 16.0655C77.2065 16.0655 75.2444 18.0073 75.2444 20.4073C75.2444 22.8291 77.2065 24.7709 79.6265 24.7709C82.0028 24.7709 83.965 22.8291 83.965 20.4073C83.965 18.0073 82.0028 16.0655 79.6265 16.0655ZM103.194 12.9891V20.2109C103.194 25.12 100.098 28.0873 95.9558 28.0873C91.7481 28.0873 88.8921 25.12 88.8921 20.2109V12.9891H92.4676V20.2109C92.4676 23.0691 93.6884 24.7709 95.9558 24.7709C98.1796 24.7709 99.5749 23.0691 99.5749 20.2109V12.9891H103.194ZM112.503 12.9891C116.297 12.9891 118.128 15.8255 118.128 18.7055C118.128 21.6291 116.275 24.4655 112.481 24.4655H109.255V27.8255H105.657V12.9891H112.503ZM112.089 16.3055H109.255V21.1709H112.089C113.528 21.1709 114.509 20.32 114.509 18.7055C114.509 17.1127 113.528 16.3273 112.089 16.3055Z" fill="#29394D"/>
</g>
<defs>
<clipPath id="clip0_209_675">
<rect width="119" height="40" fill="white"/>
</clipPath>
</defs>
</svg>
