<svg width="22" height="24" viewBox="0 0 22 24" fill="none" xmlns="http://www.w3.org/2000/svg">
<path d="M21.8681 6.64777L15.9236 0.470867C15.839 0.383003 15.7223 0.333328 15.6003 0.333328H6.74048C5.74895 0.333328 4.94226 1.1397 4.94226 2.13082V8.41026H1.35171C0.60987 8.41026 0.00634766 9.0136 0.00634766 9.75525V16.4884C0.00634766 17.23 0.60987 17.8333 1.35171 17.8333H4.94226V21.8723C4.94226 22.8617 5.74895 23.6667 6.74048 23.6667H20.1953C21.1869 23.6667 21.9935 22.8622 21.9935 21.8733V6.95895C21.9935 6.84292 21.9486 6.7314 21.8681 6.64777ZM15.7115 1.5447L20.5914 6.61537H15.7115V1.5447ZM1.35171 16.9359C1.1047 16.9359 0.903815 16.7352 0.903815 16.4884V9.75525C0.903815 9.50848 1.10475 9.30768 1.35171 9.30768H13.4687C13.7157 9.30768 13.9166 9.50848 13.9166 9.75525V16.4884C13.9166 16.7352 13.7157 16.9359 13.4687 16.9359H1.35171ZM21.0961 21.8733C21.0961 22.3673 20.692 22.7692 20.1953 22.7692H6.74048C6.24378 22.7692 5.83968 22.3669 5.83968 21.8724V17.8333H13.4687C14.2106 17.8333 14.8141 17.23 14.8141 16.4884V9.75525C14.8141 9.0136 14.2106 8.41026 13.4687 8.41026H5.83968V2.13082C5.83968 1.63448 6.24378 1.23075 6.74048 1.23075H14.814V7.06408C14.814 7.31191 15.015 7.51279 15.2627 7.51279H21.0961V21.8733Z" fill="#29394D"/>
</svg>
