<svg width="140" height="140" viewBox="0 0 140 140" fill="none" xmlns="http://www.w3.org/2000/svg">
<path d="M118.875 68.5338V64.9383L119.455 64.6493C129.583 59.5854 135.875 49.4045 135.875 38.0804C135.875 26.5182 129.243 16.1482 118.875 11.2437V8.375C118.875 6.03112 116.969 4.125 114.625 4.125H110.375C108.031 4.125 106.125 6.03112 106.125 8.375H91.25C86.5792 8.375 82.41 10.5425 79.6815 13.9191C78.2004 13.0968 76.5407 12.625 74.8152 12.625H14.1848C8.6385 12.625 4.125 17.1385 4.125 22.6847C4.125 23.1608 4.159 23.6368 4.227 24.1085L7.423 46.4847C8.12638 51.4105 12.4082 55.125 17.3829 55.125H42.375V58.236C42.375 58.627 42.4217 59.0074 42.5025 59.375H36.5058L34.98 64.9531C34.4934 65.1359 34.0068 65.3377 33.5244 65.5609L28.4966 62.6921L20.1921 70.9966L23.0609 76.0244C22.8399 76.5067 22.6359 76.9912 22.4531 77.48L16.875 79.0036V85.7548C14.3654 87.0425 12.625 89.6286 12.625 92.6376C12.625 93.3091 12.7143 93.9806 12.8864 94.6373L21.125 125.526V127.375C21.125 132.063 24.9373 135.875 29.625 135.875H63.625C65.9689 135.875 67.875 133.969 67.875 131.625V127.375H104C119.232 127.375 131.625 114.982 131.625 99.75V87.6906C131.625 79.2565 126.561 71.7446 118.875 68.5338ZM88.3791 67.0718C89.7136 67.5817 91.1565 67.875 92.6695 67.875C93.239 67.875 93.8085 67.8346 94.3737 67.7539L102.846 66.5426C100.118 69.9405 95.9378 72.125 91.25 72.125H88.7616C88.9954 71.4599 89.125 70.7459 89.125 70C89.125 68.9375 88.8402 67.9515 88.3791 67.0718ZM84.875 70C84.875 71.1709 83.9209 72.125 82.75 72.125H78.5C77.3291 72.125 76.375 71.1709 76.375 70C76.375 68.8291 77.3291 67.875 78.5 67.875H82.75C83.9209 67.875 84.875 68.8291 84.875 70ZM82.5269 48.3887L81.9999 48.1252C81.152 47.7002 80.625 46.846 80.625 45.8983C80.625 45.4053 80.7695 44.9271 81.0436 44.517L83.804 40.3775C84.5052 39.3256 84.875 38.1038 84.875 36.8394V29.625H102.109C99.3463 32.328 97.625 36.0893 97.625 40.25C97.625 46.1681 101.108 51.2766 106.125 53.6694V57.25C106.125 58.8714 105.855 60.429 105.375 61.891L93.7724 63.5485C93.4069 63.5995 93.0392 63.625 92.6695 63.625C88.3727 63.625 84.875 60.1273 84.875 55.8305V52.1904C84.875 50.5669 83.974 49.1112 82.5269 48.3887ZM123.125 40.25C123.125 46.1086 118.359 50.875 112.5 50.875C106.641 50.875 101.875 46.1086 101.875 40.25C101.875 34.3914 106.641 29.625 112.5 29.625C118.359 29.625 123.125 34.3914 123.125 40.25ZM110.375 57.25V54.955C111.072 55.0549 111.777 55.125 112.5 55.125C113.223 55.125 113.928 55.0549 114.625 54.955V68.6421C109.791 70.8436 105.496 73.8441 101.875 77.463V73.1429C106.996 69.7046 110.375 63.8651 110.375 57.25ZM131.625 38.0804C131.625 47.2795 126.774 55.5925 118.875 60.1294V53.6694C123.892 51.2766 127.375 46.1681 127.375 40.25C127.375 34.3319 123.892 29.2234 118.875 26.8306V16.0293C126.708 20.5321 131.625 28.8643 131.625 38.0804ZM114.625 8.375V25.545C113.928 25.4451 113.223 25.375 112.5 25.375C111.777 25.375 111.072 25.4451 110.375 25.545V8.375H114.625ZM91.25 12.625H106.125V25.375H82.75C81.5791 25.375 80.625 24.4209 80.625 23.25C80.625 17.3914 85.3914 12.625 91.25 12.625ZM11.6305 45.8855L8.4345 23.5092C8.39413 23.2372 8.375 22.961 8.375 22.6847C8.375 19.4824 10.9824 16.875 14.1848 16.875H74.8131C75.7673 16.875 76.681 17.1279 77.5076 17.5635C76.7809 19.3166 76.375 21.2355 76.375 23.25C76.375 26.0168 78.1579 28.3542 80.625 29.234V36.8394C80.625 37.2601 80.5018 37.6681 80.268 38.0188L77.5076 42.1604C76.766 43.2696 76.375 44.5638 76.375 45.8983C76.375 46.591 76.4876 47.2625 76.6831 47.9C75.7481 49.5809 74.0545 50.671 72.125 50.8368V48.75C72.125 42.7979 68.6017 37.666 63.54 35.2903C64.8979 33.7836 65.75 31.8095 65.75 29.625C65.75 24.9373 61.9378 21.125 57.25 21.125C52.5622 21.125 48.75 24.9373 48.75 29.625C48.75 31.8095 49.6021 33.7836 50.96 35.2903C48.2698 36.5525 46.0215 38.5946 44.5 41.1276C42.9785 38.5946 40.7324 36.5525 38.04 35.2903C39.3979 33.7836 40.25 31.8095 40.25 29.625C40.25 24.9373 36.4378 21.125 31.75 21.125C27.0623 21.125 23.25 24.9373 23.25 29.625C23.25 31.8095 24.1021 33.7836 25.46 35.2903C20.3983 37.666 16.875 42.7979 16.875 48.75V50.8283C14.2251 50.5903 12.013 48.5588 11.6305 45.8855ZM46.625 53V48.75C46.625 42.8914 51.3914 38.125 57.25 38.125C63.1086 38.125 67.875 42.8914 67.875 48.75V50.875H60.8561L48.393 59.1838C47.6833 59.6555 46.6229 59.0903 46.6229 58.236L46.625 53ZM53 29.625C53 27.2811 54.9061 25.375 57.25 25.375C59.5939 25.375 61.5 27.2811 61.5 29.625C61.5 31.9689 59.5939 33.875 57.25 33.875C54.9061 33.875 53 31.9689 53 29.625ZM27.5 29.625C27.5 27.2811 29.4061 25.375 31.75 25.375C34.0939 25.375 36 27.2811 36 29.625C36 31.9689 34.0939 33.875 31.75 33.875C29.4061 33.875 27.5 31.9689 27.5 29.625ZM21.125 50.875V48.75C21.125 42.8914 25.8914 38.125 31.75 38.125C37.6086 38.125 42.375 42.8914 42.375 48.75V50.875H21.125ZM25.7851 80.9735L26.1294 79.8579C26.4311 78.8804 26.8391 77.8986 27.3449 76.9445L27.8889 75.9118L25.4897 71.7064L29.2085 67.9876L33.4139 70.3867L34.4466 69.8428C35.4007 69.3391 36.3804 68.929 37.36 68.6273L38.4756 68.283L39.7506 63.6229H45.0079L46.2829 68.283L47.3985 68.6273C48.376 68.929 49.3577 69.337 50.3119 69.8428L51.3446 70.3867L55.55 67.9876L59.2688 71.7064L56.8696 75.9118L57.4136 76.9445C57.9172 77.8986 58.3274 78.8783 58.6291 79.8579L58.9734 80.9735L63.6335 82.2485V87.5057L58.9734 88.7808L58.6291 89.8964C58.3274 90.8739 57.9194 91.8556 57.4136 92.8098L56.8696 93.8425L59.2688 98.0479L55.55 101.767L51.3446 99.3675L50.3119 99.9115C49.3577 100.415 48.3781 100.825 47.3985 101.127L46.2829 101.471L45.0036 106.125H39.7464L38.4714 101.465L37.3558 101.121C36.3783 100.819 35.3965 100.411 34.4424 99.9051L33.4117 99.3611L29.506 101.586L24.865 84.875H21.125V82.2464L25.7851 80.9735ZM16.875 92.6355C16.875 90.6996 18.4496 89.125 20.3855 89.125H21.635L31.0806 123.125H24.882L16.994 93.545C16.9154 93.2454 16.875 92.9394 16.875 92.6355ZM63.625 131.625H29.625C27.2811 131.625 25.375 129.719 25.375 127.375H36.6694H63.625V131.625ZM63.625 123.125H53.391C54.2707 120.658 56.6082 118.875 59.375 118.875H63.625V123.125ZM64.016 114.625H59.375C54.2453 114.625 49.9528 118.282 48.9646 123.125H35.49L30.6811 105.808L33.5244 104.191C34.0068 104.412 34.4913 104.616 34.98 104.799L36.5036 110.375H48.2464L49.7721 104.797C50.2588 104.614 50.7454 104.412 51.2278 104.189L56.2555 107.058L64.56 98.7534L61.6912 93.7256C61.9123 93.2433 62.1162 92.7588 62.299 92.27L67.875 90.7464V79.0036L62.2969 77.4779C62.1141 76.9912 61.9123 76.5046 61.6891 76.0222L64.5579 70.9945L56.2534 62.69L51.2256 65.5588C50.7433 65.3377 50.2588 65.1338 49.77 64.951L49.3408 63.3827C49.8359 63.2297 50.3097 63.0088 50.7475 62.7176L62.1439 55.125H71.6171C74.6878 55.125 77.4864 53.7565 79.3585 51.4891C79.5944 51.6464 79.8387 51.7951 80.1001 51.9247L80.625 52.1883V55.8284C80.625 58.8416 81.7449 61.5935 83.5809 63.7079C83.3067 63.6717 83.0348 63.625 82.75 63.625H78.5C74.9853 63.625 72.125 66.4852 72.125 70C72.125 73.5147 74.9853 76.375 78.5 76.375H91.25C93.4876 76.375 95.6275 75.9691 97.625 75.2594V82.4036C92.2233 89.7285 89.125 98.7087 89.125 108.25V110.375H70C67.2332 110.375 64.8957 112.158 64.016 114.625ZM127.375 99.75C127.375 112.638 116.888 123.125 104 123.125H67.875V116.75C67.875 115.579 68.8291 114.625 70 114.625H99.75C110.294 114.625 118.875 106.044 118.875 95.5V89.125H114.625V95.5C114.625 103.702 107.952 110.375 99.75 110.375H93.375V108.25C93.375 92.6015 102.549 78.5723 116.818 72.2822C123.165 74.7366 127.375 80.8311 127.375 87.6906V99.75Z" fill="#29394D"/>
<path d="M42.375 97.625C49.4066 97.625 55.125 91.9066 55.125 84.875C55.125 77.8434 49.4066 72.125 42.375 72.125C35.3434 72.125 29.625 77.8434 29.625 84.875C29.625 91.9066 35.3434 97.625 42.375 97.625ZM42.375 76.375C47.0627 76.375 50.875 80.1873 50.875 84.875C50.875 89.5627 47.0627 93.375 42.375 93.375C37.6873 93.375 33.875 89.5627 33.875 84.875C33.875 80.1873 37.6873 76.375 42.375 76.375Z" fill="#29394D"/>
<path d="M106.125 40.25C106.125 43.7648 108.985 46.625 112.5 46.625V42.375C111.329 42.375 110.375 41.4209 110.375 40.25C110.375 39.0791 111.329 38.125 112.5 38.125C113.671 38.125 114.625 39.0791 114.625 40.25H118.875C118.875 36.7352 116.015 33.875 112.5 33.875C108.985 33.875 106.125 36.7352 106.125 40.25Z" fill="#29394D"/>
</svg>
