<svg width="140" height="140" viewBox="0 0 140 140" fill="none" xmlns="http://www.w3.org/2000/svg">
<path d="M131.944 97.4125C130.816 95.4634 128.962 94.0405 126.787 93.455C124.613 92.8696 122.295 93.1694 120.341 94.2888L99.6225 106.253C98.4911 104.557 96.7858 103.327 94.82 102.789L63.115 94.31C60.6751 93.6516 58.1071 93.6296 55.6563 94.2462L44.5 97.03V93.375C44.5 92.8114 44.2761 92.2709 43.8776 91.8724C43.4791 91.4739 42.9386 91.25 42.375 91.25H25.375C24.8114 91.25 24.2709 91.4739 23.8724 91.8724C23.4739 92.2709 23.25 92.8114 23.25 93.375V95.5H8.375C7.81142 95.5 7.27091 95.7239 6.8724 96.1224C6.47388 96.5209 6.25 97.0614 6.25 97.625V127.375C6.25 127.939 6.47388 128.479 6.8724 128.878C7.27091 129.276 7.81142 129.5 8.375 129.5H23.25V131.625C23.25 132.189 23.4739 132.729 23.8724 133.128C24.2709 133.526 24.8114 133.75 25.375 133.75H42.375C42.9386 133.75 43.4791 133.526 43.8776 133.128C44.2761 132.729 44.5 132.189 44.5 131.625V128.692L47.2413 130.052C49.3079 131.081 51.584 131.619 53.8925 131.625H85.7038C88.3162 131.631 90.8832 130.941 93.1413 129.628L128.841 109.015C130.786 107.883 132.204 106.027 132.785 103.853C133.366 101.68 133.064 99.3642 131.944 97.4125ZM23.25 125.25H10.5V99.75H23.25V125.25ZM40.25 129.5H27.5V95.5H40.25V129.5ZM126.716 105.339L91.0163 125.951C89.4018 126.886 87.5691 127.377 85.7038 127.375H53.8925C52.2394 127.378 50.6088 126.993 49.1325 126.249L44.5 123.933V101.407L56.6763 98.3687C58.4285 97.9257 60.2651 97.9404 62.01 98.4112L93.715 106.911C94.5307 107.123 95.2646 107.574 95.8225 108.205C96.3805 108.837 96.7371 109.621 96.8467 110.456C96.9563 111.292 96.8138 112.141 96.4376 112.895C96.0614 113.649 95.4685 114.274 94.735 114.689C94.256 114.971 93.7251 115.154 93.1738 115.228C92.6226 115.301 92.0623 115.262 91.5263 115.114L66.175 108.314C65.6283 108.167 65.0458 108.244 64.5557 108.527C64.0655 108.81 63.7078 109.276 63.5613 109.823C63.4147 110.369 63.4914 110.952 63.7743 111.442C64.0573 111.932 64.5233 112.29 65.07 112.436L90.4213 119.215C91.142 119.409 91.8848 119.509 92.6313 119.512C94.118 119.515 95.5782 119.118 96.86 118.365C97.8313 117.81 98.6827 117.068 99.3648 116.182C100.047 115.295 100.546 114.282 100.834 113.201C101.069 112.264 101.148 111.295 101.068 110.332L122.466 97.9862C123.443 97.4443 124.592 97.3031 125.67 97.5926C126.749 97.882 127.672 98.5795 128.246 99.5375C128.811 100.51 128.966 101.667 128.68 102.754C128.393 103.842 127.687 104.771 126.716 105.339Z" fill="#29394D"/>
<path d="M33.875 127.375C34.4386 127.375 34.9791 127.151 35.3776 126.753C35.7761 126.354 36 125.814 36 125.25V123.125C36 122.561 35.7761 122.021 35.3776 121.622C34.9791 121.224 34.4386 121 33.875 121C33.3114 121 32.7709 121.224 32.3724 121.622C31.9739 122.021 31.75 122.561 31.75 123.125V125.25C31.75 125.814 31.9739 126.354 32.3724 126.753C32.7709 127.151 33.3114 127.375 33.875 127.375Z" fill="#29394D"/>
<path d="M99.75 38.125H91.7812L91.3988 37.2325L97.0513 31.6012C97.4494 31.2 97.6728 30.6577 97.6728 30.0925C97.6728 29.5273 97.4494 28.985 97.0513 28.5838L88.0413 19.5738C87.64 19.1756 87.0977 18.9522 86.5325 18.9522C85.9673 18.9522 85.425 19.1756 85.0238 19.5738L79.3925 25.2263L78.5 24.8438V16.875C78.5 16.3114 78.2761 15.7709 77.8776 15.3724C77.4791 14.9739 76.9386 14.75 76.375 14.75H63.625C63.0614 14.75 62.5209 14.9739 62.1224 15.3724C61.7239 15.7709 61.5 16.3114 61.5 16.875V24.8438L60.6075 25.2263L54.9762 19.5738C54.575 19.1756 54.0327 18.9522 53.4675 18.9522C52.9023 18.9522 52.36 19.1756 51.9588 19.5738L42.9488 28.5838C42.5506 28.985 42.3272 29.5273 42.3272 30.0925C42.3272 30.6577 42.5506 31.2 42.9488 31.6012L48.6013 37.2325L48.2188 38.125H40.25C39.6864 38.125 39.1459 38.3489 38.7474 38.7474C38.3489 39.1459 38.125 39.6864 38.125 40.25V53C38.125 53.5636 38.3489 54.1041 38.7474 54.5026C39.1459 54.9011 39.6864 55.125 40.25 55.125H48.2188L48.6013 56.0175L42.9488 61.6488C42.5573 62.054 42.3367 62.5941 42.3325 63.1575C42.3407 63.72 42.5608 64.2588 42.9488 64.6662L51.9588 73.6763C52.364 74.0677 52.9041 74.2883 53.4675 74.2925C54.03 74.2843 54.5688 74.0642 54.9762 73.6763L60.6075 68.0238L61.5 68.4062V76.375C61.5 76.9386 61.7239 77.4791 62.1224 77.8776C62.5209 78.2761 63.0614 78.5 63.625 78.5H76.375C76.9386 78.5 77.4791 78.2761 77.8776 77.8776C78.2761 77.4791 78.5 76.9386 78.5 76.375V68.4062L79.3925 68.0238L85.0238 73.6763C85.4347 74.0554 85.9733 74.266 86.5325 74.266C87.0916 74.266 87.6303 74.0554 88.0413 73.6763L97.0513 64.6662C97.4392 64.2588 97.6593 63.72 97.6675 63.1575C97.6633 62.5941 97.4427 62.054 97.0513 61.6488L91.3988 56.0175L91.7812 55.125H99.75C100.314 55.125 100.854 54.9011 101.253 54.5026C101.651 54.1041 101.875 53.5636 101.875 53V40.25C101.875 39.6864 101.651 39.1459 101.253 38.7474C100.854 38.3489 100.314 38.125 99.75 38.125ZM97.625 50.875H90.2725C89.8244 50.8753 89.3878 51.0173 89.0253 51.2807C88.6627 51.544 88.3927 51.9152 88.2537 52.3413C87.9252 53.4089 87.4909 54.4411 86.9575 55.4225C86.7408 55.8276 86.6591 56.2912 86.724 56.746C86.789 57.2008 86.9973 57.623 87.3188 57.9512L92.5462 63.1575L86.5325 69.1712L81.3263 63.9437C80.998 63.6223 80.5758 63.414 80.121 63.349C79.6663 63.2841 79.2026 63.3658 78.7975 63.5825C77.8161 64.1159 76.7839 64.5502 75.7162 64.8787C75.2902 65.0177 74.919 65.2877 74.6557 65.6503C74.3923 66.0128 74.2503 66.4494 74.25 66.8975V74.25H65.75V66.8975C65.7497 66.4494 65.6077 66.0128 65.3443 65.6503C65.081 65.2877 64.7098 65.0177 64.2837 64.8787C63.2161 64.5502 62.1839 64.1159 61.2025 63.5825C60.7974 63.3658 60.3337 63.2841 59.879 63.349C59.4242 63.414 59.002 63.6223 58.6737 63.9437L53.4675 69.1712L47.4537 63.1575L52.6813 57.9512C53.0027 57.623 53.211 57.2008 53.276 56.746C53.3409 56.2912 53.2592 55.8276 53.0425 55.4225C52.5091 54.4411 52.0748 53.4089 51.7463 52.3413C51.6073 51.9152 51.3373 51.544 50.9747 51.2807C50.6122 51.0173 50.1756 50.8753 49.7275 50.875H42.375V42.375H49.7275C50.1756 42.3747 50.6122 42.2327 50.9747 41.9693C51.3373 41.706 51.6073 41.3348 51.7463 40.9087C52.0748 39.8411 52.5091 38.8089 53.0425 37.8275C53.2592 37.4224 53.3409 36.9587 53.276 36.504C53.211 36.0492 53.0027 35.627 52.6813 35.2987L47.4537 30.0925L53.4675 24.0788L58.6737 29.3063C59.002 29.6277 59.4242 29.836 59.879 29.901C60.3337 29.9659 60.7974 29.8842 61.2025 29.6675C62.1839 29.1341 63.2161 28.6998 64.2837 28.3713C64.7098 28.2323 65.081 27.9623 65.3443 27.5997C65.6077 27.2372 65.7497 26.8006 65.75 26.3525V19H74.25V26.3525C74.2503 26.8006 74.3923 27.2372 74.6557 27.5997C74.919 27.9623 75.2902 28.2323 75.7162 28.3713C76.7839 28.6998 77.8161 29.1341 78.7975 29.6675C79.2026 29.8842 79.6663 29.9659 80.121 29.901C80.5758 29.836 80.998 29.6277 81.3263 29.3063L86.5325 24.0788L92.5462 30.0925L87.3188 35.2987C86.9973 35.627 86.789 36.0492 86.724 36.504C86.6591 36.9587 86.7408 37.4224 86.9575 37.8275C87.4909 38.8089 87.9252 39.8411 88.2537 40.9087C88.3927 41.3348 88.6627 41.706 89.0253 41.9693C89.3878 42.2327 89.8244 42.3747 90.2725 42.375H97.625V50.875Z" fill="#29394D"/>
<path d="M82.75 46.625C82.75 44.1033 82.0022 41.6382 80.6012 39.5415C79.2003 37.4448 77.209 35.8106 74.8792 34.8455C72.5495 33.8805 69.9859 33.628 67.5126 34.12C65.0393 34.612 62.7675 35.8263 60.9844 37.6094C59.2013 39.3925 57.987 41.6643 57.495 44.1376C57.003 46.6109 57.2555 49.1745 58.2205 51.5042C59.1856 53.834 60.8198 55.8253 62.9165 57.2262C65.0132 58.6272 67.4783 59.375 70 59.375C73.3805 59.3716 76.6215 58.0272 79.0119 55.6369C81.4023 53.2465 82.7466 50.0055 82.75 46.625ZM61.5 46.625C61.5 44.9439 61.9985 43.3005 62.9325 41.9027C63.8665 40.5048 65.194 39.4154 66.7472 38.772C68.3004 38.1287 70.0094 37.9604 71.6583 38.2883C73.3071 38.6163 74.8217 39.4259 76.0104 40.6146C77.1992 41.8033 78.0087 43.3179 78.3367 44.9667C78.6647 46.6156 78.4963 48.3246 77.853 49.8778C77.2096 51.431 76.1202 52.7585 74.7224 53.6925C73.3245 54.6265 71.6811 55.125 70 55.125C67.7457 55.125 65.5837 54.2295 63.9896 52.6354C62.3955 51.0414 61.5 48.8793 61.5 46.625Z" fill="#29394D"/>
<path d="M118.875 50.875H114.625C114.625 39.0397 109.923 27.6892 101.555 19.3204C93.1858 10.9515 81.8353 6.25 70 6.25C58.1647 6.25 46.8142 10.9515 38.4454 19.3204C30.0765 27.6892 25.375 39.0397 25.375 50.875H21.125C17.7435 50.875 14.5005 52.2183 12.1094 54.6094C9.7183 57.0005 8.375 60.2435 8.375 63.625C8.375 67.0065 9.7183 70.2495 12.1094 72.6406C14.5005 75.0317 17.7435 76.375 21.125 76.375H31.75C32.3136 76.375 32.8541 76.1511 33.2526 75.7526C33.6511 75.3541 33.875 74.8136 33.875 74.25V53C33.875 52.4364 33.6511 51.8959 33.2526 51.4974C32.8541 51.0989 32.3136 50.875 31.75 50.875H29.625C29.625 40.1669 33.8788 29.8973 41.4506 22.3256C49.0223 14.7538 59.2919 10.5 70 10.5C80.7081 10.5 90.9777 14.7538 98.5494 22.3256C106.121 29.8973 110.375 40.1669 110.375 50.875H108.25C107.686 50.875 107.146 51.0989 106.747 51.4974C106.349 51.8959 106.125 52.4364 106.125 53V74.25C106.125 74.8136 106.349 75.3541 106.747 75.7526C107.146 76.1511 107.686 76.375 108.25 76.375H110.375V82.75C110.375 83.3136 110.151 83.8541 109.753 84.2526C109.354 84.6511 108.814 84.875 108.25 84.875H92.9925C92.5514 83.6367 91.7395 82.5643 90.6673 81.8038C89.595 81.0434 88.3145 80.6318 87 80.625H82.75C81.0592 80.625 79.4377 81.2967 78.2422 82.4922C77.0467 83.6877 76.375 85.3092 76.375 87C76.375 88.6908 77.0467 90.3123 78.2422 91.5078C79.4377 92.7033 81.0592 93.375 82.75 93.375H87C88.3145 93.3682 89.595 92.9566 90.6673 92.1962C91.7395 91.4357 92.5514 90.3633 92.9925 89.125H108.25C109.939 89.12 111.558 88.4467 112.752 87.2522C113.947 86.0578 114.62 84.4392 114.625 82.75V76.375H118.875C122.257 76.375 125.5 75.0317 127.891 72.6406C130.282 70.2495 131.625 67.0065 131.625 63.625C131.625 60.2435 130.282 57.0005 127.891 54.6094C125.5 52.2183 122.257 50.875 118.875 50.875ZM21.125 72.125C18.8707 72.125 16.7087 71.2295 15.1146 69.6354C13.5205 68.0413 12.625 65.8793 12.625 63.625C12.625 61.3707 13.5205 59.2087 15.1146 57.6146C16.7087 56.0205 18.8707 55.125 21.125 55.125V72.125ZM29.625 72.125H25.375V55.125H29.625V72.125ZM87 89.125H82.75C82.1864 89.125 81.6459 88.9011 81.2474 88.5026C80.8489 88.1041 80.625 87.5636 80.625 87C80.625 86.4364 80.8489 85.8959 81.2474 85.4974C81.6459 85.0989 82.1864 84.875 82.75 84.875H87C87.5636 84.875 88.1041 85.0989 88.5026 85.4974C88.9011 85.8959 89.125 86.4364 89.125 87C89.125 87.5636 88.9011 88.1041 88.5026 88.5026C88.1041 88.9011 87.5636 89.125 87 89.125ZM114.625 72.125H110.375V55.125H114.625V72.125ZM118.875 72.125V55.125C121.129 55.125 123.291 56.0205 124.885 57.6146C126.479 59.2087 127.375 61.3707 127.375 63.625C127.375 65.8793 126.479 68.0413 124.885 69.6354C123.291 71.2295 121.129 72.125 118.875 72.125Z" fill="#29394D"/>
</svg>
