<svg width="140" height="140" viewBox="0 0 140 140" fill="none" xmlns="http://www.w3.org/2000/svg">
<path d="M76.8458 90.6544L74.4674 93.0356V82.1674C75.7835 81.6982 76.7291 80.4523 76.7291 78.9884V74.2981C76.7291 72.4339 75.1986 70.9172 73.3171 70.9172H31.347C29.4656 70.9172 27.935 72.4339 27.935 74.2981V78.9884C27.935 80.4523 28.8804 81.6982 30.1968 82.1674V101.714L28.0788 103.923H25.0277C24.2937 102.198 22.5695 100.983 20.5643 100.983H16.5083C13.8386 100.983 11.6666 103.135 11.6666 105.781V123.536C11.6666 126.181 13.8386 128.333 16.5083 128.333H20.5643C22.5695 128.333 24.2935 127.119 25.0274 125.393H59.4962C63.5691 125.393 67.1502 123.881 69.8524 121.02L92.3697 97.1824C94.8466 94.5607 94.5436 89.7324 91.7338 87.0524C90.3775 85.7583 85.2955 82.1948 76.8458 90.6544ZM66.014 101.499C65.3473 102.167 64.7127 102.696 64.0767 103.114C64.2228 102.56 64.3005 101.98 64.3005 101.381C64.3005 97.9628 61.6646 95.1037 58.1814 94.5998V82.3691H70.8215V96.6855L66.014 101.499ZM73.0833 78.7565H58.1814V74.5298H73.0833V78.7565ZM54.5356 74.53V94.6928C52.725 94.7477 51.3533 94.6716 50.1285 94.5429V74.5298H54.5356V74.53ZM33.8426 82.3693H46.4827V94.0639C45.6986 93.9666 44.8594 93.8817 43.9012 93.8323C39.5592 93.608 36.2197 95.8141 33.8426 97.9937V82.3693ZM31.5808 74.53H46.4827V78.7567H31.5808V74.53ZM21.7596 123.536C21.7596 124.178 21.2121 124.721 20.564 124.721H16.5081C15.8598 124.721 15.3122 124.178 15.3122 123.536V105.781C15.3122 105.139 15.8598 104.596 16.5081 104.596H20.564C21.2121 104.596 21.7596 105.139 21.7596 105.781V123.536ZM89.708 94.7136L67.1905 118.551C65.1666 120.694 62.5779 121.78 59.496 121.78H25.4055V107.536H28.8613C29.361 107.536 29.8388 107.333 30.1829 106.974L35.1182 101.825C38.1672 98.6438 40.8152 97.2924 43.7121 97.4403C45.1385 97.5137 46.2687 97.6736 47.4652 97.8429C49.9113 98.1893 52.4402 98.5472 57.4017 98.1464C59.264 98.292 60.6545 99.6656 60.6545 101.381C60.6545 103.168 59.1877 104.622 57.3848 104.622C57.3832 104.622 57.3819 104.622 57.3805 104.622H44.2428C43.2361 104.622 42.4199 105.431 42.4199 106.428C42.4199 107.426 43.2361 108.235 44.2428 108.235H57.3848C57.3864 108.235 57.388 108.235 57.3896 108.235C61.9471 108.234 65.0848 107.565 68.6051 104.04L79.4368 93.196C83.555 89.0726 87.2068 87.749 89.2054 89.6552C90.5815 90.9675 90.8353 93.5204 89.708 94.7136ZM123.396 17.5H119.211C117.172 17.5 115.419 18.7304 114.666 20.481H79.4769C75.2909 20.481 71.6104 22.035 68.8334 24.9749L59.0216 35.3623H42.3934C41.9099 35.3623 41.4462 35.5527 41.1044 35.8914C40.7626 36.2303 40.5705 36.6896 40.5705 37.1687V65.5928C40.5705 66.5904 41.3867 67.3992 42.3934 67.3992H94.8922C95.8989 67.3992 96.7151 66.5904 96.7151 65.5928V51.0602C105.134 50.3805 108.646 47.6741 112.081 42.5191H114.624C115.351 44.3252 117.132 45.6055 119.211 45.6055H123.396C126.118 45.6055 128.333 43.4105 128.333 40.7127V22.3929C128.333 19.695 126.118 17.5 123.396 17.5ZM73.1425 52.3928C72.6741 54.4273 70.8279 55.9564 68.6427 55.9564C66.0968 55.9564 64.0255 53.9039 64.0255 51.3808C64.0255 48.8579 66.0968 46.8054 68.6427 46.8054C69.8511 46.8054 70.9749 47.257 71.8266 48.0658C71.7979 48.2587 71.7815 48.4499 71.7815 48.6391C71.7817 50.4828 72.3355 51.6504 73.1425 52.3928ZM73.4258 44.7125C72.042 43.7402 70.3713 43.1926 68.6429 43.1926C64.0865 43.1926 60.3799 46.8659 60.3799 51.3808C60.3799 55.8959 64.0868 59.5692 68.6429 59.5692C72.3888 59.5692 75.5791 57.0587 76.5787 53.6476C77.1024 53.6898 77.5991 53.6955 78.0241 53.7C79.9607 53.7124 81.7485 53.0901 83.501 51.7753C85.4299 50.3279 89.7812 45.645 93.0695 41.978V54.6603C88.1636 55.2383 84.2293 58.9939 83.4274 63.7867H53.3551C52.581 59.1589 48.8864 55.4978 44.2163 54.7308V48.0313C48.8864 47.2642 52.5808 43.6031 53.3551 38.9754L78.4721 38.9756C78.1756 39.2944 77.868 39.6218 77.5565 39.9533C75.8487 41.7705 74.4302 43.3229 73.4258 44.7125ZM49.6352 38.9754C48.9664 41.6071 46.8719 43.6824 44.2161 44.3451V38.9751L49.6352 38.9754ZM44.2163 58.4167C46.8721 59.0794 48.9666 61.155 49.6354 63.7867H44.2163V58.4167ZM87.1469 63.7864C87.8573 60.9908 90.1772 58.8241 93.0693 58.3106V63.7864H87.1469ZM111.086 38.9063C110.46 38.9063 109.877 39.2251 109.544 39.7503C106.604 44.3787 104.252 46.779 96.7151 47.4354V39.3579C97.6395 39.5186 98.6326 39.6476 99.6842 39.6476C102.429 39.6476 105.562 38.7739 108.854 35.3244C109.545 34.5996 109.513 33.4564 108.782 32.7708C108.05 32.0849 106.896 32.1171 106.205 32.8422C102.411 36.8181 99.3469 36.2086 96.1028 35.5635C95.8084 35.5048 95.5177 35.447 95.2301 35.3933C94.5663 35.2693 93.9199 35.5199 93.5093 35.9934L93.5084 35.9925C89.6755 40.4221 83.3536 47.3532 81.3001 48.8943C80.1856 49.7304 79.1912 50.0982 78.0617 50.0865C75.4276 50.0596 75.4276 49.898 75.4276 48.6387C75.4276 48.6143 75.4426 48.0173 76.7512 46.3274C77.7058 45.095 78.9861 43.7325 80.2246 42.415C81.6979 40.847 83.0897 39.366 83.8841 38.1503C84.2471 37.5948 84.2744 36.8869 83.9554 36.3055C83.6364 35.7243 83.0218 35.3621 82.354 35.3621H64.0154L71.4953 27.4433C73.5949 25.2203 76.2805 24.0934 79.4772 24.0934H114.273V38.9058H111.086V38.9063ZM124.687 40.7127C124.687 41.4185 124.108 41.9927 123.396 41.9927H119.211C118.498 41.9927 117.919 41.4185 117.919 40.7127V22.3929C117.919 21.687 118.498 21.1128 119.211 21.1128H123.396C124.108 21.1128 124.687 21.687 124.687 22.3929V40.7127Z" fill="#29394D"/>
</svg>
