<svg width="140" height="140" viewBox="0 0 140 140" fill="none" xmlns="http://www.w3.org/2000/svg">
<path d="M30.8139 92.8964C29.9797 92.8964 29.3028 92.2194 29.3028 91.3853V13.424H14.1917V91.3853C14.1917 92.2194 13.5147 92.8964 12.6805 92.8964C11.8464 92.8964 11.1694 92.2194 11.1694 91.3853V11.9129C11.1694 11.0788 11.8464 10.4018 12.6805 10.4018H30.8139C31.648 10.4018 32.325 11.0788 32.325 11.9129V91.3853C32.325 92.2194 31.648 92.8964 30.8139 92.8964Z" fill="#29394D"/>
<path d="M49.8085 24.984H38.2485C37.7257 24.984 37.2391 24.712 36.9641 24.2677C36.689 23.8235 36.6649 23.2674 36.8976 22.7989L42.6761 11.2389C42.9329 10.7282 43.4558 10.4048 44.027 10.4048C44.5982 10.4048 45.1241 10.7282 45.3779 11.2389L51.1594 22.7989C51.3921 23.2674 51.368 23.8235 51.0929 24.2677C50.8179 24.712 50.3313 24.984 49.8085 24.984ZM40.6935 21.9618H47.3635L44.027 15.2917L40.6935 21.9618Z" fill="#29394D"/>
<path d="M49.8085 84.1682C48.9744 84.1682 48.2974 83.4912 48.2974 82.6571V23.4729C48.2974 22.6388 48.9744 21.9618 49.8085 21.9618C50.6427 21.9618 51.3196 22.6388 51.3196 23.4729V82.654C51.3196 83.4912 50.6427 84.1682 49.8085 84.1682ZM38.2485 84.1682C37.4144 84.1682 36.7374 83.4912 36.7374 82.6571V23.4729C36.7374 22.6388 37.4144 21.9618 38.2485 21.9618C39.0827 21.9618 39.7596 22.6388 39.7596 23.4729V82.654C39.7596 83.4912 39.0827 84.1682 38.2485 84.1682Z" fill="#29394D"/>
<path d="M45.4445 92.8964H42.6157C39.3759 92.8964 36.7405 90.261 36.7405 87.0212V82.6571C36.7405 81.8229 37.4175 81.146 38.2516 81.146H49.8116C50.6457 81.146 51.3227 81.8229 51.3227 82.6571V87.0212C51.3197 90.261 48.6843 92.8964 45.4445 92.8964ZM39.7597 84.1682V87.0212C39.7597 88.5957 41.0411 89.8741 42.6127 89.8741H45.4415C47.016 89.8741 48.2944 88.5927 48.2944 87.0212V84.1682H39.7597Z" fill="#29394D"/>
<path d="M44.03 77.7852C43.1959 77.7852 42.5189 77.1083 42.5189 76.2741V29.8528C42.5189 29.0187 43.1959 28.3417 44.03 28.3417C44.8642 28.3417 45.5411 29.0187 45.5411 29.8528V76.2741C45.5411 77.1113 44.8642 77.7852 44.03 77.7852Z" fill="#29394D"/>
<path d="M17.1202 20.9735H12.6805C11.8464 20.9735 11.1694 20.2965 11.1694 19.4624C11.1694 18.6283 11.8464 17.9513 12.6805 17.9513H17.1202C17.9543 17.9513 18.6313 18.6283 18.6313 19.4624C18.6313 20.2965 17.9543 20.9735 17.1202 20.9735Z" fill="#29394D"/>
<path d="M17.1202 29.0217H12.6805C11.8464 29.0217 11.1694 28.3447 11.1694 27.5106C11.1694 26.6764 11.8464 25.9995 12.6805 25.9995H17.1202C17.9543 25.9995 18.6313 26.6764 18.6313 27.5106C18.6313 28.3447 17.9543 29.0217 17.1202 29.0217Z" fill="#29394D"/>
<path d="M17.1202 37.0668H12.6805C11.8464 37.0668 11.1694 36.3899 11.1694 35.5557C11.1694 34.7216 11.8464 34.0446 12.6805 34.0446H17.1202C17.9543 34.0446 18.6313 34.7216 18.6313 35.5557C18.6313 36.3899 17.9543 37.0668 17.1202 37.0668Z" fill="#29394D"/>
<path d="M17.1202 45.115H12.6805C11.8464 45.115 11.1694 44.438 11.1694 43.6039C11.1694 42.7698 11.8464 42.0928 12.6805 42.0928H17.1202C17.9543 42.0928 18.6313 42.7698 18.6313 43.6039C18.6313 44.438 17.9543 45.115 17.1202 45.115Z" fill="#29394D"/>
<path d="M17.1202 53.1602H12.6805C11.8464 53.1602 11.1694 52.4832 11.1694 51.6491C11.1694 50.8149 11.8464 50.138 12.6805 50.138H17.1202C17.9543 50.138 18.6313 50.8149 18.6313 51.6491C18.6313 52.4832 17.9543 53.1602 17.1202 53.1602Z" fill="#29394D"/>
<path d="M17.1202 61.2084H12.6805C11.8464 61.2084 11.1694 60.5314 11.1694 59.6973C11.1694 58.8631 11.8464 58.1861 12.6805 58.1861H17.1202C17.9543 58.1861 18.6313 58.8631 18.6313 59.6973C18.6313 60.5314 17.9543 61.2084 17.1202 61.2084Z" fill="#29394D"/>
<path d="M17.1202 69.2535H12.6805C11.8464 69.2535 11.1694 68.5765 11.1694 67.7424C11.1694 66.9083 11.8464 66.2313 12.6805 66.2313H17.1202C17.9543 66.2313 18.6313 66.9083 18.6313 67.7424C18.6313 68.5765 17.9543 69.2535 17.1202 69.2535Z" fill="#29394D"/>
<path d="M17.1202 77.3017H12.6805C11.8464 77.3017 11.1694 76.6247 11.1694 75.7906C11.1694 74.9564 11.8464 74.2795 12.6805 74.2795H17.1202C17.9543 74.2795 18.6313 74.9564 18.6313 75.7906C18.6313 76.6247 17.9543 77.3017 17.1202 77.3017Z" fill="#29394D"/>
<path d="M17.1202 85.3468H12.6805C11.8464 85.3468 11.1694 84.6699 11.1694 83.8357C11.1694 83.0016 11.8464 82.3246 12.6805 82.3246H17.1202C17.9543 82.3246 18.6313 83.0016 18.6313 83.8357C18.6313 84.6699 17.9543 85.3468 17.1202 85.3468Z" fill="#29394D"/>
<path d="M60.7792 82.3186C59.945 82.3186 59.2681 81.6416 59.2681 80.8075V33.1168C59.2681 32.2827 59.945 31.6057 60.7792 31.6057C61.6133 31.6057 62.2903 32.2827 62.2903 33.1168V80.8075C62.2903 81.6416 61.6133 82.3186 60.7792 82.3186Z" fill="#29394D"/>
<path d="M64.3152 34.6279H57.2432C56.409 34.6279 55.7321 33.9509 55.7321 33.1168C55.7321 32.2827 56.409 31.6057 57.2432 31.6057H64.3152C65.1493 31.6057 65.8263 32.2827 65.8263 33.1168C65.8263 33.9509 65.1493 34.6279 64.3152 34.6279Z" fill="#29394D"/>
<path d="M64.3152 82.3186H57.2432C56.409 82.3186 55.7321 81.6416 55.7321 80.8075C55.7321 79.9733 56.409 79.2964 57.2432 79.2964H64.3152C65.1493 79.2964 65.8263 79.9733 65.8263 80.8075C65.8263 81.6416 65.1493 82.3186 64.3152 82.3186Z" fill="#29394D"/>
<path d="M125.086 54.221H74.1405C71.9886 54.221 70.2388 52.4711 70.2388 50.3193V35.8459C70.2388 33.694 71.9886 31.9442 74.1405 31.9442H125.086C127.238 31.9442 128.988 33.694 128.988 35.8459V50.3193C128.988 52.4711 127.238 54.221 125.086 54.221ZM74.1405 34.9664C73.6629 34.9664 73.261 35.3684 73.261 35.8459V50.3193C73.261 50.7968 73.6629 51.1988 74.1405 51.1988H125.086C125.564 51.1988 125.966 50.7968 125.966 50.3193V35.8459C125.966 35.3684 125.564 34.9664 125.086 34.9664H74.1405Z" fill="#29394D"/>
<path d="M125.086 81.9831H106.913C104.762 81.9831 103.012 80.2332 103.012 78.0814V63.608C103.012 61.4562 104.762 59.7063 106.913 59.7063H125.086C127.238 59.7063 128.988 61.4562 128.988 63.608V78.0814C128.988 80.2332 127.238 81.9831 125.086 81.9831ZM106.913 62.7285C106.436 62.7285 106.034 63.1305 106.034 63.608V78.0814C106.034 78.5589 106.436 78.9609 106.913 78.9609H125.086C125.564 78.9609 125.965 78.5589 125.965 78.0814V63.608C125.965 63.1305 125.564 62.7285 125.086 62.7285H106.913Z" fill="#29394D"/>
<path d="M91.0679 81.9831H74.1405C71.9886 81.9831 70.2388 80.2332 70.2388 78.0814V63.608C70.2388 61.4562 71.9886 59.7063 74.1405 59.7063H91.0679C93.2197 59.7063 94.9696 61.4562 94.9696 63.608V78.0814C94.9726 80.2332 93.2197 81.9831 91.0679 81.9831ZM74.1405 62.7285C73.6629 62.7285 73.261 63.1305 73.261 63.608V78.0814C73.261 78.5589 73.6629 78.9609 74.1405 78.9609H91.0679C91.5454 78.9609 91.9474 78.5589 91.9474 78.0814V63.608C91.9474 63.1305 91.5454 62.7285 91.0679 62.7285H74.1405Z" fill="#29394D"/>
<path d="M128.921 107.013H11.2389C6.85672 107.013 3.28748 103.447 3.28748 99.0617V28.9764C3.28748 24.5941 6.8537 21.0249 11.2389 21.0249H12.6805C13.5147 21.0249 14.1917 21.7019 14.1917 22.536C14.1917 23.3701 13.5147 24.0471 12.6805 24.0471H11.2389C8.52197 24.0471 6.3097 26.2564 6.3097 28.9764V99.0617C6.3097 101.779 8.51894 103.991 11.2389 103.991H128.921C131.638 103.991 133.847 101.782 133.847 99.0617V28.9764C133.847 26.2594 131.638 24.0471 128.921 24.0471H49.3431C48.509 24.0471 47.832 23.3701 47.832 22.536C47.832 21.7019 48.509 21.0249 49.3431 21.0249H128.921C133.303 21.0249 136.87 24.5911 136.87 28.9764V99.0617C136.87 103.447 133.303 107.013 128.921 107.013ZM38.714 24.0501H30.8139C29.9797 24.0501 29.3028 23.3732 29.3028 22.539C29.3028 21.7049 29.9797 21.0279 30.8139 21.0279H38.714C39.5481 21.0279 40.2251 21.7049 40.2251 22.539C40.2251 23.3732 39.5511 24.0501 38.714 24.0501Z" fill="#29394D"/>
<path d="M135.359 92.8964H4.79859C3.96445 92.8964 3.28748 92.2194 3.28748 91.3853C3.28748 90.5511 3.96445 89.8741 4.79859 89.8741H135.359C136.193 89.8741 136.87 90.5511 136.87 91.3853C136.87 92.2194 136.193 92.8964 135.359 92.8964Z" fill="#29394D"/>
<path d="M87.4141 120.634C86.58 120.634 85.903 119.957 85.903 119.123V105.502C85.903 104.668 86.58 103.991 87.4141 103.991C88.2482 103.991 88.9252 104.668 88.9252 105.502V119.123C88.9252 119.957 88.2482 120.634 87.4141 120.634ZM52.7432 120.634C51.909 120.634 51.2321 119.957 51.2321 119.123V105.502C51.2321 104.668 51.909 103.991 52.7432 103.991C53.5773 103.991 54.2543 104.668 54.2543 105.502V119.123C54.2543 119.957 53.5773 120.634 52.7432 120.634Z" fill="#29394D"/>
<path d="M67.6034 113.822H52.7432C51.909 113.822 51.2321 113.145 51.2321 112.311C51.2321 111.477 51.909 110.8 52.7432 110.8H67.6034C68.4376 110.8 69.1146 111.477 69.1146 112.311C69.1146 113.145 68.4376 113.822 67.6034 113.822Z" fill="#29394D"/>
<path d="M91.3762 130.046H48.781C45.3538 130.046 42.5643 127.256 42.5643 123.829V121.106C42.5643 119.181 44.1298 117.612 46.058 117.612H94.1023C96.0274 117.612 97.596 119.178 97.596 121.106V123.829C97.5929 127.256 94.8034 130.046 91.3762 130.046ZM46.058 120.634C45.8042 120.634 45.5866 120.849 45.5866 121.106V123.829C45.5866 125.591 47.0191 127.023 48.781 127.023H91.3762C93.1382 127.023 94.5707 125.591 94.5707 123.829V121.106C94.5707 120.852 94.3561 120.634 94.0993 120.634H46.058Z" fill="#29394D"/>
<path d="M58.5639 102.431C56.3638 102.431 54.5776 100.642 54.5776 98.4452C54.5776 96.248 56.3668 94.4588 58.5639 94.4588C60.7611 94.4588 62.5503 96.248 62.5503 98.4452C62.5503 100.642 60.7611 102.431 58.5639 102.431ZM58.5639 97.4781C58.032 97.4781 57.5999 97.9102 57.5999 98.4421C57.5999 98.974 58.032 99.4062 58.5639 99.4062C59.0959 99.4062 59.528 98.974 59.528 98.4421C59.528 97.9102 59.0959 97.4781 58.5639 97.4781Z" fill="#29394D"/>
<path d="M70.0786 102.431C67.8784 102.431 66.0923 100.642 66.0923 98.4452C66.0923 96.248 67.8814 94.4588 70.0786 94.4588C72.2757 94.4588 74.0649 96.248 74.0649 98.4452C74.0649 100.642 72.2788 102.431 70.0786 102.431ZM70.0786 97.4781C69.5467 97.4781 69.1145 97.9102 69.1145 98.4421C69.1145 98.974 69.5467 99.4062 70.0786 99.4062C70.6105 99.4062 71.0427 98.974 71.0427 98.4421C71.0427 97.9102 70.6105 97.4781 70.0786 97.4781Z" fill="#29394D"/>
<path d="M81.5932 102.431C79.3931 102.431 77.6069 100.642 77.6069 98.4452C77.6069 96.248 79.3961 94.4588 81.5932 94.4588C83.7904 94.4588 85.5796 96.248 85.5796 98.4452C85.5796 100.642 83.7934 102.431 81.5932 102.431ZM81.5932 97.4781C81.0613 97.4781 80.6292 97.9102 80.6292 98.4421C80.6292 98.974 81.0613 99.4062 81.5932 99.4062C82.1252 99.4062 82.5573 98.974 82.5573 98.4421C82.5573 97.9102 82.1282 97.4781 81.5932 97.4781Z" fill="#29394D"/>
</svg>
