<svg width="140" height="140" viewBox="0 0 140 140" fill="none" xmlns="http://www.w3.org/2000/svg">
<g clip-path="url(#clip0_423_5772)">
<path d="M138 84.3786V55.6214H122.326C121.13 51.2715 119.397 47.098 117.158 43.1762L128.25 32.0839L107.916 11.7496L96.8238 22.8419C92.902 20.6027 88.7285 18.8697 84.3786 17.674V2H55.6214V17.674C51.2715 18.8697 47.098 20.6027 43.1762 22.8419L32.0839 11.7496L11.7496 32.0839L22.8419 43.1765C22.1911 44.317 21.5797 45.4848 21.0164 46.6632L24.6263 48.3884C25.3572 46.859 26.1761 45.3488 27.0603 43.8996L27.8799 42.5561L17.4075 32.0836L32.0836 17.4075L42.5561 27.8799L43.8996 27.0603C48.3084 24.3703 53.0845 22.3869 58.0953 21.1652L59.6221 20.7929V6.00098H80.3773V20.7931L81.9041 21.1655C86.9149 22.3871 91.691 24.3706 96.0999 27.0605L97.4434 27.8802L107.916 17.4078L122.592 32.0839L112.12 42.5563L112.939 43.8999C115.629 48.3087 117.613 53.0848 118.834 58.0956L119.207 59.6224H133.999V80.3776H119.207L118.834 81.9044C117.613 86.9152 115.629 91.6913 112.939 96.1001L112.12 97.4437L122.592 107.916L107.916 122.592L97.4434 112.12L96.0999 112.939C91.691 115.629 86.9149 117.613 81.9041 118.835L80.3773 119.207V133.999H59.6221V119.207L58.0953 118.835C53.0845 117.613 48.3084 115.629 43.8996 112.939L42.5561 112.12L32.0836 122.592L17.4075 107.916L27.8799 97.4437L27.0603 96.1001C24.3703 91.6913 22.3869 86.9152 21.1652 81.9044L20.7929 80.3776H6.00098V59.6224H20.7931L21.1655 58.0956C21.6766 55.9999 22.33 53.9173 23.1081 51.9061L19.3768 50.4623C18.7254 52.1456 18.1549 53.8748 17.6745 55.6211H2V84.3783H17.674C18.8697 88.7282 20.6027 92.9017 22.8419 96.8235L11.7496 107.916L32.0839 128.25L43.1762 117.158C47.098 119.397 51.2715 121.13 55.6214 122.326V138H84.3786V122.326C88.7285 121.13 92.902 119.397 96.8238 117.158L107.916 128.25L128.25 107.916L117.158 96.8235C119.397 92.9017 121.13 88.7282 122.326 84.3783H138V84.3786Z" fill="#29394D"/>
<path d="M45.1282 94.6376L47.9705 91.8217C42.1806 85.9771 38.992 78.2275 38.992 69.9999C38.992 52.9021 52.9021 38.992 69.9999 38.992C87.0977 38.992 101.008 52.9021 101.008 69.9999C101.008 87.0976 87.0977 101.008 69.9999 101.008C62.9513 101.008 56.3091 98.7032 50.7917 94.3434L48.3111 97.4829C54.542 102.406 62.042 105.009 69.9999 105.009C89.3038 105.009 105.009 89.3038 105.009 69.9999C105.009 50.6959 89.3041 34.9913 70.0002 34.9913C50.6962 34.9913 34.9913 50.6962 34.9913 70.0001C34.9913 79.2891 38.5914 88.0389 45.1282 94.6376Z" fill="#29394D"/>
<path d="M60.8939 67.6299L57.6504 69.9727L66.1872 81.7915L82.2567 62.7458L79.1986 60.1657L66.4317 75.2972L60.8939 67.6299Z" fill="#29394D"/>
<path d="M93.4782 75.0283C93.8284 73.3855 94.006 71.6936 94.006 69.9998C94.006 56.763 83.237 45.994 70.0001 45.994C56.7633 45.994 45.9943 56.763 45.9943 69.9998C45.9943 83.2367 56.7633 94.0057 70.0001 94.0057C79.742 94.0057 88.4489 88.1915 92.1821 79.1936L88.4868 77.6604C85.3754 85.1593 78.1189 90.0047 70.0001 90.0047C58.9694 90.0047 49.9952 81.0305 49.9952 69.9998C49.9952 58.9691 58.9694 49.9949 70.0001 49.9949C81.0308 49.9949 90.005 58.9691 90.005 69.9998C90.005 71.4138 89.857 72.8248 89.5652 74.1942L93.4782 75.0283Z" fill="#29394D"/>
<path d="M53.6195 30.2299C52.3331 30.7617 51.0568 31.364 49.8258 32.0202L51.7081 35.5506C52.8244 34.9555 53.9818 34.4093 55.1482 33.9273L53.6195 30.2299Z" fill="#29394D"/>
<path d="M61.6432 27.8044C60.2754 28.0749 58.9055 28.4163 57.5715 28.8196L58.7297 32.6494C59.9385 32.2837 61.1799 31.9743 62.4194 31.7291L61.6432 27.8044Z" fill="#29394D"/>
<path d="M48.4426 37.5026L46.2256 34.1722C45.0666 34.9438 43.9314 35.7816 42.8519 36.6624L45.3811 39.7624C46.3608 38.9632 47.3906 38.2028 48.4426 37.5026Z" fill="#29394D"/>
</g>
<defs>
<clipPath id="clip0_423_5772">
<rect width="136" height="136" fill="white" transform="translate(2 2)"/>
</clipPath>
</defs>
</svg>
