<svg width="140" height="140" viewBox="0 0 140 140" fill="none" xmlns="http://www.w3.org/2000/svg">
<g clip-path="url(#clip0_423_5802)">
<path d="M83.1613 116.065C79.5332 116.065 76.5807 119.017 76.5807 122.645C76.5807 126.273 79.5332 129.226 83.1613 129.226C86.7895 129.226 89.742 126.273 89.742 122.645C89.742 119.017 86.7895 116.065 83.1613 116.065ZM83.1613 124.839C81.9527 124.839 80.9678 123.856 80.9678 122.645C80.9678 121.434 81.9527 120.452 83.1613 120.452C84.37 120.452 85.3549 121.434 85.3549 122.645C85.3549 123.856 84.37 124.839 83.1613 124.839Z" fill="#29394D"/>
<path d="M30.5162 116.065C26.8881 116.065 23.9355 119.017 23.9355 122.645C23.9355 126.273 26.8881 129.226 30.5162 129.226C34.1443 129.226 37.0968 126.273 37.0968 122.645C37.0968 119.017 34.1443 116.065 30.5162 116.065ZM30.5162 124.839C29.3075 124.839 28.3226 123.856 28.3226 122.645C28.3226 121.434 29.3075 120.452 30.5162 120.452C31.7248 120.452 32.7097 121.434 32.7097 122.645C32.7097 123.856 31.7248 124.839 30.5162 124.839Z" fill="#29394D"/>
<path d="M34.9033 37.0968C38.5314 37.0968 41.4839 34.1443 41.4839 30.5161C41.4839 26.888 38.5314 23.9355 34.9033 23.9355C31.2751 23.9355 28.3226 26.888 28.3226 30.5161C28.3226 34.1443 31.2751 37.0968 34.9033 37.0968ZM34.9033 28.3226C36.1119 28.3226 37.0968 29.3053 37.0968 30.5161C37.0968 31.727 36.1119 32.7097 34.9033 32.7097C33.6946 32.7097 32.7097 31.727 32.7097 30.5161C32.7097 29.3053 33.6946 28.3226 34.9033 28.3226Z" fill="#29394D"/>
<path d="M122.645 80.9677C119.017 80.9677 116.064 83.9202 116.064 87.5484C116.064 91.1765 119.017 94.129 122.645 94.129C126.273 94.129 129.226 91.1765 129.226 87.5484C129.226 83.9202 126.273 80.9677 122.645 80.9677ZM122.645 89.7419C121.436 89.7419 120.452 88.7592 120.452 87.5484C120.452 86.3375 121.436 85.3548 122.645 85.3548C123.854 85.3548 124.839 86.3375 124.839 87.5484C124.839 88.7592 123.854 89.7419 122.645 89.7419Z" fill="#29394D"/>
<path d="M124.742 72.3537C124.775 71.5684 124.839 70.7831 124.839 70C124.839 60.0018 122.11 50.2822 116.986 41.769C119.23 37.8206 120.452 33.3173 120.452 28.7525V28.3226C120.452 13.8079 108.644 2 94.129 2C84.3941 2 75.8941 7.32594 71.3403 15.2052C62.8359 15.0099 54.2021 16.824 46.4939 20.4763C43.6752 17.2276 39.5294 15.1613 34.9032 15.1613C26.4361 15.1613 19.5484 22.0512 19.5484 30.5161C19.5484 33.8196 20.6408 37.0902 22.6194 39.7268L23.5275 40.9377C18.4582 49.0297 15.6197 58.2404 15.2425 67.8064H10.7742C8.35471 67.8064 6.3871 69.7741 6.3871 72.1936V116.065C3.96761 116.065 2 118.032 2 120.452V124.839C2 127.258 3.96761 129.226 6.3871 129.226H16.6639C19.1338 134.405 24.4071 138 30.5161 138C36.6252 138 41.8985 134.405 44.3684 129.226H69.309C71.779 134.405 77.0523 138 83.1613 138C89.2703 138 94.5436 134.405 97.0135 129.226H102.903C105.323 129.226 107.29 127.258 107.29 124.839V118.798C107.29 118.262 107.225 117.727 107.095 117.201L105.691 111.585C108.96 108.78 111.875 105.617 114.395 102.138L122.645 113.141L134.929 96.7613C136.91 94.1225 138 90.8497 138 87.5484C138 79.7964 132.218 73.3825 124.742 72.3537ZM94.129 6.3871C106.224 6.3871 116.065 16.2274 116.065 28.3226V28.7503C116.065 33.6419 114.4 38.4568 111.377 42.3021L94.129 64.2573L76.8812 42.3021C73.8585 38.4568 72.1936 33.6441 72.1936 28.7503V28.3226C72.1936 16.2274 82.0338 6.3871 94.129 6.3871ZM34.9032 19.5484C40.9508 19.5484 45.871 24.4685 45.871 30.5161C45.871 32.8742 45.0923 35.2125 43.6774 37.0946L34.9032 48.795L26.129 37.0946C24.7142 35.2125 23.9355 32.8742 23.9355 30.5161C23.9355 24.4685 28.8556 19.5484 34.9032 19.5484ZM10.7742 72.1936H28.3226V88.904L39.2903 83.4201L50.2581 88.904V72.1936H67.8064V116.065H44.3684C41.8985 110.886 36.6252 107.29 30.5161 107.29C24.4071 107.29 19.1338 110.886 16.6639 116.065H10.7742V72.1936ZM32.7097 72.1936H45.871V81.8057L39.2903 78.5154L32.7097 81.8057V72.1936ZM72.1936 85.3548H92.8963C93.9031 85.3548 94.7805 86.0392 95.024 87.0154L95.7062 89.7419H85.3548C82.9354 89.7419 80.9677 91.7095 80.9677 94.129V98.5161C80.9677 100.936 82.9354 102.903 85.3548 102.903H98.9965L102.287 116.065H97.0135C94.5436 110.886 89.2703 107.29 83.1613 107.29C78.8663 107.29 74.9837 109.067 72.1936 111.921V85.3548ZM97.8997 98.5161H85.3548V94.129H96.803L97.8997 98.5161ZM6.3871 124.839V120.452H15.3368C15.2337 121.171 15.1613 121.899 15.1613 122.645C15.1613 123.391 15.2337 124.119 15.3368 124.839H6.3871ZM30.5161 133.613C24.4685 133.613 19.5484 128.693 19.5484 122.645C19.5484 116.598 24.4685 111.677 30.5161 111.677C36.5637 111.677 41.4839 116.598 41.4839 122.645C41.4839 128.693 36.5637 133.613 30.5161 133.613ZM45.6955 124.839C45.7986 124.119 45.871 123.391 45.871 122.645C45.871 121.899 45.7986 121.171 45.6955 120.452H67.9819C67.8788 121.171 67.8064 121.899 67.8064 122.645C67.8064 123.391 67.8788 124.119 67.9819 124.839H45.6955ZM83.1613 133.613C77.1137 133.613 72.1936 128.693 72.1936 122.645C72.1936 116.598 77.1137 111.677 83.1613 111.677C89.2089 111.677 94.129 116.598 94.129 122.645C94.129 128.693 89.2089 133.613 83.1613 133.613ZM98.3406 124.839C98.4437 124.119 98.5161 123.391 98.5161 122.645C98.5161 121.899 98.4437 121.171 98.3406 120.452H102.903V124.839H98.3406ZM104.494 106.797L99.2817 85.9515C98.5468 83.0187 95.9212 80.9677 92.8963 80.9677H72.1936V72.1936C72.1936 69.7741 70.2259 67.8064 67.8064 67.8064H19.6274C19.9783 59.6333 22.2684 51.7453 26.355 44.7106L34.9032 56.1083L47.1871 39.729C49.1679 37.0902 50.2581 33.8174 50.2581 30.5161C50.2581 28.259 49.7557 26.1203 48.8761 24.1877C55.3032 21.2111 62.169 19.6581 69.3332 19.5681C68.3636 22.3123 67.8064 25.2494 67.8064 28.3226V28.7503C67.8064 34.6225 69.8048 40.4003 73.4307 45.0133L94.129 71.3556L114.244 45.7547C118.309 53.1601 120.452 61.4737 120.452 70C120.452 70.7919 120.39 71.5881 120.355 72.3844C112.974 73.4965 107.29 79.8622 107.29 87.5484C107.29 90.8519 108.383 94.1225 110.361 96.7591L111.627 98.4481C109.55 101.482 107.174 104.285 104.494 106.797ZM131.419 94.1268L122.645 105.827L113.871 94.1268C112.456 92.2448 111.677 89.9065 111.677 87.5484C111.677 81.5008 116.598 76.5807 122.645 76.5807C128.693 76.5807 133.613 81.5008 133.613 87.5484C133.613 89.9065 132.834 92.2448 131.419 94.1268Z" fill="#29394D"/>
<path d="M94.1291 45.8709C103.805 45.8709 111.677 37.9983 111.677 28.3226C111.677 18.6468 103.805 10.7742 94.1291 10.7742C84.4533 10.7742 76.5807 18.6468 76.5807 28.3226C76.5807 37.9983 84.4533 45.8709 94.1291 45.8709ZM94.1291 15.1613C101.388 15.1613 107.29 21.0641 107.29 28.3226C107.29 35.581 101.388 41.4838 94.1291 41.4838C86.8706 41.4838 80.9678 35.581 80.9678 28.3226C80.9678 21.0641 86.8706 15.1613 94.1291 15.1613Z" fill="#29394D"/>
<path d="M54.6451 59.0323H59.0322V63.4194H54.6451V59.0323Z" fill="#29394D"/>
<path d="M63.4193 59.0323H67.8064V63.4194H63.4193V59.0323Z" fill="#29394D"/>
<path d="M72.1936 59.0323H76.5807V63.4194H72.1936V59.0323Z" fill="#29394D"/>
</g>
<defs>
<clipPath id="clip0_423_5802">
<rect width="136" height="136" fill="white" transform="translate(2 2)"/>
</clipPath>
</defs>
</svg>
