<svg width="140" height="140" viewBox="0 0 140 140" fill="none" xmlns="http://www.w3.org/2000/svg">
<path d="M125.25 74.25H117.428C116.532 70.9703 115.224 67.8177 113.533 64.8681L119.07 59.3304C119.469 58.9319 119.693 58.3915 119.693 57.828C119.693 57.2645 119.469 56.7241 119.07 56.3256L108.832 46.0895C108.636 45.8865 108.402 45.7247 108.142 45.6133C107.883 45.5019 107.604 45.4433 107.322 45.4408C107.04 45.4384 106.76 45.4922 106.499 45.599C106.238 45.7059 106.001 45.8636 105.801 46.0632C105.602 46.2627 105.444 46.4999 105.337 46.7611C105.23 47.0223 105.176 47.3021 105.179 47.5842C105.181 47.8664 105.24 48.1452 105.351 48.4045C105.463 48.6637 105.625 48.8982 105.828 49.0943L114.563 57.828L109.355 63.0385C109.015 63.3788 108.8 63.8246 108.746 64.3029C108.692 64.7812 108.802 65.2637 109.058 65.6714C111.227 69.1053 112.795 72.8838 113.694 76.8446C113.801 77.3149 114.064 77.735 114.441 78.0358C114.818 78.3367 115.286 78.5004 115.768 78.5H123.125V91.25H115.768C115.286 91.2497 114.818 91.4133 114.441 91.7142C114.064 92.015 113.801 92.4351 113.694 92.9054C112.795 96.8662 111.227 100.645 109.058 104.079C108.802 104.486 108.692 104.969 108.746 105.447C108.8 105.925 109.015 106.371 109.355 106.712L114.563 111.922L105.547 120.938L100.337 115.73C99.9961 115.389 99.5499 115.174 99.0711 115.12C98.5923 115.066 98.1094 115.176 97.7015 115.433C94.2678 117.603 90.4893 119.171 86.5283 120.071C86.0583 120.178 85.6387 120.442 85.3383 120.819C85.0379 121.196 84.8745 121.663 84.875 122.145V131.625C84.875 132.189 85.0989 132.729 85.4974 133.128C85.8959 133.526 86.4364 133.75 87 133.75C87.5636 133.75 88.1041 133.526 88.5026 133.128C88.9011 132.729 89.125 132.189 89.125 131.625V123.803C92.4051 122.909 95.5579 121.6 98.5069 119.908L104.045 125.446C104.443 125.844 104.984 126.068 105.547 126.068C106.11 126.068 106.651 125.844 107.049 125.446L119.07 113.424C119.469 113.026 119.693 112.485 119.693 111.922C119.693 111.359 119.469 110.818 119.07 110.42L113.533 104.882C115.224 101.932 116.532 98.7798 117.428 95.5H125.25C125.814 95.5 126.354 95.2761 126.753 94.8776C127.151 94.4791 127.375 93.9386 127.375 93.375V76.375C127.375 75.8114 127.151 75.2709 126.753 74.8724C126.354 74.4739 125.814 74.25 125.25 74.25Z" fill="#29394D"/>
<path d="M78.5001 129.5H72.1251V122.145C72.1255 121.663 71.9621 121.196 71.6617 120.819C71.3613 120.442 70.9417 120.178 70.4718 120.071C66.5108 119.171 62.7322 117.603 59.2986 115.432C58.8907 115.176 58.4077 115.066 57.929 115.12C57.4502 115.174 57.004 115.389 56.6636 115.73L51.4531 120.938L42.4367 111.922L47.6451 106.711C47.9855 106.371 48.2004 105.925 48.2544 105.447C48.3085 104.969 48.1985 104.486 47.9426 104.079C45.7736 100.644 44.2049 96.866 43.3037 92.9054C43.1972 92.4354 42.9341 92.0156 42.5577 91.7148C42.1812 91.414 41.7137 91.2501 41.2318 91.25H33.8751V78.5H41.2318C41.7137 78.4999 42.1812 78.336 42.5577 78.0352C42.9341 77.7344 43.1972 77.3146 43.3037 76.8446C44.2049 72.884 45.7736 69.1057 47.9426 65.6714C48.1985 65.2637 48.3085 64.7812 48.2544 64.3029C48.2004 63.8246 47.9855 63.3788 47.6451 63.0385L42.4367 57.828L51.1492 49.1155C51.3521 48.9195 51.514 48.685 51.6254 48.4257C51.7368 48.1665 51.7954 47.8876 51.7978 47.6055C51.8003 47.3233 51.7465 47.0435 51.6397 46.7823C51.5328 46.5212 51.375 46.2839 51.1755 46.0844C50.976 45.8849 50.7387 45.7271 50.4776 45.6202C50.2164 45.5134 49.9366 45.4596 49.6545 45.4621C49.3723 45.4645 49.0935 45.5232 48.8342 45.6345C48.5749 45.7459 48.3405 45.9078 48.1444 46.1107L37.9444 56.3214C37.5461 56.7199 37.3223 57.2603 37.3223 57.8237C37.3223 58.3872 37.5461 58.9276 37.9444 59.3261L43.4822 64.8639C41.7859 67.814 40.472 70.9681 39.5722 74.25H31.7501C31.1865 74.25 30.646 74.4739 30.2475 74.8724C29.8489 75.2709 29.6251 75.8114 29.6251 76.375V93.375C29.6251 93.9386 29.8489 94.4791 30.2475 94.8776C30.646 95.2761 31.1865 95.5 31.7501 95.5H39.5722C40.4677 98.7797 41.7765 101.932 43.4673 104.882L38.4204 109.929C38.3059 107.833 37.4188 105.855 35.9307 104.376C34.4425 102.896 32.4589 102.021 30.363 101.919C28.2671 101.817 26.2077 102.495 24.5828 103.823C22.9578 105.15 21.8826 107.033 21.5649 109.107C21.2472 111.182 21.7095 113.3 22.8625 115.053C24.0155 116.806 25.7774 118.07 27.8078 118.6C29.8381 119.13 31.9928 118.888 33.8556 117.922C35.7184 116.956 37.157 115.334 37.8934 113.369C37.9083 113.386 37.9147 113.407 37.9296 113.424L45.7751 121.259L44.4129 123.618L41.4847 121.918C41.1177 121.706 40.6958 121.609 40.2733 121.639C39.8507 121.669 39.4467 121.825 39.1132 122.086C38.0283 122.936 36.8303 123.63 35.5538 124.149C35.1614 124.308 34.8254 124.58 34.5887 124.931C34.3521 125.282 34.2257 125.696 34.2257 126.119V129.5H25.7257V126.128C25.7257 125.704 25.5993 125.291 25.3626 124.94C25.126 124.589 24.79 124.316 24.3976 124.158C23.1204 123.638 21.9217 122.942 20.8361 122.092C20.5025 121.832 20.0988 121.677 19.6767 121.647C19.2546 121.618 18.8332 121.715 18.4667 121.926L15.5384 123.626L11.2884 116.265L14.2188 114.565C14.5835 114.354 14.8772 114.04 15.0626 113.661C15.248 113.283 15.3167 112.858 15.2601 112.44C15.0477 111.076 15.0477 109.687 15.2601 108.322C15.3167 107.905 15.248 107.48 15.0626 107.101C14.8772 106.723 14.5835 106.408 14.2188 106.197L11.2884 104.497L15.5384 97.1362L18.4667 98.8362C18.8332 99.0477 19.2546 99.1448 19.6767 99.1153C20.0988 99.0858 20.5025 98.9309 20.8361 98.6705C21.9217 97.8202 23.1204 97.1251 24.3976 96.605C24.79 96.4463 25.126 96.174 25.3626 95.823C25.5993 95.472 25.7257 95.0584 25.7257 94.6351V89.125C25.7257 88.5614 25.5018 88.0209 25.1033 87.6224C24.7048 87.2239 24.1643 87 23.6007 87C23.0371 87 22.4966 87.2239 22.0981 87.6224C21.6996 88.0209 21.4757 88.5614 21.4757 89.125V93.2517C20.7599 93.6089 20.0672 94.0106 19.4017 94.4545L15.8126 92.389C15.3245 92.1072 14.7445 92.0309 14.2001 92.1767C13.6557 92.3226 13.1916 92.6787 12.9098 93.1667L6.53481 104.217C6.25572 104.704 6.18086 105.282 6.32659 105.824C6.47233 106.367 6.8268 106.829 7.31256 107.111L10.8868 109.174C10.8549 109.599 10.8401 109.986 10.8401 110.375C10.8401 110.764 10.8549 111.159 10.8868 111.576L7.31256 113.639C6.82565 113.921 6.47036 114.384 6.32456 114.927C6.17877 115.471 6.25437 116.05 6.53481 116.537L12.9098 127.587C13.1916 128.076 13.6557 128.432 14.2001 128.578C14.7445 128.723 15.3245 128.647 15.8126 128.365L19.3911 126.3C20.0565 126.744 20.7492 127.145 21.4651 127.502V131.625C21.4651 132.189 21.6889 132.729 22.0875 133.128C22.486 133.526 23.0265 133.75 23.5901 133.75H36.3401C36.9036 133.75 37.4442 133.526 37.8427 133.128C38.2412 132.729 38.4651 132.189 38.4651 131.625V127.498C39.1818 127.142 39.8753 126.74 40.5412 126.295L44.1176 128.361C44.3593 128.501 44.6263 128.592 44.9032 128.628C45.18 128.665 45.4614 128.647 45.7312 128.574C46.001 128.502 46.2539 128.377 46.4755 128.207C46.697 128.037 46.8829 127.825 47.0224 127.583L48.8776 124.37L49.9507 125.445C50.3492 125.844 50.8896 126.068 51.4531 126.068C52.0165 126.068 52.5569 125.844 52.9554 125.445L58.4932 119.908C61.4422 121.6 64.5949 122.909 67.8751 123.803V131.625C67.8751 132.189 68.0989 132.729 68.4975 133.128C68.896 133.526 69.4365 133.75 70.0001 133.75H78.5001C79.0637 133.75 79.6042 133.526 80.0027 133.128C80.4012 132.729 80.6251 132.189 80.6251 131.625C80.6251 131.061 80.4012 130.521 80.0027 130.122C79.6042 129.724 79.0637 129.5 78.5001 129.5ZM29.9651 114.625C29.1245 114.625 28.3028 114.376 27.6039 113.909C26.905 113.442 26.3602 112.778 26.0386 112.001C25.7169 111.225 25.6327 110.37 25.7967 109.546C25.9607 108.721 26.3655 107.964 26.9599 107.37C27.5542 106.775 28.3115 106.371 29.1359 106.207C29.9603 106.043 30.8149 106.127 31.5915 106.449C32.3681 106.77 33.0318 107.315 33.4988 108.014C33.9658 108.713 34.2151 109.534 34.2151 110.375C34.2151 111.502 33.7673 112.583 32.9703 113.38C32.1732 114.177 31.0922 114.625 29.9651 114.625Z" fill="#29394D"/>
<path d="M118.875 16.875C116.48 16.881 114.122 17.4634 112 18.573C109.877 19.6826 108.053 21.2868 106.682 23.25H101.875V21.125C101.88 19.892 101.527 18.6841 100.857 17.6489C100.187 16.6137 99.2304 15.796 98.1034 15.2956C96.9765 14.7953 95.7283 14.634 94.5112 14.8315C93.2942 15.0289 92.1609 15.5766 91.25 16.4075C90.0913 15.3416 88.5744 14.7499 87 14.7499C85.4256 14.7499 83.9087 15.3416 82.75 16.4075C81.5913 15.3416 80.0744 14.7499 78.5 14.7499C76.9256 14.7499 75.4087 15.3416 74.25 16.4075C73.3391 15.5766 72.2058 15.0289 70.9888 14.8315C69.7717 14.634 68.5235 14.7953 67.3966 15.2956C66.2696 15.796 65.3129 16.6137 64.6431 17.6489C63.9733 18.6841 63.6195 19.892 63.625 21.125V22.5912C62.7337 21.8846 61.6783 21.4144 60.5569 21.2242C59.4354 21.034 58.2841 21.13 57.2096 21.5033C56.2221 21.8631 55.3398 22.4635 54.6426 23.25H44.3491C43.8335 19.7115 42.0623 16.4765 39.3591 14.1357C36.6559 11.7949 33.2009 10.5044 29.625 10.5H21.125C17.1813 10.5045 13.4004 12.0731 10.6118 14.8618C7.82313 17.6504 6.2545 21.4313 6.25 25.375C6.25 25.9386 6.47388 26.4791 6.8724 26.8776C7.27091 27.2761 7.81141 27.5 8.375 27.5H21.125C21.6886 27.5 22.2291 27.2761 22.6276 26.8776C23.0261 26.4791 23.25 25.9386 23.25 25.375C23.25 24.8114 23.0261 24.2709 22.6276 23.8724C22.2291 23.4739 21.6886 23.25 21.125 23.25H10.7125C11.2053 20.8516 12.5102 18.6965 14.407 17.148C16.3037 15.5996 18.6765 14.7527 21.125 14.75H29.625C32.4419 14.7534 35.1424 15.8739 37.1343 17.8657C39.1261 19.8576 40.2466 22.5581 40.25 25.375C40.25 25.9386 40.4739 26.4791 40.8724 26.8776C41.2709 27.2761 41.8114 27.5 42.375 27.5H53V36H42.375C41.8114 36 41.2709 36.2239 40.8724 36.6224C40.4739 37.0209 40.25 37.5614 40.25 38.125C40.2466 40.9419 39.1261 43.6424 37.1343 45.6343C35.1424 47.6261 32.4419 48.7466 29.625 48.75H21.125C18.6765 48.7473 16.3037 47.9003 14.407 46.352C12.5102 44.8036 11.2053 42.6484 10.7125 40.25H29.625C30.1886 40.25 30.7291 40.0261 31.1276 39.6276C31.5261 39.2291 31.75 38.6886 31.75 38.125V25.375C31.75 24.8114 31.5261 24.2709 31.1276 23.8724C30.7291 23.4739 30.1886 23.25 29.625 23.25C29.0614 23.25 28.5209 23.4739 28.1224 23.8724C27.7239 24.2709 27.5 24.8114 27.5 25.375V36H8.375C7.81141 36 7.27091 36.2239 6.8724 36.6224C6.47388 37.0209 6.25 37.5614 6.25 38.125C6.2545 42.0687 7.82313 45.8496 10.6118 48.6382C13.4004 51.4269 17.1813 52.9955 21.125 53H29.625C33.2009 52.9956 36.6559 51.7051 39.3591 49.3643C42.0623 47.0235 43.8335 43.7885 44.3491 40.25H53V42.375C52.9997 42.7046 53.0761 43.0298 53.2231 43.3249L61.5 59.8765V65.9179C58.4081 68.6889 56.0401 72.1735 54.6021 76.0685C53.1642 79.9636 52.6998 84.1509 53.2494 88.2664C53.7991 92.3818 55.346 96.3006 57.7557 99.6817C60.1654 103.063 63.3648 105.804 67.0755 107.667C70.7863 109.529 74.896 110.457 79.047 110.368C83.198 110.28 87.2646 109.179 90.893 107.161C94.5213 105.142 97.6015 102.268 99.8655 98.7876C102.129 95.3072 103.509 91.3263 103.883 87.1913C103.909 86.9126 103.88 86.6316 103.798 86.3642C103.715 86.0968 103.581 85.8484 103.402 85.6331C103.223 85.4179 103.003 85.2402 102.755 85.11C102.508 84.9799 102.237 84.9001 101.958 84.875C101.398 84.831 100.843 85.0078 100.412 85.3676C99.9806 85.7273 99.7072 86.2415 99.6501 86.8002C99.3059 90.7398 97.8686 94.505 95.5 97.6717V72.2801C97.0446 74.3185 98.2014 76.6235 98.9128 79.0801C99.0689 79.6197 99.4323 80.0754 99.9235 80.3478C100.415 80.6202 100.994 80.687 101.534 80.5337C102.074 80.3803 102.532 80.0193 102.807 79.5295C103.082 79.0397 103.152 78.461 103.001 77.9199C101.693 73.2807 99.091 69.1098 95.5 65.8945V60.2547L96.2799 59.4749C99.6805 56.0801 101.674 51.5263 101.86 46.7249C101.871 46.4458 101.827 46.1673 101.731 45.9052C101.634 45.6431 101.487 45.4026 101.298 45.1974C100.915 44.7829 100.384 44.5374 99.8201 44.5149C99.5411 44.5037 99.2625 44.5476 99.0005 44.6441C98.7384 44.7406 98.4978 44.8877 98.2926 45.0772C97.8782 45.4597 97.6327 45.9913 97.6101 46.5549C97.465 50.2881 95.9151 53.8287 93.2709 56.468L91.8684 57.8705C91.6716 58.0684 91.5156 58.3031 91.4095 58.5612C91.3034 58.8194 91.2492 59.0959 91.25 59.375V101.913C87.1578 104.982 82.0959 106.472 76.9936 106.11C71.8913 105.747 67.091 103.556 63.474 99.9393C59.857 96.3223 57.6661 91.522 57.3035 86.4196C56.9408 81.3173 58.4309 76.2554 61.5 72.1633V90.162C61.5 90.7256 61.7239 91.2661 62.1224 91.6646C62.5209 92.0631 63.0614 92.287 63.625 92.287C64.1886 92.287 64.7291 92.0631 65.1276 91.6646C65.5261 91.2661 65.75 90.7256 65.75 90.162V59.375C65.7503 59.0454 65.6739 58.7202 65.5269 58.4251L57.25 41.8735V27.5C57.2497 27.0629 57.3843 26.6364 57.6353 26.2786C57.8862 25.9207 58.2415 25.649 58.6525 25.5004C59.7575 25.103 61.0325 25.6555 62.1609 27.0155C63.132 28.2308 63.6497 29.7462 63.625 31.3016V40.25C63.625 40.8136 63.8489 41.3541 64.2474 41.7526C64.6459 42.1511 65.1864 42.375 65.75 42.375C68.0043 42.375 70.1663 43.2705 71.7604 44.8646C73.3545 46.4587 74.25 48.6207 74.25 50.875V59.375C74.25 59.9386 74.4739 60.4791 74.8724 60.8776C75.2709 61.2761 75.8114 61.5 76.375 61.5C76.9386 61.5 77.4791 61.2761 77.8776 60.8776C78.2761 60.4791 78.5 59.9386 78.5 59.375V50.875C78.5001 48.9947 78.0836 47.1378 77.2804 45.4377C76.4772 43.7376 75.3073 42.2366 73.8548 41.0426C73.9907 40.9385 74.1225 40.8301 74.25 40.7175C75.4087 41.7834 76.9256 42.3751 78.5 42.3751C80.0744 42.3751 81.5913 41.7834 82.75 40.7175C83.9087 41.7834 85.4256 42.3751 87 42.3751C88.5744 42.3751 90.0913 41.7834 91.25 40.7175C92.1609 41.5484 93.2942 42.0961 94.5112 42.2935C95.7283 42.491 96.9765 42.3297 98.1034 41.8294C99.2304 41.329 100.187 40.5113 100.857 39.4761C101.527 38.4409 101.88 37.233 101.875 36V27.5H107.846C108.219 27.4996 108.585 27.4012 108.908 27.2148C109.23 27.0283 109.498 26.7602 109.684 26.4375C110.854 24.4119 112.659 22.8288 114.82 21.9338C116.981 21.0387 119.377 20.8817 121.636 21.487C123.895 22.0924 125.891 23.4263 127.315 25.2819C128.739 27.1375 129.511 29.4111 129.511 31.75C129.511 34.0889 128.739 36.3625 127.315 38.2181C125.891 40.0737 123.895 41.4076 121.636 42.013C119.377 42.6183 116.981 42.4613 114.82 41.5662C112.659 40.6712 110.854 39.0881 109.684 37.0625C109.394 36.5927 108.931 36.2545 108.396 36.1197C107.86 35.9849 107.293 36.0641 106.814 36.3405C106.336 36.6168 105.984 37.0687 105.833 37.6001C105.682 38.1316 105.744 38.701 106.006 39.1875C107.312 41.4493 109.19 43.3274 111.452 44.6329C113.714 45.9385 116.28 46.6256 118.891 46.625C121.503 46.6244 124.069 45.9362 126.33 44.6297C128.591 43.3231 130.469 41.4442 131.774 39.1818C133.078 36.9195 133.765 34.3535 133.763 31.7418C133.762 29.1301 133.073 26.5649 131.765 24.304C130.458 22.0431 128.578 20.1662 126.316 18.8621C124.053 17.558 121.487 16.8727 118.875 16.875ZM67.875 21.125C67.875 20.5614 68.0989 20.0209 68.4974 19.6224C68.8959 19.2239 69.4364 19 70 19C70.5636 19 71.1041 19.2239 71.5026 19.6224C71.9011 20.0209 72.125 20.5614 72.125 21.125V36C72.125 36.5636 71.9011 37.1041 71.5026 37.5026C71.1041 37.9011 70.5636 38.125 70 38.125C69.4364 38.125 68.8959 37.9011 68.4974 37.5026C68.0989 37.1041 67.875 36.5636 67.875 36V21.125ZM78.5 38.125C77.9364 38.125 77.3959 37.9011 76.9974 37.5026C76.5989 37.1041 76.375 36.5636 76.375 36V21.125C76.375 20.5614 76.5989 20.0209 76.9974 19.6224C77.3959 19.2239 77.9364 19 78.5 19C79.0636 19 79.6041 19.2239 80.0026 19.6224C80.4011 20.0209 80.625 20.5614 80.625 21.125V36C80.625 36.5636 80.4011 37.1041 80.0026 37.5026C79.6041 37.9011 79.0636 38.125 78.5 38.125ZM87 38.125C86.4364 38.125 85.8959 37.9011 85.4974 37.5026C85.0989 37.1041 84.875 36.5636 84.875 36V21.125C84.875 20.5614 85.0989 20.0209 85.4974 19.6224C85.8959 19.2239 86.4364 19 87 19C87.5636 19 88.1041 19.2239 88.5026 19.6224C88.9011 20.0209 89.125 20.5614 89.125 21.125V36C89.125 36.5636 88.9011 37.1041 88.5026 37.5026C88.1041 37.9011 87.5636 38.125 87 38.125ZM97.625 36C97.625 36.5636 97.4011 37.1041 97.0026 37.5026C96.6041 37.9011 96.0636 38.125 95.5 38.125C94.9364 38.125 94.3959 37.9011 93.9974 37.5026C93.5989 37.1041 93.375 36.5636 93.375 36V21.125C93.375 20.5614 93.5989 20.0209 93.9974 19.6224C94.3959 19.2239 94.9364 19 95.5 19C96.0636 19 96.6041 19.2239 97.0026 19.6224C97.4011 20.0209 97.625 20.5614 97.625 21.125V36Z" fill="#29394D"/>
<path d="M118.875 29.625C119.439 29.625 119.979 29.4011 120.378 29.0026C120.776 28.6041 121 28.0636 121 27.5C121 26.9364 120.776 26.3959 120.378 25.9974C119.979 25.5989 119.439 25.375 118.875 25.375C117.614 25.375 116.382 25.7489 115.333 26.4494C114.285 27.1499 113.468 28.1455 112.985 29.3104C112.503 30.4753 112.377 31.7571 112.622 32.9937C112.868 34.2303 113.476 35.3662 114.367 36.2578C115.259 37.1494 116.395 37.7565 117.631 38.0025C118.868 38.2485 120.15 38.1222 121.315 37.6397C122.479 37.1572 123.475 36.3401 124.176 35.2918C124.876 34.2434 125.25 33.0109 125.25 31.75C125.25 31.1864 125.026 30.6459 124.628 30.2474C124.229 29.8489 123.689 29.625 123.125 29.625C122.561 29.625 122.021 29.8489 121.622 30.2474C121.224 30.6459 121 31.1864 121 31.75C121 32.1703 120.875 32.5811 120.642 32.9306C120.408 33.28 120.076 33.5524 119.688 33.7132C119.3 33.8741 118.873 33.9162 118.46 33.8342C118.048 33.7522 117.67 33.5498 117.372 33.2526C117.075 32.9554 116.873 32.5768 116.791 32.1646C116.709 31.7524 116.751 31.3251 116.912 30.9368C117.073 30.5485 117.345 30.2166 117.694 29.9831C118.044 29.7496 118.455 29.625 118.875 29.625Z" fill="#29394D"/>
</svg>
