<svg width="24" height="24" viewBox="0 0 24 24" fill="none" xmlns="http://www.w3.org/2000/svg">
<path d="M5.60528 7.37006C5.36058 7.27051 5.04248 7.3624 5.04248 6.99487C5.03432 6.55076 5.06695 6.4895 5.55634 6.4895C6.49435 6.4895 7.43236 6.48185 8.37038 6.49716C8.5906 6.49716 8.91687 6.35933 8.95765 6.76516C8.99843 7.19395 8.95765 7.2552 8.41931 7.35474C8.41931 11.5355 8.41931 15.7315 8.41931 19.9429C8.25618 19.9429 8.13383 19.9429 7.96254 19.9429C7.96254 19.6213 7.96254 19.3073 7.96254 18.9551C7.13873 19.2614 6.50251 19.805 5.61344 20.0424C5.60528 15.7545 5.60528 11.5508 5.60528 7.37006ZM6.0539 16.2905C6.7309 15.9306 7.3508 15.6013 8.04411 15.2338C7.33448 14.8586 6.71458 14.537 6.0539 14.1848C6.0539 14.9045 6.0539 15.5631 6.0539 16.2905ZM6.06205 7.86776C6.06205 8.58752 6.06205 9.25368 6.06205 9.96578C6.7309 9.61356 7.3508 9.28431 8.05227 8.91677C7.32633 8.53392 6.71458 8.21233 6.06205 7.86776ZM6.0539 19.4452C6.73905 19.0853 7.3508 18.7637 8.04411 18.3961C7.32633 18.0209 6.70643 17.6917 6.0539 17.3471C6.0539 18.0592 6.0539 18.7177 6.0539 19.4452ZM6.0539 11.0301C6.0539 11.7499 6.0539 12.4084 6.0539 13.1281C6.72274 12.7759 7.3508 12.4467 8.04411 12.0791C7.33448 11.7039 6.7309 11.3823 6.0539 11.0301ZM7.92176 14.6902C7.92176 13.9781 7.92176 13.3119 7.92176 12.6151C7.25292 12.9673 6.64117 13.2889 5.95602 13.6565C6.64933 14.0163 7.26108 14.3379 7.92176 14.6902ZM7.92176 17.8448C7.92176 17.1327 7.92176 16.4819 7.92176 15.7698C7.25292 16.122 6.64117 16.4436 5.95602 16.8035C6.65749 17.1787 7.26923 17.5003 7.92176 17.8448ZM7.93807 9.44511C7.25292 9.80499 6.63302 10.1342 5.95602 10.4941C6.65749 10.8616 7.27739 11.1832 7.93807 11.5355C7.93807 10.8081 7.93807 10.1572 7.93807 9.44511ZM7.92992 7.34709C7.30186 7.34709 6.69011 7.34709 5.97233 7.34709C6.68196 7.71462 7.27739 8.03622 7.92992 8.37313C7.92992 7.99793 7.92992 7.69165 7.92992 7.34709Z" fill="#FE7A41"/>
<path d="M21.9999 3.52637C21.9999 4.40692 21.9999 5.26451 21.9999 6.15272C17.628 6.15272 13.2723 6.15272 8.90853 6.15272C8.90853 6.03021 8.90853 5.91535 8.90853 5.78518C9.1777 5.76987 9.43056 5.76221 9.69973 5.7469C9.47134 4.98886 8.68015 4.42989 8.92485 3.52637C13.2723 3.52637 17.6198 3.52637 21.9999 3.52637ZM10.3115 5.86175C10.7111 5.15731 11.0456 4.56006 11.3963 3.9475C10.6296 3.9475 9.95258 3.9475 9.21849 3.9475C9.58553 4.58303 9.91996 5.17262 10.3115 5.86175ZM21.3882 3.9475C20.6296 3.9475 19.9526 3.9475 19.2185 3.9475C19.5855 4.58303 19.9281 5.18028 20.3115 5.8541C20.703 5.15731 21.0374 4.56772 21.3882 3.9475ZM15.8743 3.92453C16.2495 4.58303 16.5921 5.17263 16.9754 5.84644C17.3669 5.15731 17.7014 4.56006 18.0684 3.92453C17.3098 3.92453 16.6328 3.92453 15.8743 3.92453ZM12.5464 3.93219C12.9216 4.59069 13.2642 5.18028 13.6475 5.8541C14.039 5.15731 14.3816 4.56007 14.7405 3.93219C13.9738 3.93219 13.3049 3.93219 12.5464 3.93219ZM10.8906 5.73159C11.6492 5.73159 12.3262 5.73159 13.0603 5.73159C12.6932 5.0884 12.3588 4.49115 11.9754 3.82499C11.5921 4.49881 11.2576 5.0884 10.8906 5.73159ZM18.6394 3.81734C18.2479 4.50647 17.9053 5.10371 17.5545 5.73159C18.2968 5.73159 18.982 5.73159 19.7242 5.73159C19.3653 5.09606 19.0309 4.50647 18.6394 3.81734ZM14.2185 5.73159C14.9771 5.73159 15.6541 5.73159 16.3963 5.73159C16.0293 5.0884 15.6948 4.49115 15.3115 3.80968C14.92 4.50646 14.5855 5.09606 14.2185 5.73159ZM21.5023 4.78212C21.486 4.7668 21.4616 4.75915 21.4453 4.74383C21.2658 5.06543 21.0864 5.38702 20.8988 5.73924C21.1353 5.73924 21.3066 5.73924 21.5105 5.73924C21.5023 5.40999 21.5023 5.09606 21.5023 4.78212Z" fill="#FE7A41"/>
<path d="M8.65577 6.25231C7.53015 6.25231 6.45348 6.25231 5.33602 6.25231C5.33602 5.29519 5.32787 4.35337 5.34418 3.41156C5.35234 3.14357 5.56441 3.00574 5.84173 3.00574C6.61661 2.99809 7.39149 2.99809 8.16637 3.00574C8.46816 3.00574 8.65577 3.15888 8.65577 3.45751C8.65577 4.37635 8.65577 5.29519 8.65577 6.25231ZM8.41107 3.51111C7.88089 3.51111 7.36702 3.48048 6.86131 3.52642C6.70633 3.54173 6.48611 3.76379 6.46164 3.91693C6.40454 4.26149 6.40454 4.62903 6.46164 4.98125C6.48611 5.12673 6.69002 5.34113 6.82868 5.34879C7.34255 5.39473 7.87273 5.3641 8.40291 5.3641C8.41107 4.72857 8.41107 4.13898 8.41107 3.51111Z" fill="#FE7A41"/>
<path d="M2 3.51855C3.04405 3.51855 4.05547 3.51855 5.10767 3.51855C5.28712 4.40677 4.47961 4.96573 4.26754 5.7544C4.54486 5.7544 4.80588 5.7544 5.11583 5.7544C5.12398 5.90754 5.13214 6.0224 5.1403 6.16022C4.07994 6.16022 3.0522 6.16022 2.00816 6.16022C2 5.27967 2 4.42208 2 3.51855ZM2.53834 3.93203C2.91354 4.59054 3.25612 5.18012 3.63948 5.8616C4.031 5.16481 4.37357 4.56757 4.73247 3.93203C3.9739 3.93203 3.2969 3.93203 2.53834 3.93203ZM2.4894 4.72836C2.4894 5.1495 2.4894 5.44812 2.4894 5.74674C2.68516 5.74674 2.84013 5.74674 3.06036 5.74674C2.87276 5.40983 2.70963 5.11887 2.4894 4.72836Z" fill="#FE7A41"/>
<path d="M6.95951 20.9919C6.30698 20.9919 5.65445 20.9766 5.00192 20.9996C4.6675 21.0073 4.58594 20.8694 4.58594 20.5861C4.58594 20.2952 4.69197 20.1803 5.01824 20.1803C6.33145 20.188 7.65282 20.188 8.96604 20.1803C9.27599 20.1803 9.39834 20.2645 9.39834 20.5708C9.39834 20.8847 9.30046 21.0073 8.95788 20.9919C8.28904 20.9766 7.62835 20.9919 6.95951 20.9919Z" fill="#FE7A41"/>
<path d="M17.7912 6.38245C18.9657 6.38245 20.1158 6.38245 21.2577 6.38245C21.3475 6.99501 21.2251 7.13283 20.6215 7.13283C19.8874 7.13283 19.1533 7.13283 18.4192 7.13283C17.8238 7.13283 17.6933 6.97969 17.7912 6.38245Z" fill="#FE7A41"/>
<path d="M19.9445 11.2064C20.0424 11.5051 19.9201 11.7118 19.7162 11.7424C19.5286 11.7731 19.2268 11.7041 19.1289 11.574C18.876 11.2447 19.1452 11.0227 19.4307 10.8389C19.2757 10.7087 19.0881 10.6168 19.0228 10.4714C18.9494 10.3106 18.9087 10.0273 19.0065 9.94303C19.3899 9.5908 19.2757 9.16967 19.2839 8.76385C19.292 8.30443 19.2839 7.85266 19.2839 7.37793C19.4551 7.37793 19.5857 7.37793 19.7488 7.37793C19.7488 8.04409 19.7406 8.69493 19.7569 9.33812C19.7651 9.4836 19.8385 9.65206 19.9364 9.76691C20.2137 10.0962 20.1729 10.4484 19.8304 10.6934C19.6264 10.8466 19.4307 11.0227 19.2839 11.2217C19.2349 11.2907 19.3002 11.4897 19.3817 11.5663C19.4388 11.6199 19.6346 11.5893 19.7325 11.5357C19.814 11.4744 19.8467 11.3519 19.9445 11.2064ZM19.5122 9.8588C19.4062 10.0119 19.292 10.1038 19.3002 10.1804C19.3165 10.2646 19.447 10.3259 19.5286 10.4024C19.602 10.3259 19.7243 10.2493 19.7325 10.1727C19.7406 10.0885 19.6264 10.0043 19.5122 9.8588Z" fill="#FE7A41"/>
</svg>
