<?xml version="1.0" standalone="no"?>
<!DOCTYPE svg PUBLIC "-//W3C//DTD SVG 20010904//EN"
 "http://www.w3.org/TR/2001/REC-SVG-20010904/DTD/svg10.dtd">
<svg version="1.0" xmlns="http://www.w3.org/2000/svg"
 width="700.000000pt" height="700.000000pt" viewBox="0 0 700.000000 700.000000"
 preserveAspectRatio="xMidYMid meet">
<metadata>
Created by potrace 1.14, written by Peter Selinger 2001-2017
</metadata>
<g transform="translate(0.000000,700.000000) scale(0.100000,-0.100000)"
fill="#000000" stroke="none">
<path d="M0 3500 l0 -3500 3500 0 3500 0 0 3500 0 3500 -3500 0 -3500 0 0
-3500z m1600 581 c0 -561 3 -682 15 -752 51 -273 168 -430 372 -501 96 -32
276 -33 378 -1 188 59 325 220 387 453 21 83 22 99 25 778 l4 692 300 0 299 0
0 -677 c0 -722 -3 -781 -51 -953 -127 -456 -461 -767 -914 -850 -99 -18 -292
-23 -395 -11 -516 63 -875 403 -984 932 -32 154 -36 260 -36 907 l0 652 300 0
300 0 0 -669z m3515 654 c343 -56 594 -266 706 -593 47 -135 64 -362 39 -516
-54 -337 -267 -606 -566 -715 -141 -51 -233 -61 -581 -61 l-313 0 -2 -277 -3
-278 -297 -3 -298 -2 0 1230 0 1230 613 0 c489 0 630 -3 702 -15z"/>
<path d="M4400 3800 l0 -401 298 3 297 3 62 29 c81 37 152 111 184 191 20 51
23 78 24 180 0 112 -2 124 -29 183 -36 78 -113 152 -194 183 -54 22 -73 23
-349 27 l-293 4 0 -402z"/>
</g>
</svg>
