<svg width="56" height="56" viewBox="0 0 56 56" fill="none" xmlns="http://www.w3.org/2000/svg">
<rect width="56" height="56" fill="#FE7A41"/>
<path fill-rule="evenodd" clip-rule="evenodd" d="M27.0783 18V27.5665C27.0783 34.0694 22.9485 38 17.4228 38C11.8098 38 8 34.0694 8 27.5665V18H12.7696V27.5665C12.7696 31.3526 14.3982 33.6069 17.4228 33.6069C20.3893 33.6069 22.2506 31.3526 22.2506 27.5665V18H27.0783ZM39.4966 18C44.5571 18 47 21.7572 47 25.5723C47 29.4451 44.528 33.2023 39.4676 33.2023H35.1633V37.6532H30.3647V18H39.4966ZM38.9441 22.3931H35.1633V28.8382H38.9441C40.8635 28.8382 42.1723 27.711 42.1723 25.5723C42.1723 23.4624 40.8635 22.422 38.9441 22.3931Z" fill="white"/>
</svg>
